<?xml version="1.0" encoding="utf-8"?>
<!-- Generator: Adobe Illustrator 22.1.0, SVG Export Plug-In . SVG Version: 6.00 Build 0)  -->
<svg version="1.1" id="Layer_1" xmlns="http://www.w3.org/2000/svg" xmlns:xlink="http://www.w3.org/1999/xlink" x="0px" y="0px"
	 viewBox="0 0 676 634" style="enable-background:new 0 0 676 634;" xml:space="preserve">
<style type="text/css">
	.st0{fill:#1E2D51;}
</style>
<g>
	<path class="st0" d="M13,66c3.1,5.8,5.4,12.3,9.6,17.2c7.2,8.5,18.3,9.4,28.7,3.6c3.3-1.9,6.7-4,9.2-6.7c3.3-3.6,6.9-4.2,11.2-3.6
		c27.7,3.5,48,17.5,61.3,42c10.5,19.5,15.4,40.7,18.5,62.4c4,27.4,5,55,5.4,82.7c0.3,23.6,0.4,47.3,1.9,70.9
		c1.4,21.4,4.8,42.6,7.1,63.9c0.2,1.7-0.8,4.5-2,5.1c-11.3,5.7-18.1,15.3-22.5,26.5c-14.6,37.4-15.2,75,0.3,112.4
		c1.1,2.8,2.8,5.3,4.3,7.9c0.5,0.8,1.2,1.5,2.4,2.8c1-2,1.8-3.5,2.4-5.1c11.4-26,30.6-42.6,58.8-47.2c14.7-2.4,28.1,1.1,38.8,12.4
		c1.4,1.4,4.4,2.4,6.4,2c44.7-10.3,90.1-14.4,135.9-12.7c18.8,0.7,37.4,3.4,56.1,5.4c4.5,0.5,8.6,0.7,13-1.4
		c11.5-5.5,23.6-7.8,36.9-6.4c-1.4-1-2.8-2.2-4.4-3c-22.4-12.6-46.9-18.9-71.9-23.4c-30.1-5.4-60.5-7.5-91-6.7
		c-37.8,1.1-75.1,5.5-111.1,17.8c-16.5,5.6-32.1,13-45.8,24.1c-0.5,0.4-1.1,0.6-1.6,1c-0.4-0.3-0.9-0.7-1.3-1
		c6.5-9.1,12.4-18.7,19.5-27.3c23.1-27.8,53.8-42.5,88.7-49.1c32.5-6.1,65.3-5.2,98-1.6c54.7,6.1,107.6,20,160.6,34
		c1.8,0.5,3.5,1,5.3,1.4c8.5,2.2,15.3-4.6,12.1-13c-1.7-4.4-4.9-8.8-8.6-11.9c-13.1-11.3-28.9-17.7-44.9-23.6
		c-41.3-15.1-84.1-24.4-127.8-29.1c-26.4-2.8-53.1-4.1-79.7-4.9c-24.7-0.7-49.2,1.9-73.5,6.6c-1.5,0.3-2.9,0.4-5.4,0.8
		c-2.3-9.4-5.4-18.6-6.6-28c-3.6-27-6.7-54.1-9.4-81.3c-3.6-36.1-5.9-72.3-10.3-108.3c-3.4-27.9-11-54.8-25.8-79.3
		c-18.8-31.1-47-48.2-82.1-54.8c-10.4-2-20.8-4.4-31.2-6.7c-5.7,0-11.3,0-17,0c-9.7,3-16.1,9.2-19,19C13,56.7,13,61.3,13,66z"/>
	<path class="st0" d="M653,211c-1,4-1.9,8.1-3,12.1c-8,28.1-23.7,52-41.2,74.8c-28,36.3-60.6,68.2-95.3,98.1
		c-0.6,0.6-1.5,0.9-3.3,1.9c1.1-2.2,1.7-3.4,2.3-4.5c8-14,16-28.1,24.2-42c2-3.4,1.5-5-1.8-7c-18.8-11.2-38.4-20.6-58.8-28.5
		c-4.3-1.7-6.5-1.1-8.8,2.9c-9,16-18.3,31.7-27.4,47.6c-4,7-7.7,14.2-11.5,21.4c-0.6-0.2-1.2-0.4-1.8-0.6
		c8.3-26.3,16.6-52.7,25-79.3c-0.4-0.2-1.1-0.7-1.9-0.9c-14.8-3.8-29.7-7.6-44.5-11.4c-3.2-0.8-4.9,0.8-6,3.7
		c-5.9,16.3-11.9,32.5-17.8,48.8c-0.5,1.5-1,3-1.6,4.4c-1-1.7-1.3-3.3-1.2-4.9c1.7-16.9,3.2-33.8,5.3-50.6c0.5-4.3-0.3-5.6-4.4-6
		c-16.2-1.5-32.4-3.3-48.6-5c-2.9-0.3-4.3,0.6-4.9,3.5c-1.5,7.3-3.2,14.6-4.8,22c-0.8,3.9-1.4,7.9-2.1,11.9c-1.3-1.8-1.5-3.4-1.4-5
		c0.3-9.5,0.6-19,0.9-28.4c0.1-2.6-0.2-4.7-3.6-4.7c-13.8-0.1-27.6-0.2-41.4-0.3c-5.1,0-10.2,0-15.4,0c1.5-1.9,3.1-2.7,4.7-3.5
		c17.1-8,35.1-13.5,53.8-16.5c3.6-0.6,5.1-2.1,5.8-5.6c2-10.6,4.3-21.2,6.5-31.8c0.3-1.6,0.5-3.2,1-5.7c-11.4-0.6-22.1-1.3-32.9-1.7
		s-21.6-0.6-32.5-0.7c-10.5-0.1-21.1,0-31.6,0c31.6-6.1,63.5-9.8,95.7-10.5c4-0.1,5.9-1.3,7-5.2c2.7-9.3,5.9-18.4,9-27.5
		c2.3-6.7,4.7-13.3,7.4-20.9c-49.2,2.1-97.5,4.2-145.7,6.3c0.9-1.1,1.9-1.5,3-1.7c53.3-10.3,106.7-20.3,160.6-26.2
		c33.2-3.7,66.6-6.9,100-8.3c25.2-1.1,50.6,0.2,75.9,1.9c22.6,1.5,44.9,6.2,65.8,15.6c21,9.5,36.5,23.7,41.2,47.4
		C653,197,653,204,653,211z M426.3,154.4c-11.8,0-23.6,0.2-35.4,0.7c-1.8,0.1-4.5,1.3-5.3,2.8c-8.9,15.6-17.5,31.4-26.2,47.2
		c-0.3,0.5-0.3,1.2-0.6,2.5c5.8,0.4,11.4,0.8,16.9,1.1c11.6,0.6,23.3,1.2,34.9,1.6c1.5,0,3.6-0.9,4.4-2.1
		c10.9-16.8,21.5-33.6,32.3-50.5c0.3-0.4,0.3-0.9,0.8-2.2C440.5,155.1,433.4,154.4,426.3,154.4z M517.9,159.8
		c-8.9-1-17.8-2-26.8-2.5c-2.1-0.1-5.2,0.9-6.5,2.5c-12.9,16.7-25.5,33.7-38.2,50.6c-0.6,0.7-0.9,1.7-1.5,3
		c11.9,1.8,23.3,3.6,34.8,5.3c2.8,0.4,5.7,0.6,8.4,1.4c4.8,1.5,7.4-0.1,10.1-4.3c11.5-17.7,23.5-35.1,35.8-53.4
		C528.6,161.4,523.2,160.4,517.9,159.8z M557.7,315.2c6.6-12.2,13.2-24.4,19.8-36.7c1.8-3.4-0.8-4-3-4.7c-14.6-4.5-29.2-9-43.9-13.5
		c-5.1-1.5-10.2-3-15.4-4.2c-1.5-0.3-4-0.1-4.8,0.9c-7.5,9.7-14.7,19.6-22.1,29.6C511.8,296.3,534.5,305.6,557.7,315.2z
		 M578.4,241.7c2.7,0.8,5.5,1.4,8.1,2.5c4.1,1.9,6.2,0.9,7.6-3.5c4-12.9,6.8-25.8,3.6-39.2c-2-8.4-6.9-15.1-13.7-20.2
		c-1.2-0.9-4.5-0.9-5.4,0c-14.9,15.4-29.6,31-44.3,46.6c-0.2,0.2-0.2,0.6-0.3,1.3C549,233.4,563.7,237.5,578.4,241.7z M362.7,261.7
		c8.3,0.3,16.6,0.9,24.9,1.6c2.6,0.2,4.5,0.3,5.5-2.7c3.2-9.4,6.7-18.8,10.4-29.2c-5.9-1-11.7-2.2-17.4-3c-9.9-1.4-19.8-2.5-29.6-4
		c-4.4-0.7-7.1,0.4-8.9,4.9c-4.2,10.8-8.8,21.5-13.3,32.3C344.5,261.7,353.6,261.5,362.7,261.7z M447.1,239.5
		c-3.9-0.9-7.9-1.3-11.7-2.4c-3.7-1.1-5.8-0.1-7.5,3.4c-3.5,7-7.4,13.7-11.1,20.6c-0.9,1.7-1.6,3.5-2.6,5.9c5.4,1.1,10.1,2,14.7,3.1
		c10.3,2.6,20.6,5.1,30.9,8c3.7,1,5.4,0.1,6.9-3.3c4.1-9,8.6-17.9,13.4-27.9C468.4,244.3,457.8,241.8,447.1,239.5z"/>
	<path class="st0" d="M151.4,560c5.9-29.3,33-53.5,62.7-56.1c20.5-1.7,36.7,10.7,39.6,31c1.8,12.9-2.3,24.8-9.3,35.5
		c-13.4,20.4-31.8,32.6-50.6,33.9C162.1,604.3,146.4,585.2,151.4,560z M200.9,531.1c-17.3,0.5-33.4,20.1-30.4,37
		c2,11.2,11.7,17.6,23.4,15.2c14.7-3,27-18.1,26.9-33.1C220.7,538.2,212.9,530.7,200.9,531.1z"/>
	<path class="st0" d="M420.6,562.5c3.9-29.9,34-57.4,64.1-58.7c23-0.9,38.8,14.4,38.6,37.3c-0.2,31.5-33.3,63.2-65.9,63.2
		C432.5,604.4,417.4,587.1,420.6,562.5z M464,583.1c14.3-3.4,25.9-17.5,26.5-32.1c0.5-14-11.2-22.9-25.4-19.3
		c-14.1,3.6-25.1,17.8-25.1,32.5C440,578,450.5,586.3,464,583.1z"/>
</g>
</svg>
