<svg id="Layer_1" data-name="Layer 1" xmlns="http://www.w3.org/2000/svg" viewBox="0 0 673.19 352.79"><defs><style>.cls-1{fill:#1e2d51;}</style></defs><title>logo-landing-page</title><g id="Layer_5" data-name="Layer 5"><path class="cls-1" d="M307.86,22a8.71,8.71,0,0,1,4.22,1.56,9.58,9.58,0,0,1,3.12,4,23.34,23.34,0,0,1,1.72,6.87,47.08,47.08,0,0,1-.08,10,68.17,68.17,0,0,1-2.22,11.78,41.93,41.93,0,0,1-4.45,10.53A23.18,23.18,0,0,1,303.42,74a13.38,13.38,0,0,1-9.12,2.17,12.26,12.26,0,0,1-7.43-3.07,16.43,16.43,0,0,1-4.17-6.34,26.37,26.37,0,0,1-1.61-8,55.42,55.42,0,0,1,.17-8.25,68.93,68.93,0,0,1,1.16-7.42,36.41,36.41,0,0,1,2.18-7,17.41,17.41,0,0,1,3.52-5.37,8.22,8.22,0,0,1,5-2.52,11.13,11.13,0,0,1,2.94-3.86,11,11,0,0,1,3.72-2,14.71,14.71,0,0,1,4.06-.59A38.58,38.58,0,0,1,307.86,22Zm-7.75,49.43c1.13.12,2.32-.84,3.59-2.87a38.19,38.19,0,0,0,3.54-7.78A81.55,81.55,0,0,0,310,50.46,63.37,63.37,0,0,0,311.31,40a24.48,24.48,0,0,0-.9-8.21q-1.05-3.33-3.91-3.62c-.84-.08-1.5.45-2,1.58a37.6,37.6,0,0,0-1.35,4q-.64,2.28-1.52,4.6a7.28,7.28,0,0,1-2.36,3.41c-.31,3.09-.73,6.35-1.28,9.77s-.95,6.57-1.2,9.47a25.24,25.24,0,0,0,.24,7.26C297.51,70.2,298.51,71.25,300.11,71.41Z"/><path class="cls-1" d="M343,38.59q12.38.46,24.72-9.07c1,.12,1.78,1.22,2.48,3.28q1.88,5.43-.51,7.27-11,9-30.22,6.45-4.32,11.11-5.29,13.65,1.31,6.43,2.17,12.51.66,4.39,1.11,13.2c.09,5.25.05,8.83-.1,10.74a84.68,84.68,0,0,1-1.84,13.73q-3,12.15-7.75,17l-.54.55c-2.67,3-5.73,3.51-9.21,1.61a34.7,34.7,0,0,1-8.51-6.34,11.82,11.82,0,0,1-3.05-9.11,92.82,92.82,0,0,1,1.27-12.34Q311.8,79.28,323.48,52q-3.71-9.19-7.61-11.56,2.72-6.64,8.08-5.94l6.38,1.22Q334.82,24.32,346.1.6h.06a3.23,3.23,0,0,1,1.57-.5,27.43,27.43,0,0,1,5.51.08c3.46.51,5.54,1.13,6.23,1.84a.58.58,0,0,1,.21.36l-.25.62q-7,14.94-16.37,35.53Zm-21.42,83.53a27.37,27.37,0,0,0,4.28-6.75,49.66,49.66,0,0,0,2.71-7.68,75.2,75.2,0,0,0,1.73-10,95.92,95.92,0,0,0,.38-13.13,105.34,105.34,0,0,0-1.16-11.62c-1.19,3.33-2.16,6.23-2.93,8.7A139.62,139.62,0,0,0,320.41,108q-1,9.6,1.06,14.12Z"/><path class="cls-1" d="M132.87,43a9.85,9.85,0,0,1,4.82,1.52,10.92,10.92,0,0,1,3.73,4.38,26.85,26.85,0,0,1,2.32,7.63,53,53,0,0,1,.46,11.26,77.26,77.26,0,0,1-1.86,13.37,47.16,47.16,0,0,1-4.43,12.07,26,26,0,0,1-7.17,8.56,15,15,0,0,1-10.13,2.93,13.73,13.73,0,0,1-8.52-3,18.41,18.41,0,0,1-5-6.89,30,30,0,0,1-2.25-9,63.87,63.87,0,0,1-.26-9.28,79,79,0,0,1,.9-8.4,40.91,40.91,0,0,1,2.07-8,19.61,19.61,0,0,1,3.65-6.22,9.28,9.28,0,0,1,5.54-3.11,12.5,12.5,0,0,1,3.09-4.51,12.26,12.26,0,0,1,4.07-2.41,16.26,16.26,0,0,1,4.52-.89A44,44,0,0,1,132.87,43Zm-6,56q1.9.09,3.88-3.43a43.61,43.61,0,0,0,3.55-8.94,92,92,0,0,0,2.55-11.72,70.68,70.68,0,0,0,.88-11.81,27.83,27.83,0,0,0-1.46-9.18q-1.36-3.69-4.59-3.85c-1,0-1.66.58-2.12,1.88a42.21,42.21,0,0,0-1.31,4.55c-.4,1.73-.89,3.48-1.45,5.24a8.17,8.17,0,0,1-2.47,4q-.26,5.25-.9,11c-.43,3.88-.71,7.44-.83,10.71a28.61,28.61,0,0,0,.67,8.15q.86,3.2,3.6,3.33Z"/><path class="cls-1" d="M265.51,53.25a1.92,1.92,0,0,1,.78-.84.77.77,0,0,1,.75,0,1.1,1.1,0,0,1,.47.72,2,2,0,0,1-.27,1.27c-.18.31-.54,1.15-1.12,2.51a49.23,49.23,0,0,1-2.33,4.79,60.07,60.07,0,0,1-3.55,5.78,32.72,32.72,0,0,1-4.7,5.47,19.88,19.88,0,0,1-5.78,3.81,12.53,12.53,0,0,1-6.79.86,18.28,18.28,0,0,1-8.39-3.29,21.5,21.5,0,0,1-5.74-6.24,24.36,24.36,0,0,1-3-7.71,22.89,22.89,0,0,1-.32-7.83,42.12,42.12,0,0,1,2.33-9.17,56.91,56.91,0,0,1,3.66-7.88,40.83,40.83,0,0,1,4.12-6.05,23.06,23.06,0,0,1,3.69-3.7,8.94,8.94,0,0,1,3.89-1.42,18.63,18.63,0,0,1,4.6,0,27.12,27.12,0,0,1,4.27.85,9.73,9.73,0,0,1,3,1.33A8,8,0,0,1,258,31.19a18.25,18.25,0,0,1,.33,7.43q-1.1,7.79-4.72,11.35a9.38,9.38,0,0,1-8.17,2.92A16.09,16.09,0,0,1,242,52a30.46,30.46,0,0,1-3.17-1.35,23.69,23.69,0,0,0-.46,7.27,27.28,27.28,0,0,0,1.39,6.63,15.61,15.61,0,0,0,2.76,4.9,5.78,5.78,0,0,0,3.61,2.27A10,10,0,0,0,251.6,71a16.87,16.87,0,0,0,4.64-3,23.91,23.91,0,0,0,3.73-4.3c1.07-1.59,2-3.11,2.82-4.58a34.1,34.1,0,0,0,1.86-3.85A13.78,13.78,0,0,1,265.51,53.25Zm-15-19.9a4.82,4.82,0,0,0-3.54.91,12.6,12.6,0,0,0-3.11,3.28,26.34,26.34,0,0,0-2.59,5,47.61,47.61,0,0,0-2,6.05,6.85,6.85,0,0,0,5,1.36,7.37,7.37,0,0,0,3.88-2.07,11.9,11.9,0,0,0,2.65-4.05,19.17,19.17,0,0,0,1.33-4.69,11.22,11.22,0,0,0-.06-3.92C251.85,34.09,251.33,33.47,250.51,33.35Z"/><path class="cls-1" d="M179.33,24.57c1.12,0,3,1,5.77,3,2.36,2,3.58,3.44,3.67,4.24q-2.66,14.07-4.71,28.73c-.52,3.82-1,8.06-1.38,12.72-.11,2-.16,3.06-.15,3.14a96.83,96.83,0,0,0,5.19-9.28q1.78-3.57,4.22-9.16h.16q1.59.09,4.34,2.88a2.37,2.37,0,0,1,.4.64,51.08,51.08,0,0,1-2.58,5.81,121.5,121.5,0,0,1-5.94,11.37,33.81,33.81,0,0,1-3.64,5,5.33,5.33,0,0,1-2.18,1.51l-.32.06q-2.88.54-7.05-3.81a9,9,0,0,1-2.32-5.34V75.7a57.2,57.2,0,0,1,.07-9.88,165.3,165.3,0,0,1-7.27,15.12c-3.14,5.57-5.62,8.52-7.47,8.87q-2.5.47-5.2-1.75a16.83,16.83,0,0,1-3.18-3.24,10.85,10.85,0,0,1-2-5.73l-.06-.57q-1.29-11.82,4.1-37.24c.92-3.94,1.83-7.5,2.75-10.71a.87.87,0,0,1,.31-.18c1-.1,3,1,6,3.28q3.3,2.82,3.42,3.91v.19q-2.26,8.59-4.17,18.17-1.46,7.55-2.35,15.37-.44,4.5-.46,8.2c0,1.68,0,2.68,0,3a52.14,52.14,0,0,0,3.89-6.18q4.84-9.47,8.11-17.42a128.12,128.12,0,0,0,5.7-16.61q2.12-8,3.92-17.45A.45.45,0,0,1,179.33,24.57Z"/><path class="cls-1" d="M195.54,64.69l-5.88-3.34C192,55.16,199.2,37.91,201.18,31c1.38-4.55,3-8.38,4.12-12,.57-2.49,1.9-4,4-4.48a8.4,8.4,0,0,1,5.51,1,2.69,2.69,0,0,1,1.89,1.69c.17.69-.17,1.66-.93,3.2a12.67,12.67,0,0,0-1.48,5.28,22.4,22.4,0,0,0,.71,6.15c0,.13.17.92.52,2.37l.29,1.22a98.31,98.31,0,0,0,5.38,14.7,44.31,44.31,0,0,1,1.53,5l.07.28a30.82,30.82,0,0,1-.74,17.84A27.53,27.53,0,0,1,220.26,77a17.4,17.4,0,0,1-3.14,4c-4.73,3.67-14,5.37-18.66.91-2.82-2.69-5.5-8.45,1.63-17.5.46.2.42,1.55.17,2-5.94,10.34-.24,15,3.31,13.88,5-1.6,7.88-7.22,9-10.59A43.37,43.37,0,0,0,214,64a33.22,33.22,0,0,0-.53-12.91,58,58,0,0,0-3.17-8.95A76.24,76.24,0,0,1,206.67,32h0a319.2,319.2,0,0,1-11.11,32.74Z"/><path class="cls-1" d="M61.63,34.6C59.46,43.49,57.48,53,55.74,63c-7.61,2.78-11,5.28-10.64,7.86.17,1.25,1.36,2.74,3.77,4.73a44,44,0,0,0,4.61,3.19c-1.42,12.4-1.68,22-.79,28.55.06.39.19,1.07.39,2s.88,1.83,2.51,3.31c3.85,3.21,6.42,4.76,8.16,4.9a1.06,1.06,0,0,0,.68-.43l.19-.24-.47-3.45a87.64,87.64,0,0,1-.23-15.62A253.61,253.61,0,0,1,67,71.73c4.75-1.65,11.17-3.46,19.1-5.38C83,87.24,82.31,104.24,84,116.89c.15,1.08.37,2.42.66,4a4.13,4.13,0,0,0,1.21,2.39,28.92,28.92,0,0,0,4.61,3.87c2.48,1.7,3.66,2.22,4.37,2.35h.47l.45-.06.62-.56-.07-.4c-.45-2.49-.73-4.1-.83-4.81-2-14.51-.69-34.82,3.83-60.37A205.31,205.31,0,0,1,120.58,60a1,1,0,0,0,.76-.45,1.14,1.14,0,0,0,.11-1c-.63-1.83-2.22-3.68-4.85-5.67s-4.62-3-6.08-3h-.22c-1.74.45-4.67,1.1-8.73,1.93,1.25-6,2.69-12.44,4.29-19.17,2.25-9.12,2.24-9.17,2.22-9.37-.08-.6-.6-1.56-3.83-4.25-4.18-3.23-5.74-3.69-6.69-3.75l-.58.14-.18.25-.12.25c-3.27,12.54-6.16,25.52-8.6,38.61-7.3,1.57-13.58,3-18.66,4.36.41-2,.82-4,1.25-5.94,1.75-7.91,3.66-15.85,5.69-23.61V29c-.08-.59-.55-1.47-3.43-3.9-4.66-3.59-6.23-4-7-4.09H65.7c-1.92.53-3.23.91-3.94,1.12a139.88,139.88,0,0,0-19.27,7A70.33,70.33,0,0,0,30.6,35.88a37.84,37.84,0,0,0-6.2,5.45c-3.68,4.32-5.27,8.49-4.74,12.39A17.77,17.77,0,0,0,24,61c.28-.13-.24-11.27,12.92-18.7S61.63,34.6,61.63,34.6Z"/><path class="cls-1" d="M260.86,95.94a23.23,23.23,0,0,1,10.83,2.7,41.57,41.57,0,0,1,9.24,6.54,34.47,34.47,0,0,1,6.43,8c1.57,2.78,2.37,5.07,2.37,6.88s-.57,2.92-1.7,3.37a9.65,9.65,0,0,1-4.62.35c-2-.23-4.28-.6-7-1.13a46.28,46.28,0,0,0-8.79-.79,197.57,197.57,0,0,0-25.6,2q-15.22,2-33.37,5.75t-38.14,8.83q-19.95,5.07-39.79,11.16v.45q0,2.49-2,10.6T124,180.94q7.65-2.48,15.1-4.62c5-1.43,9.54-2.62,13.76-3.61s8-1.72,11.27-2.25a53.93,53.93,0,0,1,8.12-.79,12.85,12.85,0,0,1,5.19,1.58,24,24,0,0,1,4.5,3.16,15.91,15.91,0,0,1,3.28,3.94,8.45,8.45,0,0,1,1.24,4.17,2.28,2.28,0,0,1-1.35,2.37,8.3,8.3,0,0,1-3.27.57,23.75,23.75,0,0,1-4.29-.45,23.19,23.19,0,0,0-4.39-.45,37.92,37.92,0,0,0-9.58,1.57,126.36,126.36,0,0,0-12.85,4.4q-7.11,2.82-15.12,6.43t-15.89,7.39q-1.81,11.06-2.93,23.34t-1.13,25.37A287.41,287.41,0,0,0,117.57,288q1.91,15.56,4.28,26.61t4.4,17.25a67.57,67.57,0,0,1,2,6.65c0,.75-1.09,1.58-3.27,2.48a17.21,17.21,0,0,1-6.64,1.35,17.67,17.67,0,0,1-12.83-5.6,50.8,50.8,0,0,1-9.82-14.4,110.87,110.87,0,0,1-7-19.61q-2.81-10.83-4.5-21.31t-2.37-19.5c-.45-6-.68-10.75-.68-14.22q0-12.84.68-24.35c-3,1.51-5.49,2.67-7.45,3.5a12.53,12.53,0,0,1-4.05,1.24,9.6,9.6,0,0,1-4.51-1.35,21.38,21.38,0,0,1-4.51-3.27,18.5,18.5,0,0,1-3.38-4.29,9.11,9.11,0,0,1-1.36-4.62c0-2.26,2.59-5,7.78-8.34a137.51,137.51,0,0,1,20-10.14q1.35-10.38,3.16-18.84a137.58,137.58,0,0,1,3.83-14.54q-17.82,6.54-33.26,13.53a240.11,240.11,0,0,0-27,14.11q-11.49,7.11-18,14.09T6.51,217.7a5.93,5.93,0,0,1-1,3.49,4.84,4.84,0,0,1-2.25,1.92A2.23,2.23,0,0,1,1,222.78c-.68-.54-1-1.62-1-3.27q0-13.09,8.68-25.37T32,170.69a220.72,220.72,0,0,1,34-21,444.36,444.36,0,0,1,41-18.14q21.64-8.36,44-15t42.84-11.17q20.52-4.5,37.89-7A212,212,0,0,1,260.86,95.94Z"/><path class="cls-1" d="M233.57,116.23q19.62,0,32.13,6.66a52.76,52.76,0,0,1,19.73,17.58,68.48,68.48,0,0,1,9.93,25.25,161.07,161.07,0,0,1,2.7,29.88,176,176,0,0,1-2.37,25.82,309.64,309.64,0,0,1-6.87,32.47,352.22,352.22,0,0,1-10.94,34,187.51,187.51,0,0,1-14.55,30.55,90.84,90.84,0,0,1-17.81,22q-9.69,8.46-20.51,8.46a49.23,49.23,0,0,1-25.26-6.43,67.46,67.46,0,0,1-19.39-17.12,106.42,106.42,0,0,1-14.1-24.47,193.91,193.91,0,0,1-9.35-28.41,222.71,222.71,0,0,1-5.19-29,242.53,242.53,0,0,1-1.58-26.26,105.64,105.64,0,0,1,1.25-14.32,100.65,100.65,0,0,1,3.83-16.69,47.52,47.52,0,0,1,6.87-13.75q4.29-5.74,10.38-5.75a51.84,51.84,0,0,1,8.34.68,111,111,0,0,1,5.86-17.59,66,66,0,0,1,10-16.46A50.86,50.86,0,0,1,211.89,121C217.93,117.85,225.16,116.23,233.57,116.23Zm31.57,79.37q0-8.11-.68-18.72a138.33,138.33,0,0,0-2.7-20.06,63.38,63.38,0,0,0-5.52-16.12Q252.73,134,247.1,134c-2.55,0-5.3,1.17-8.22,3.5a55.91,55.91,0,0,0-8.8,9,126.93,126.93,0,0,0-8.57,12.3,130.49,130.49,0,0,0-7.21,13.31,119.32,119.32,0,0,0-5,12.18,29.51,29.51,0,0,0-1.92,8.79,48.65,48.65,0,0,0,.67,8.35,25.62,25.62,0,0,1,.45,6.54,6.31,6.31,0,0,1-1.91,4.27c-1.13,1.06-3.34,1.59-6.65,1.59a25.92,25.92,0,0,1-11.73-2.71c-.76,4.21-1.31,8.61-1.69,13.19s-.57,9.58-.57,15q0,3.38.8,12t2.47,19.38q1.69,10.83,4.29,22.56a169.14,169.14,0,0,0,6.2,21.53,66,66,0,0,0,8.23,16.12q4.62,6.32,10.49,6.31t11.61-7A82,82,0,0,0,241,311.61a218.7,218.7,0,0,0,9.58-26.5q4.4-14.88,7.66-30.67t5.11-31.09A238.39,238.39,0,0,0,265.14,195.6Z"/><path class="cls-1" d="M315.64,185.68a14.89,14.89,0,0,0-.67-4.29,9.7,9.7,0,0,1-.46-4,4.32,4.32,0,0,1,2-3c1.21-.82,3.46-1.23,6.77-1.23a36.37,36.37,0,0,1,13.64,2.47,46.8,46.8,0,0,1,10.83,6,29.92,29.92,0,0,1,7.1,7.32q2.47,3.84,2.48,6.32c0,.91-.3,3.61-.9,8.12s-1.39,10.15-2.37,16.91-2,14.4-3.15,22.88-2.18,17.07-3.16,25.71-1.77,17.06-2.37,25.26-.87,15.48-.79,21.86A82.31,82.31,0,0,0,346,331.35q1.23,5.86,4.16,5.86,5,0,13.2-5.63T381,315.23a199.43,199.43,0,0,0,19.17-26.15,220.08,220.08,0,0,0,17.59-35.18,262.15,262.15,0,0,0,12.85-43.29,245.16,245.16,0,0,0,5-50.62q0-10.83-4.5-18.72a43.43,43.43,0,0,0-11.05-13,47,47,0,0,0-14-7.56,43.08,43.08,0,0,0-13.58-2.45q-20.06,0-34.95,4.17A105.1,105.1,0,0,0,332,133a82.93,82.93,0,0,0-17.81,14,113,113,0,0,0-11.59,14.32,93.68,93.68,0,0,0-6.88,11.83c-1.58,3.39-2.74,5.45-3.5,6.21-1.19,1.2-3.42,2.22-6.64,3a54.64,54.64,0,0,1-9.93,1.58,34.8,34.8,0,0,1-9-.45q-3.94-.78-3.94-3.05,0-2.92,3.71-9.58a87.29,87.29,0,0,1,10.83-14.66,158.24,158.24,0,0,1,17.48-16.57,135.5,135.5,0,0,1,23.81-15.54,153.8,153.8,0,0,1,29.43-11.49,127.6,127.6,0,0,1,34.72-4.51q5,0,13.64.22a119.19,119.19,0,0,1,18.83,2.14,105.07,105.07,0,0,1,20.52,6.2,59,59,0,0,1,32.58,33.26q5.28,12.74,5.28,31.41A174.77,174.77,0,0,1,469,220a228.11,228.11,0,0,1-12.62,39A224.39,224.39,0,0,1,437,295.09,165.5,165.5,0,0,1,412,325a115.44,115.44,0,0,1-29.47,20.39,74.48,74.48,0,0,1-32.36,7.44q-12.39,0-20.4-6.65A46.14,46.14,0,0,1,317,328.32,98.92,98.92,0,0,1,310.36,303a233.64,233.64,0,0,1-2-29.31q-.11-15.11,1-30t2.48-27.06q1.37-12.17,2.59-20.41A94.79,94.79,0,0,0,315.64,185.68Z"/><path class="cls-1" d="M625,261.45c0,1.95-.94,4.72-2.82,8.33s-3.94,7.71-6.19,12.3a136.45,136.45,0,0,0-6.21,14.77A46.64,46.64,0,0,0,607,312.62a29.35,29.35,0,0,0,2.71,13.31,74.78,74.78,0,0,0,5,8.68,14.59,14.59,0,0,1,2.48,4.63q.23,1.35-4.74,1.35c-5.1,0-10.41-2.45-15.89-7.33S587,321,584.46,311.05q-6.32,6.54-14.65,13.87a204.8,204.8,0,0,1-17.14,13.52,122.94,122.94,0,0,1-17.16,10.26q-8.34,4.07-14.42,4.06-8.12,0-13.54-3t-7.21-6.2a36.63,36.63,0,0,1-7.22-4.06A38.31,38.31,0,0,1,486,333a37.57,37.57,0,0,1-5.52-8.68,24.52,24.52,0,0,1-2.26-10.49,68.26,68.26,0,0,1,2.48-17.92,119.74,119.74,0,0,1,6.79-18.52,152.57,152.57,0,0,1,10-18.38A188.62,188.62,0,0,1,510,241.61a30.52,30.52,0,0,1-6.54-2,22.17,22.17,0,0,1-7.56-5.52A31.94,31.94,0,0,1,489.62,223q-2.6-7.11-2.59-18.38a54.58,54.58,0,0,1,3.38-18.15,98,98,0,0,1,9.24-19,131.51,131.51,0,0,1,29.2-32.93,80.94,80.94,0,0,1,16.66-10.41,38.81,38.81,0,0,1,15.9-3.83,22.18,22.18,0,0,1,8.9,1.92,30.28,30.28,0,0,1,7.78,4.84,72.3,72.3,0,0,1,3.27-10.15q2.37-6.08,5.08-11.72a91.8,91.8,0,0,1,5.29-9.69q2.6-4.06,4.17-4.06a9,9,0,0,1,4.74,1.8,32.57,32.57,0,0,1,5.19,4.4,27.72,27.72,0,0,1,4.17,5.64,12,12,0,0,1,1.69,5.75c0,1.65-.9,4.16-2.71,7.55s-3.76,7-5.86,10.93-4.06,7.86-5.86,11.85a23.45,23.45,0,0,0-2.48,14.31c.15.91-.68,1.36-2.48,1.36a7.92,7.92,0,0,1-2.79-.67,15.84,15.84,0,0,1-3.61-2.14,21.08,21.08,0,0,1-3.83-4,19,19,0,0,1-3-6.09,11.9,11.9,0,0,1-2.25.68,13.55,13.55,0,0,1-2.7.23c-1.51,0-4.26,1.12-8.23,3.37a115.55,115.55,0,0,0-13.54,9.25q-7.56,5.87-15.78,13.53a148.78,148.78,0,0,0-15.11,16.34,97.8,97.8,0,0,0-11.27,17.71,40.05,40.05,0,0,0-4.4,17.59,31.29,31.29,0,0,0,1.13,8.34,13.11,13.11,0,0,0,7.22-.79,49.94,49.94,0,0,0,7.66-3.5c2.7-1.65,5.49-3.53,8.34-5.63q7-6.54,13.76-11.95a147.56,147.56,0,0,1,13-9.36,72.24,72.24,0,0,1,11.5-6.09,25.82,25.82,0,0,1,9.36-2.14,13.39,13.39,0,0,1,6.65,2,28.84,28.84,0,0,1,6.32,5,32,32,0,0,1,4.73,6.31,12.88,12.88,0,0,1,1.92,6.32q0,1.8-7.1,7.33t-18,13.84q-10.83,8.34-23.23,19.17a249.5,249.5,0,0,0-23.22,23.11,134.09,134.09,0,0,0-17.93,25.7,57.25,57.25,0,0,0-7.1,27,17.73,17.73,0,0,0,1.13,6.65,35,35,0,0,0,2.48,5.07,2.36,2.36,0,0,0,.79-.11A2.66,2.66,0,0,1,506,337q6.09,0,13.75-4.27a107.93,107.93,0,0,0,15.8-10.94q8.13-6.64,16.24-14.43t14.88-14.89q6.76-7.1,11.84-12.4a80.9,80.9,0,0,1,7.11-6.87,97.13,97.13,0,0,1,3.72-11.27c1.42-3.62,2.81-6.77,4.17-9.48a47,47,0,0,1,3.83-6.54c1.2-1.65,2.18-2.47,2.93-2.47a22.12,22.12,0,0,1,8.45,1.8,35.62,35.62,0,0,1,8,4.51,29.49,29.49,0,0,1,6,5.86A9.91,9.91,0,0,1,625,261.45Z"/><path class="cls-1" d="M657.51,130.51c.35,0,.56.09.63.26a.54.54,0,0,1-.15.58,2,2,0,0,1-.86.59,3.84,3.84,0,0,1-1.54.26,8.14,8.14,0,0,1-3.65-.9,16.11,16.11,0,0,1-3.49-2.36,25.61,25.61,0,0,1-3.18-3.4,48.86,48.86,0,0,1-2.83-4c-.89-1.38-1.67-2.75-2.38-4.11s-1.32-2.62-1.84-3.77a13.37,13.37,0,0,1-1.66.4,25.27,25.27,0,0,0,.57,4.59,26.81,26.81,0,0,0,1,3.53,17,17,0,0,0,1,2.27,5.09,5.09,0,0,1,.44.91c0,.13-.18.29-.52.47a2.25,2.25,0,0,1-1.08.27,3.92,3.92,0,0,1-3-1.49,12.39,12.39,0,0,1-2.19-4.08,31.51,31.51,0,0,1-1.35-6.07A58.59,58.59,0,0,1,631,107a36.15,36.15,0,0,1,.13-3.72,28.67,28.67,0,0,1,.42-3.46,13.12,13.12,0,0,1,.71-2.54c.29-.67.63-1,1-1h1.22a10,10,0,0,1,1.54.18,6.7,6.7,0,0,1,1.32.4c.38.17.57.41.57.71a12.53,12.53,0,0,1-.18,1.5c-.12.74-.26,1.67-.4,2.81s-.31,2.45-.45,4-.22,3.14-.27,5a2.07,2.07,0,0,0,.34-.15c.12-.07.24-.13.34-.2,0-.63.08-1.5.17-2.61s.22-2.33.42-3.64.44-2.64.73-4a23.44,23.44,0,0,1,1.09-3.67,10,10,0,0,1,1.53-2.69,2.62,2.62,0,0,1,2.06-1.06h1a11.42,11.42,0,0,1,1.55.07,15,15,0,0,1,1.63.27,2.49,2.49,0,0,1,1.18.59A6.11,6.11,0,0,1,650,96.09a12.9,12.9,0,0,1,.56,4.14,9.52,9.52,0,0,1-.64,3.46,13.35,13.35,0,0,1-1.74,3.19,15.57,15.57,0,0,1-2.6,2.78,22,22,0,0,1-3.19,2.24c.5,1,1.09,2.18,1.79,3.5s1.45,2.68,2.27,4,1.7,2.73,2.63,4.06a31,31,0,0,0,2.81,3.54,16.24,16.24,0,0,0,2.86,2.5A5,5,0,0,0,657.51,130.51Zm-14.78-36a1.63,1.63,0,0,0-1.3.87,10.44,10.44,0,0,0-1.06,2.27,28.5,28.5,0,0,0-.84,3.14c-.25,1.16-.46,2.31-.63,3.46s-.31,2.22-.41,3.22-.17,1.81-.21,2.43c.91-.54,1.84-1.16,2.79-1.84a16.1,16.1,0,0,0,2.59-2.36,12.64,12.64,0,0,0,1.89-2.91,7.93,7.93,0,0,0,.76-3.45,7.31,7.31,0,0,0-.35-2.5,4,4,0,0,0-.87-1.46,2.75,2.75,0,0,0-1.16-.69,4.15,4.15,0,0,0-1.16-.2Z"/><path class="cls-1" d="M643.24,142.55a30,30,0,1,1,30-30h0A30,30,0,0,1,643.24,142.55Zm0-56.37a26.43,26.43,0,1,0,26.43,26.43h0A26.46,26.46,0,0,0,643.24,86.18Z"/></g></svg>