<svg id="Capa_1" data-name="Capa 1" xmlns="http://www.w3.org/2000/svg" viewBox="0 0 64 64"><defs><style>.cls-1{fill:none;stroke:#000;stroke-miterlimit:10;stroke-width:4px;}</style></defs><title>mail</title><path class="cls-1" d="M5.77,13.42H58.23A2.75,2.75,0,0,1,61,16.17V47.91a2.75,2.75,0,0,1-2.75,2.75h-52A3.23,3.23,0,0,1,3,47.43V16.17A2.75,2.75,0,0,1,5.77,13.42Z"/><path class="cls-1" d="M32,35.7,14.16,24.52l-9.89-6.2a2.7,2.7,0,0,1,1.43-5H58.32a2.67,2.67,0,0,1,1.42,4.94l-10,6.24Z"/><path class="cls-1" d="M32,35.7l-8.92-5.6L14.16,37l-9.89,7.6C2,46.32,3,50.66,5.7,50.66H58.32c2.69,0,3.7-4.3,1.42-6L49.79,37,41,30.08Z"/></svg>