<svg id="Layer_1" data-name="Layer 1" xmlns="http://www.w3.org/2000/svg" viewBox="0 0 78 24"><defs><style>.cls-1{fill:#131f40;}</style></defs><title>Double Down Chevron</title><path class="cls-1" d="M39,13.91a8,8,0,0,1-1.88-.23L2.54,5a2,2,0,0,1,1-3.88L38.09,9.8a3.74,3.74,0,0,0,1.82,0L74.49,1.15a2,2,0,0,1,1,3.88L40.88,13.68A8,8,0,0,1,39,13.91Z"/><path class="cls-1" d="M39,22.91a8,8,0,0,1-1.88-.23L2.54,14a2,2,0,0,1,1-3.88L38.09,18.8a3.74,3.74,0,0,0,1.82,0l34.58-8.65a2,2,0,0,1,1,3.88L40.88,22.68A8,8,0,0,1,39,22.91Z"/></svg>