<?xml version="1.0" encoding="utf-8"?>
<!-- Generator: Adobe Illustrator 22.1.0, SVG Export Plug-In . SVG Version: 6.00 Build 0)  -->
<svg version="1.1" id="Layer_1" xmlns="http://www.w3.org/2000/svg" xmlns:xlink="http://www.w3.org/1999/xlink" x="0px" y="0px"
	 viewBox="0 0 30 30" style="enable-background:new 0 0 30 30;" xml:space="preserve">
<style type="text/css">
	.st0{fill:none;}
	.st1{fill:none;stroke:#FFFFFF;stroke-width:0.3;}
	.st2{opacity:0.2;}
	.st3{fill:url(#SVGID_2_);}
</style>
<pattern  y="30" width="57.6" height="57.6" patternUnits="userSpaceOnUse" id="SVGID_1_" viewBox="0 -57.6 57.6 57.6" style="overflow:visible;">
	<g>
		<rect y="-57.6" class="st0" width="57.6" height="57.6"/>
		<g>
			<rect y="-57.6" class="st0" width="57.6" height="57.6"/>
			<rect y="-57.6" class="st0" width="57.6" height="57.6"/>
			<line class="st1" x1="52.5" y1="-54" x2="55.5" y2="-54"/>
			<line class="st1" x1="38.1" y1="-54" x2="41.1" y2="-54"/>
			<line class="st1" x1="23.7" y1="-54" x2="26.7" y2="-54"/>
			<line class="st1" x1="9.3" y1="-54" x2="12.3" y2="-54"/>
			<line class="st1" x1="45.3" y1="-46.8" x2="48.3" y2="-46.8"/>
			<line class="st1" x1="30.9" y1="-46.8" x2="33.9" y2="-46.8"/>
			<line class="st1" x1="16.5" y1="-46.8" x2="19.5" y2="-46.8"/>
			<line class="st1" x1="2.1" y1="-46.8" x2="5.1" y2="-46.8"/>
			<line class="st1" x1="52.5" y1="-39.6" x2="55.5" y2="-39.6"/>
			<line class="st1" x1="38.1" y1="-39.6" x2="41.1" y2="-39.6"/>
			<line class="st1" x1="23.7" y1="-39.6" x2="26.7" y2="-39.6"/>
			<line class="st1" x1="9.3" y1="-39.6" x2="12.3" y2="-39.6"/>
			<line class="st1" x1="45.3" y1="-32.4" x2="48.3" y2="-32.4"/>
			<line class="st1" x1="30.9" y1="-32.4" x2="33.9" y2="-32.4"/>
			<line class="st1" x1="16.5" y1="-32.4" x2="19.5" y2="-32.4"/>
			<line class="st1" x1="2.1" y1="-32.4" x2="5.1" y2="-32.4"/>
			<line class="st1" x1="52.5" y1="-25.2" x2="55.5" y2="-25.2"/>
			<line class="st1" x1="38.1" y1="-25.2" x2="41.1" y2="-25.2"/>
			<line class="st1" x1="23.7" y1="-25.2" x2="26.7" y2="-25.2"/>
			<line class="st1" x1="9.3" y1="-25.2" x2="12.3" y2="-25.2"/>
			<line class="st1" x1="45.3" y1="-18" x2="48.3" y2="-18"/>
			<line class="st1" x1="30.9" y1="-18" x2="33.9" y2="-18"/>
			<line class="st1" x1="16.5" y1="-18" x2="19.5" y2="-18"/>
			<line class="st1" x1="2.1" y1="-18" x2="5.1" y2="-18"/>
			<line class="st1" x1="52.5" y1="-10.8" x2="55.5" y2="-10.8"/>
			<line class="st1" x1="38.1" y1="-10.8" x2="41.1" y2="-10.8"/>
			<line class="st1" x1="23.7" y1="-10.8" x2="26.7" y2="-10.8"/>
			<line class="st1" x1="9.3" y1="-10.8" x2="12.3" y2="-10.8"/>
			<line class="st1" x1="45.3" y1="-3.6" x2="48.3" y2="-3.6"/>
			<line class="st1" x1="30.9" y1="-3.6" x2="33.9" y2="-3.6"/>
			<line class="st1" x1="16.5" y1="-3.6" x2="19.5" y2="-3.6"/>
			<line class="st1" x1="2.1" y1="-3.6" x2="5.1" y2="-3.6"/>
			<line class="st1" x1="54" y1="-55.5" x2="54" y2="-52.5"/>
			<line class="st1" x1="39.6" y1="-55.5" x2="39.6" y2="-52.5"/>
			<line class="st1" x1="25.2" y1="-55.5" x2="25.2" y2="-52.5"/>
			<line class="st1" x1="10.8" y1="-55.5" x2="10.8" y2="-52.5"/>
			<line class="st1" x1="46.8" y1="-48.3" x2="46.8" y2="-45.3"/>
			<line class="st1" x1="32.4" y1="-48.3" x2="32.4" y2="-45.3"/>
			<line class="st1" x1="18" y1="-48.3" x2="18" y2="-45.3"/>
			<line class="st1" x1="3.6" y1="-48.3" x2="3.6" y2="-45.3"/>
			<line class="st1" x1="54" y1="-41.1" x2="54" y2="-38.1"/>
			<line class="st1" x1="39.6" y1="-41.1" x2="39.6" y2="-38.1"/>
			<line class="st1" x1="25.2" y1="-41.1" x2="25.2" y2="-38.1"/>
			<line class="st1" x1="10.8" y1="-41.1" x2="10.8" y2="-38.1"/>
			<line class="st1" x1="46.8" y1="-33.9" x2="46.8" y2="-30.9"/>
			<line class="st1" x1="32.4" y1="-33.9" x2="32.4" y2="-30.9"/>
			<line class="st1" x1="18" y1="-33.9" x2="18" y2="-30.9"/>
			<line class="st1" x1="3.6" y1="-33.9" x2="3.6" y2="-30.9"/>
			<line class="st1" x1="54" y1="-26.7" x2="54" y2="-23.7"/>
			<line class="st1" x1="39.6" y1="-26.7" x2="39.6" y2="-23.7"/>
			<line class="st1" x1="25.2" y1="-26.7" x2="25.2" y2="-23.7"/>
			<line class="st1" x1="10.8" y1="-26.7" x2="10.8" y2="-23.7"/>
			<line class="st1" x1="46.8" y1="-19.5" x2="46.8" y2="-16.5"/>
			<line class="st1" x1="32.4" y1="-19.5" x2="32.4" y2="-16.5"/>
			<line class="st1" x1="18" y1="-19.5" x2="18" y2="-16.5"/>
			<line class="st1" x1="3.6" y1="-19.5" x2="3.6" y2="-16.5"/>
			<line class="st1" x1="54" y1="-12.3" x2="54" y2="-9.3"/>
			<line class="st1" x1="39.6" y1="-12.3" x2="39.6" y2="-9.3"/>
			<line class="st1" x1="25.2" y1="-12.3" x2="25.2" y2="-9.3"/>
			<line class="st1" x1="10.8" y1="-12.3" x2="10.8" y2="-9.3"/>
			<line class="st1" x1="46.8" y1="-5.1" x2="46.8" y2="-2.1"/>
			<line class="st1" x1="32.4" y1="-5.1" x2="32.4" y2="-2.1"/>
			<line class="st1" x1="18" y1="-5.1" x2="18" y2="-2.1"/>
			<line class="st1" x1="3.6" y1="-5.1" x2="3.6" y2="-2.1"/>
		</g>
	</g>
</pattern>
<title>RepeatingPattern(white)</title>
<g id="Holding_Page" class="st2">
	<pattern  id="SVGID_2_" xlink:href="#SVGID_1_" patternTransform="matrix(0.3 0 0 0.29 -11430.8193 4243.5845)"  class="st2">
	</pattern>
	<rect class="st3" width="30" height="30"/>
</g>
</svg>
