<svg xmlns="http://www.w3.org/2000/svg" viewBox="0 0 522.61 161.6"><defs><style>.cls-1{fill:#fff;}.cls-2{fill:#1e2d51;}</style></defs><title>Shop Logo FODe</title><g id="Shop_1920_Desktop" data-name="Shop 1920 Desktop"><g id="Layer_4" data-name="Layer 4"><path class="cls-1" d="M298.81,63.63a22.37,22.37,0,0,0-6.71-1.2c-1.73-.09-3.57-.09-5.3-.09a11.19,11.19,0,0,0-8.22,3.86A34.86,34.86,0,0,0,275,70.9a12.52,12.52,0,0,0-2.92-3.22c-3.14-2.49-7.58-3.78-13.31-3.78-2.27,0-6.49.83-8.76,6.17a19.78,19.78,0,0,0-1.3,4c0-.09-.11-.18-.11-.18a15.48,15.48,0,0,0-6.38-5.71,18.46,18.46,0,0,0-8.12-1.84c-1.62,0-3.35.09-5.08.18a23.23,23.23,0,0,0-6.27,1.38,18.63,18.63,0,0,0-6.06,3.5,15.08,15.08,0,0,0-3,3.59,15.2,15.2,0,0,0-5.63,4,22.83,22.83,0,0,0-4.43,7.27,45.17,45.17,0,0,0-2,8.11,67.13,67.13,0,0,0-.54,7.92,50.37,50.37,0,0,0,.76,8.84,27.9,27.9,0,0,0,3.24,9.3,22.9,22.9,0,0,0,7.14,7.73,22.38,22.38,0,0,0,12.66,3.5,23.83,23.83,0,0,0,14.17-4.33,27.61,27.61,0,0,0,8.33-9.57,27.12,27.12,0,0,0,1.41-2.86,34.07,34.07,0,0,0,3.46,8.66,19.6,19.6,0,0,0,6.71,7.18,18.14,18.14,0,0,0,7.57,2.76,16.48,16.48,0,0,0,2.05.09,14.21,14.21,0,0,0,5.63-1.1c4.22-1.94,4.87-4.79,4.87-6.26a8.48,8.48,0,0,0-.65-3.13l-.76-1.94c-.22-.64-.54-1.56-.86-2.58a23.06,23.06,0,0,1-.76-3.59,21.85,21.85,0,0,1,.76-4.32c.43-1.85,1.08-3.87,1.73-5.81s1.4-4,2.27-6c.32-.92.76-1.75,1.08-2.67.11.09.22.09.32.18a27.25,27.25,0,0,0,10.39,1.84A12.77,12.77,0,0,0,301.19,95a14.68,14.68,0,0,0,4-5.61A28.35,28.35,0,0,0,307,83a47.76,47.76,0,0,0,.54-6.81,12.52,12.52,0,0,0-2.38-7.92A13.08,13.08,0,0,0,298.81,63.63ZM233,98.62c.11-1.66.11-3.32.22-4.88.11-.1.11-.19.22-.28A44,44,0,0,1,233,98.62Z"/><path class="cls-1" d="M149.29,24.86a128.07,128.07,0,0,1,14.17-.92,24.7,24.7,0,0,1,3.89.28c1.73.27,3.25.46,4.65.64a13.37,13.37,0,0,0,1.84.09,11.85,11.85,0,0,0,4.11-.64A7,7,0,0,0,183,17.49a11,11,0,0,0-2.27-6.16,21.13,21.13,0,0,0-5-5.25,29.09,29.09,0,0,0-6.92-4.15A23,23,0,0,0,159.46,0a159.32,159.32,0,0,0-18,1.29q-10.4,1.25-22.72,3.59C110.67,6.45,102,8.29,93.25,10.59S75.62,15.38,67,18.23s-16.87,6-24.66,9.3a148.34,148.34,0,0,0-21,11,66.75,66.75,0,0,0-15,12.89C2.06,56.44,0,61.78,0,67.22a6.74,6.74,0,0,0,3.14,6A8.75,8.75,0,0,0,8,74.68a12.93,12.93,0,0,0,2.7-.37,8.9,8.9,0,0,0,4.44-3,7.41,7.41,0,0,0,1.73-4.88c0-.37.43-1.38,2.05-2.86a45.54,45.54,0,0,1,9.2-6.07,146,146,0,0,1,15-6.73q3.57-1.38,7.47-2.76c-.22,1.2-.54,2.49-.76,3.78A74.54,74.54,0,0,0,40.68,56c-3.25,1.75-7.58,4.61-7.58,8.84a9.06,9.06,0,0,0,1.63,5.07,16.54,16.54,0,0,0,3.13,3.4,22.75,22.75,0,0,0,4,2.49,15.61,15.61,0,0,0,5.62,1.38V81.4c0,1.84.11,4.32.43,7.46s.76,6.53,1.41,10.22a88.22,88.22,0,0,0,2.81,11.14A51.51,51.51,0,0,0,56.69,121a31.29,31.29,0,0,0,7,8.75,18.27,18.27,0,0,0,12.11,4.42,18.89,18.89,0,0,0,6.39-1.11c4.86-1.75,6-4.42,6-6.35,0-1-.11-1.47-1.52-5.07a66.88,66.88,0,0,1-2.38-8,117.52,117.52,0,0,1-2.38-12.79,111.56,111.56,0,0,1-1.08-16.76,111.3,111.3,0,0,1,.65-12.16c.32-2.85.65-5.71,1.19-8.38,2-.82,4-1.56,6.06-2.39s4.32-1.66,6.38-2.3c-.11.92-.22,1.84-.33,2.85-.64,5.16-1.29,10.31-1.83,15.38S92,87.2,91.74,91.89a98,98,0,0,0-.11,12.62,45.23,45.23,0,0,0,3.13,15,42.46,42.46,0,0,0,6.5,11,29,29,0,0,0,8.65,7.27,21.3,21.3,0,0,0,7.46,2.49,6.68,6.68,0,0,0-4.11,5.43,8.81,8.81,0,0,0,1.63,5.89,17.35,17.35,0,0,0,4.54,4.61,26.27,26.27,0,0,0,6.49,3.31,31.29,31.29,0,0,0,8.76,1.93,28.59,28.59,0,0,0,2.92.1,32.52,32.52,0,0,0,15.91-4.15,46.51,46.51,0,0,0,14.38-12.34,60.8,60.8,0,0,0,9.52-17.67,62.48,62.48,0,0,0,3.57-21c0-8.19-.1-14.64-.43-19.33-.32-4.42-.43-7.65-.43-9.58a9.51,9.51,0,0,0-2.49-6.26,16.49,16.49,0,0,0-5.08-3.78,28.63,28.63,0,0,0-6.06-2.21,28.92,28.92,0,0,0-6.82-.83c-2,0-5,.19-7.14,1.94a12.39,12.39,0,0,0-1.84-2.3,20.08,20.08,0,0,0-5.41-3.5,40.79,40.79,0,0,0-6.38-2.12,31.21,31.21,0,0,0-6.92-.83A12.67,12.67,0,0,0,125.7,59q.33-2.76.65-5.52c.54-4.61,1.09-8.47,1.41-11.88a50.32,50.32,0,0,0,.43-7.46A10.29,10.29,0,0,0,126,28.45c1.41-.27,2.81-.55,4.11-.73C137.06,26.43,143.45,25.51,149.29,24.86Zm-61,14.83c.11-.19.11-.46.22-.65.32-1,.54-1.84.75-2.58,3-.73,6.06-1.47,9.2-2.21-.11.65-.11,1.38-.22,2.3,0,.37-.11.74-.11,1.11L95,38.21C92.72,38.67,90.56,39.13,88.29,39.69ZM137.62,130a20.43,20.43,0,0,0,6.27,1,5.66,5.66,0,0,0,1.3-.1,5.28,5.28,0,0,0,1.73-.27,2.88,2.88,0,0,0,.76-.19,29,29,0,0,1-4.44,6.36,21.13,21.13,0,0,1-6.49,5.15,16.85,16.85,0,0,1-3.24,1.2,8.25,8.25,0,0,1-2.81-.64c-1.52-.65-2.71-1.2-3.79-1.66a17.63,17.63,0,0,0-3.25-1.11,7.76,7.76,0,0,0,2.71-1.29,5.84,5.84,0,0,0,1.95-7.36c-.33-.83-1-1.84-1.74-3.22-.32-.65-1-1.85-1.83-4a40.13,40.13,0,0,1-1.84-6.36,24,24,0,0,0,6.49,8A21.77,21.77,0,0,0,137.62,130Z"/><path class="cls-1" d="M522,89.42a7.4,7.4,0,0,0-4.55-3.87,8.66,8.66,0,0,0-2.71-.46,9.06,9.06,0,0,0-4.12,1,7.71,7.71,0,0,0-3.35,3.51,22.24,22.24,0,0,0-1.3,3.32,23.47,23.47,0,0,1-1.63,3.87c-.76,1.57-1.73,3.32-2.81,5.07a19.71,19.71,0,0,1-3.47,4.24,15.88,15.88,0,0,1-4.22,3,10,10,0,0,1-4.23.92,2.28,2.28,0,0,1-1.19-.64,12,12,0,0,1-3.25-3.6,22,22,0,0,1-2.6-5.81,23.12,23.12,0,0,0,2.49.09A21.42,21.42,0,0,0,501,93.39c3.9-4.06,5.85-9.78,5.85-17a22.59,22.59,0,0,0-2.49-10.6,16.06,16.06,0,0,0-8-7.47,26.49,26.49,0,0,0-6.5-1.56c-1.95-.19-4-.37-6.18-.37h-.9a38.84,38.84,0,0,0-8.07,1A22.29,22.29,0,0,0,467,60.78c-.11,0-.11.09-.22.09a34.58,34.58,0,0,0-5.45,5.76A48.05,48.05,0,0,0,456.16,75a67.43,67.43,0,0,0-3.93,10.3,44.5,44.5,0,0,0-1.63,12.07,28.46,28.46,0,0,0,.54,5.11l-.32.56c-.44.74-.88,1.48-1.31,2.13a56.39,56.39,0,0,1-1-11.51c0-1.11,0-2.32.1-3.62l.22-4.27c.11-1.39.22-2.79.22-4.09s.11-2.69.11-3.8c0-2.23-.87-5.48-5.13-8.27a19.22,19.22,0,0,0-3.92-2.13H442a16.81,16.81,0,0,0,7.25-1.57,8.9,8.9,0,0,0,5.2-8.38,11.39,11.39,0,0,0-2-6.07,20.92,20.92,0,0,0-4.22-4.89,24.24,24.24,0,0,0-5.95-3.86,18.84,18.84,0,0,0-7.9-1.75c-1.73,0-3.35,0-5,.09a27.88,27.88,0,0,0-4.11.46,36.21,36.21,0,0,0-3.14-11.32,36.69,36.69,0,0,0-9.52-12.25,42.91,42.91,0,0,0-13.09-7.28,78.36,78.36,0,0,0-13.31-3.4,97.9,97.9,0,0,0-12.11-1.2C370.74,6,368,6,366.09,6A93,93,0,0,0,344,8.44a108.38,108.38,0,0,0-18.49,6.17,91.17,91.17,0,0,0-26,17.22,48.53,48.53,0,0,0-7.14,8.29c-2.16,3.22-3,5.43-3,7.46,0,2.76,1.95,6,7.58,7a27.75,27.75,0,0,0,4.86.36,18.41,18.41,0,0,0,2.17-.09,44,44,0,0,0,7-.92A15.82,15.82,0,0,0,318,51a10.6,10.6,0,0,0,2.17-2.57c.11.36.21.83.32,1.19a1.4,1.4,0,0,1,.11.56,28.25,28.25,0,0,1-.65,4.42c-.54,2.76-1,6.17-1.51,10.4s-1.09,8.75-1.52,13.72-.65,10.22-.65,15.38a88.4,88.4,0,0,0,1.3,15.28,50.62,50.62,0,0,0,4.33,14.09,29.61,29.61,0,0,0,9.3,11c4.33,3,9.74,4.6,16.12,4.6A58.67,58.67,0,0,0,369,134.78a76.7,76.7,0,0,0,18.94-11,90,90,0,0,0,15.68-15.93,105.23,105.23,0,0,0,11.9-18.88c1.19-2.39,2.27-4.88,3.35-7.46a31.3,31.3,0,0,0-.21,3.23c-.11,2.39-.22,5.34-.22,8.56a86.3,86.3,0,0,0,.65,9.76A42.34,42.34,0,0,0,422,114.52a28.07,28.07,0,0,0,7.25,10.4c3.79,3.41,9,5.16,15,5.16h.16a14.47,14.47,0,0,0,9.21-3.5,34.62,34.62,0,0,0,5.63-6.09c.54-.74,1-1.47,1.52-2.3a36.75,36.75,0,0,0,10.51,6.73,39.11,39.11,0,0,0,15.27,3,28.48,28.48,0,0,0,12.56-2.77,33,33,0,0,0,9.1-6.36,43,43,0,0,0,6.28-7.93,70.58,70.58,0,0,0,4.12-7.65,57.5,57.5,0,0,0,2.49-6.27c.43-1.29.65-2,.87-2.49A5.71,5.71,0,0,0,522,89.42ZM388,61.88A103.14,103.14,0,0,1,380.7,82.5,98.94,98.94,0,0,1,371,99.17a94.4,94.4,0,0,1-10.6,12.34,51,51,0,0,1-9.2,7.27c-.21.09-.32.18-.54.28-.1-1.11-.1-2.31-.21-3.59,0-3,.11-6.54.43-10.41s.76-8.1,1.41-12.34,1.19-8.47,1.84-12.7,1.29-8,1.83-11.33,1.09-6.26,1.41-8.47a29.49,29.49,0,0,0,.54-4.79,10.66,10.66,0,0,0-2.49-6.17,21,21,0,0,0-5.73-5.06,34.4,34.4,0,0,0-7.9-3.69,31.6,31.6,0,0,0-10.38-1.65,23.71,23.71,0,0,0-4.76.46c1.19-1.29,2.59-2.67,4.11-4a41.63,41.63,0,0,1,9.09-6,63.48,63.48,0,0,1,13.41-4.7,84.83,84.83,0,0,1,18.71-1.84,21.29,21.29,0,0,1,5.85.92,23.63,23.63,0,0,1,6.27,2.86,17,17,0,0,1,4.76,4.79,11.41,11.41,0,0,1,1.73,6.53A95.94,95.94,0,0,1,388,61.88Zm42.19,3.59a15,15,0,0,0-2.06.09,11,11,0,0,0-4.44,1.38c.33-1.38.65-2.76.87-4.14.32.18.76.37,1.08.55a34.5,34.5,0,0,0,4.65,2C430.24,65.47,430.14,65.47,430.14,65.47Z"/><path class="cls-2" d="M234.11,71.73a11,11,0,0,1,4.87,1.1,9.85,9.85,0,0,1,3.9,3.59,24.45,24.45,0,0,1,2.7,6.54,41.67,41.67,0,0,1,1,9.76,62.68,62.68,0,0,1-1.19,11.7,37.15,37.15,0,0,1-3.79,10.68,24.07,24.07,0,0,1-6.71,7.73,16,16,0,0,1-9.84,3,14.45,14.45,0,0,1-8.55-2.3,16.18,16.18,0,0,1-5.3-5.71,25.28,25.28,0,0,1-2.7-7.65,51.31,51.31,0,0,1-.76-8,56.44,56.44,0,0,1,.43-7.27,35,35,0,0,1,1.62-7,16.6,16.6,0,0,1,3.36-5.52,9.74,9.74,0,0,1,5.3-2.95,11.3,11.3,0,0,1,2.81-4.05,13.55,13.55,0,0,1,3.9-2.3,17.81,17.81,0,0,1,4.43-.92A25.64,25.64,0,0,1,234.11,71.73Zm-3.24,48.71c1.3,0,2.49-1,3.68-3.13a34.55,34.55,0,0,0,3-7.92,71,71,0,0,0,1.94-10.22A55.2,55.2,0,0,0,239.85,89,20.7,20.7,0,0,0,237.9,81a4.91,4.91,0,0,0-4.76-3.13c-1,0-1.62.55-2,1.75a27.11,27.11,0,0,0-1.09,4c-.32,1.47-.75,3-1.19,4.6a6,6,0,0,1-2.27,3.5c0,3-.11,6.26-.32,9.58s-.33,6.44-.33,9.3a21.15,21.15,0,0,0,1.08,7C227.84,119.52,229,120.44,230.87,120.44Z"/><path class="cls-2" d="M286.8,67.86c1.62,0,3.35,0,5,.09a18.18,18.18,0,0,1,4.55.83,6.87,6.87,0,0,1,3.35,2.4A7.52,7.52,0,0,1,301,76a37.28,37.28,0,0,1-.43,6.08A17.56,17.56,0,0,1,299,87.29,10.22,10.22,0,0,1,296.43,91a5.83,5.83,0,0,1-3.9,1.38,19.07,19.07,0,0,1-7.46-1.29c-1.95-.82-2.92-1.84-2.92-2.94a15.7,15.7,0,0,1,.32-2.58c.22-1.2.43-2.39.65-3.59.32-1.38.65-3,1.08-4.6-2.59,4.51-5,9-7,13.44-.87,1.93-1.73,4-2.6,6.08s-1.62,4.14-2.38,6.26-1.29,4.14-1.84,6.17a28.89,28.89,0,0,0-.86,5.71c.32,1.84.65,3.31,1,4.6a19.88,19.88,0,0,0,1,3c.32.83.54,1.47.75,1.93a3.17,3.17,0,0,1,.33,1.38c0,.46-.43.92-1.41,1.38a6.3,6.3,0,0,1-3.57.37,11.11,11.11,0,0,1-4.65-1.75,14.82,14.82,0,0,1-4.65-5.15,31.46,31.46,0,0,1-3.57-10,72,72,0,0,1-1.41-16q0-3.87.33-8.29c.21-2.94.54-5.71,1-8.19a25.87,25.87,0,0,1,1.73-6.26c.76-1.66,1.62-2.49,2.6-2.49,4,0,6.92.74,8.87,2.3a6.87,6.87,0,0,1,2.81,5.53,19.23,19.23,0,0,1-.32,3.31c-.22,1.2-.54,2.49-.87,3.87s-.54,2.85-.86,4.51a40,40,0,0,0-.33,5.25c0,3.68.11,7,.33,9.76a65.66,65.66,0,0,1,2.05-7.27c.87-2.58,1.84-5.25,2.92-7.92s2.17-5.25,3.46-7.74a73.71,73.71,0,0,1,3.57-6.63A26.2,26.2,0,0,1,284,70C284.85,68.51,285.82,67.86,286.8,67.86Z"/><path class="cls-2" d="M159.35,5.43a15.57,15.57,0,0,1,6.38,1.38A28.47,28.47,0,0,1,171.14,10a18.89,18.89,0,0,1,3.79,4,6.22,6.22,0,0,1,1.4,3.4c0,.92-.32,1.48-1,1.66a7.7,7.7,0,0,1-2.71.18c-1.19-.09-2.48-.27-4.11-.55a31.7,31.7,0,0,0-5.19-.37,145.3,145.3,0,0,0-15,1c-5.95.64-12.44,1.65-19.58,2.85s-14.49,2.67-22.28,4.42-15.58,3.5-23.26,5.53v.18A26.8,26.8,0,0,1,82,37.57c-.76,2.67-1.73,6.07-2.81,10.13,3-.83,6-1.57,8.87-2.31s5.62-1.28,8-1.84,4.65-.83,6.6-1.1a34,34,0,0,1,4.76-.37,8.6,8.6,0,0,1,3,.83,16.56,16.56,0,0,1,2.6,1.56A16.9,16.9,0,0,1,115,46.41a4.12,4.12,0,0,1,.76,2.11,1.07,1.07,0,0,1-.76,1.2,5.89,5.89,0,0,1-1.94.28,22.56,22.56,0,0,1-2.49-.19,13.13,13.13,0,0,0-2.6-.18,24.62,24.62,0,0,0-5.62.83c-2.27.55-4.76,1.29-7.58,2.21s-5.73,2-8.87,3.22-6.27,2.4-9.3,3.68c-.76,3.69-1.3,7.55-1.73,11.61a119.79,119.79,0,0,0-.65,12.61,122,122,0,0,0,1.08,17.4c.76,5.16,1.63,9.58,2.49,13.26a68,68,0,0,0,2.6,8.57c.75,2,1.19,3.13,1.19,3.31,0,.37-.65.83-1.95,1.2a11.54,11.54,0,0,1-3.89.64,11.3,11.3,0,0,1-7.58-2.85,25.54,25.54,0,0,1-5.73-7.18,50.21,50.21,0,0,1-4.11-9.76,107.17,107.17,0,0,1-2.6-10.59c-.65-3.5-1.08-6.73-1.4-9.76s-.44-5.34-.44-7.09c0-4.24.11-8.29.44-12.16-1.73.74-3.25,1.29-4.33,1.75a12.16,12.16,0,0,1-2.38.65,6.12,6.12,0,0,1-2.6-.65,11.37,11.37,0,0,1-2.59-1.66,12.39,12.39,0,0,1-1.95-2.11,4.13,4.13,0,0,1-.76-2.31q0-1.65,4.55-4.14a88,88,0,0,1,11.68-5.06c.54-3.41,1.19-6.54,1.84-9.4A53.64,53.64,0,0,1,60,38.58C53.12,40.79,46.63,43,40.57,45.3a162.28,162.28,0,0,0-15.8,7,53.78,53.78,0,0,0-10.6,7c-2.59,2.3-3.78,4.51-3.78,6.63a3.11,3.11,0,0,1-.55,1.75,2.81,2.81,0,0,1-1.29.92,1.31,1.31,0,0,1-1.3-.19c-.43-.27-.54-.82-.54-1.65,0-4.33,1.73-8.57,5.08-12.62A59,59,0,0,1,25.42,42.45,142.34,142.34,0,0,1,45.33,32c7.57-3.22,15.57-6.26,24-9s17-5.25,25.75-7.46,17.09-4.05,25.1-5.53,15.36-2.67,22.17-3.49C149.07,5.8,154.7,5.43,159.35,5.43Z"/><path class="cls-2" d="M105,31.21c-.11-2.21.76-3.68,2.38-4.32A8.89,8.89,0,0,1,113,26.7a14.41,14.41,0,0,1,5.85,2.95,6.43,6.43,0,0,1,2.81,4.7,35.43,35.43,0,0,1-.43,6.72c-.33,3.31-.87,7.18-1.41,11.78s-1.19,9.39-1.73,14.64S116.85,77.9,116.31,83s-1,9.76-1.3,14.09a90.75,90.75,0,0,0-.22,10.59,64.93,64.93,0,0,0,1.41,10.59,57.27,57.27,0,0,0,2.16,7.46,22.84,22.84,0,0,0,2.27,4.69,24.85,24.85,0,0,1,1.41,2.67c.22.65.22,1-.11,1.2a5.21,5.21,0,0,1-2.27.37,12.59,12.59,0,0,1-6.38-1.84,24.18,24.18,0,0,1-6.82-5.8,37.66,37.66,0,0,1-5.62-9.67A41.64,41.64,0,0,1,98,103.86a116.69,116.69,0,0,1,.1-12.15c.22-4.6.65-9.48,1.19-14.64s1.08-10.22,1.73-15.29,1.3-9.76,1.84-14S104,40,104.3,36.92A19.19,19.19,0,0,0,105,31.21Z"/><path class="cls-2" d="M174.06,77.44c0,2,.11,5.34.43,9.85s.44,10.86.44,19a56.46,56.46,0,0,1-3.36,19.43,54.61,54.61,0,0,1-8.76,16.2,40.52,40.52,0,0,1-12.44,10.77,25.37,25.37,0,0,1-14.71,3.14,24.09,24.09,0,0,1-6.82-1.48,22.11,22.11,0,0,1-5-2.48,11,11,0,0,1-2.93-3,4.54,4.54,0,0,1-.86-2.85c.11-.83.43-1.2,1.19-1.11a8.11,8.11,0,0,1,2.7.92c1.09.46,2.38,1,4,1.66a17.76,17.76,0,0,0,5.08,1.2c1.84.18,4.22-.46,7-1.85a30.86,30.86,0,0,0,8.44-6.53,41.1,41.1,0,0,0,7-11.14,39.14,39.14,0,0,0,2.92-15.75c0-2.76,0-5.8-.11-9.21s-.1-6.72-.21-10.13c-.54,2.21-1.19,5-2.17,8s-1.83,6.17-2.92,9.21a86.43,86.43,0,0,1-3.35,8.29c-1.19,2.49-2.27,4.14-3.46,5.06a1.23,1.23,0,0,1-1.08.65c-.11,0-.22,0-.22.09s-.22.09-.43.09a12.79,12.79,0,0,1-4.87-.64,19.47,19.47,0,0,1-6.06-3.23,19.25,19.25,0,0,1-5.08-6.44,21.64,21.64,0,0,1-2.17-10.13c0-3,.22-6.44.54-10.22s.76-7.37,1.19-10.77.87-6.54,1.19-9.12.54-4.51.54-5.43a5.15,5.15,0,0,0-.43-2.12,8.87,8.87,0,0,1-.65-2,1.44,1.44,0,0,1,.44-1.48,4.57,4.57,0,0,1,2.81-.55,22.13,22.13,0,0,1,5.3.64,18.92,18.92,0,0,1,5,1.66,12.16,12.16,0,0,1,3.67,2.4A3.85,3.85,0,0,1,147.34,71a20.57,20.57,0,0,1-.76,4.7c-.54,2.12-1.08,4.6-1.73,7.55A99.08,99.08,0,0,0,143.12,93a78,78,0,0,0-.76,11.51,67.48,67.48,0,0,0,.54,9.3,34,34,0,0,0,1.41,5.43c.43-1.2,1.08-2.95,1.95-5.16s1.73-4.69,2.81-7.45,2.06-5.62,3.14-8.57,2-5.8,2.81-8.56,1.52-5.16,2.06-7.27a20.94,20.94,0,0,0,.75-4.88v-.93a5.1,5.1,0,0,0-.43-2.11,8.79,8.79,0,0,1-.65-2,1.42,1.42,0,0,1,.43-1.47,4.63,4.63,0,0,1,2.82-.55,22.26,22.26,0,0,1,9.52,2.3A9.48,9.48,0,0,1,172.65,75,2.46,2.46,0,0,1,174.06,77.44Z"/><path class="cls-2" d="M326.93,50.55a5.35,5.35,0,0,0-.43-2.12,4.37,4.37,0,0,1-.22-2,1.9,1.9,0,0,1,1.19-1.48,9.42,9.42,0,0,1,4-.64,24.81,24.81,0,0,1,8,1.2,34.94,34.94,0,0,1,6.38,2.94A15.71,15.71,0,0,1,350,52.12a5.54,5.54,0,0,1,1.41,3.13c0,.46-.22,1.84-.54,4s-.87,5.06-1.41,8.47-1.19,7.18-1.84,11.42-1.29,8.47-1.83,12.8-1.09,8.47-1.41,12.61a97.4,97.4,0,0,0-.43,10.87,36.69,36.69,0,0,0,.75,7.73c.44,1.93,1.3,3,2.49,3,1.95,0,4.55-.92,7.68-2.86a52.52,52.52,0,0,0,10.39-8.19A105.37,105.37,0,0,0,376.48,102a102.1,102.1,0,0,0,10.28-17.49A121.19,121.19,0,0,0,394.33,63a104.43,104.43,0,0,0,2.92-25.23,16.38,16.38,0,0,0-2.6-9.3A22.13,22.13,0,0,0,388.16,22a30.76,30.76,0,0,0-8.22-3.78A28.81,28.81,0,0,0,372,17a88.67,88.67,0,0,0-20.44,2.12,68.61,68.61,0,0,0-15,5.25,42.78,42.78,0,0,0-10.39,7,49.39,49.39,0,0,0-6.81,7.18,47.17,47.17,0,0,0-4,5.89,17,17,0,0,1-2.06,3.13,8.83,8.83,0,0,1-3.89,1.48,55.83,55.83,0,0,1-5.84.83,31.82,31.82,0,0,1-5.31-.19c-1.51-.27-2.27-.73-2.27-1.47,0-1,.76-2.58,2.17-4.79a41,41,0,0,1,6.38-7.27,85.78,85.78,0,0,1,10.28-8.29,77,77,0,0,1,13.95-7.74,100.26,100.26,0,0,1,17.2-5.7,88.07,88.07,0,0,1,20.34-2.21c1.95,0,4.65,0,8,.09a84.71,84.71,0,0,1,11,1.1,65.05,65.05,0,0,1,12,3.13,37.39,37.39,0,0,1,11,6.17,29.4,29.4,0,0,1,8,10.41,35.79,35.79,0,0,1,3.13,15.65,75.79,75.79,0,0,1-2.59,19.25,101.92,101.92,0,0,1-7.36,19.42,101,101,0,0,1-11.36,18,91.55,91.55,0,0,1-14.71,14.92,72.56,72.56,0,0,1-17.2,10.12,50,50,0,0,1-18.93,3.69c-4.87,0-8.87-1.11-11.9-3.32A23.28,23.28,0,0,1,328,122a43.84,43.84,0,0,1-3.89-12.61,91.54,91.54,0,0,1-1.19-14.64c0-5.07.11-10,.54-14.92s1-9.48,1.41-13.44,1.08-7.46,1.51-10.13C326.72,53,326.93,51.38,326.93,50.55Z"/><path class="cls-2" d="M448.09,58c0,1.75-.65,3-1.94,3.5a9.49,9.49,0,0,1-4.76.83,22.47,22.47,0,0,1-6.17-1.2,29.35,29.35,0,0,1-6.17-2.49,24.84,24.84,0,0,1-4.76-3.13c-1.29-1.1-1.94-2.12-1.94-3.13a4.78,4.78,0,0,1,1-3.22,5.87,5.87,0,0,1,2.6-1.66,12.08,12.08,0,0,1,3.89-.55c1.51,0,3-.09,4.76-.09a12.19,12.19,0,0,1,4.87,1.1,16.13,16.13,0,0,1,4.33,2.86,16.92,16.92,0,0,1,3.13,3.59A7.89,7.89,0,0,1,448.09,58ZM463,93.43a2.52,2.52,0,0,1,1-1.38.93.93,0,0,1,1.08-.18,1.21,1.21,0,0,1,.75.64,1.5,1.5,0,0,1,.11,1.2,36.37,36.37,0,0,1-1.51,4.23c-.76,1.94-1.62,4.06-2.81,6.45s-2.38,4.79-3.68,7.27a65.72,65.72,0,0,1-4.33,6.82,27.42,27.42,0,0,1-4.65,5.06,7.53,7.53,0,0,1-4.65,1.94h-.22c-4.33,0-7.79-1.11-10.28-3.41a21.57,21.57,0,0,1-5.84-8.38,41.58,41.58,0,0,1-2.59-10.31,74.8,74.8,0,0,1-.55-9.3c0-3.23.11-6,.22-8.29s.33-4.24.54-5.8.43-2.86.54-3.87.22-1.84.22-2.48c0-1.2.86-1.94,2.6-2.12a14.16,14.16,0,0,1,5.73.64,20,20,0,0,1,5.73,2.67q2.59,1.8,2.6,3.87c0,1,0,2.21-.11,3.5s-.22,2.58-.22,4-.21,2.85-.21,4.24-.11,2.67-.11,3.86A55.64,55.64,0,0,0,444,109.18a51.8,51.8,0,0,0,3.36,9,8.89,8.89,0,0,0,2.92-2.48,47.12,47.12,0,0,0,3.35-4.42c1.19-1.66,2.27-3.41,3.35-5.25s2.06-3.69,2.92-5.34,1.63-3.13,2.17-4.42C462.48,94.81,462.81,94,463,93.43Z"/><path class="cls-2" d="M513.22,92.08a1.87,1.87,0,0,1,1-1.11,1.51,1.51,0,0,1,1.08-.09,1.12,1.12,0,0,1,.76.74c.22.37.11.83-.11,1.47a26.82,26.82,0,0,0-1.08,3c-.54,1.65-1.3,3.5-2.27,5.71a60.84,60.84,0,0,1-3.79,7,32.13,32.13,0,0,1-5.52,6.82,25.7,25.7,0,0,1-7.35,5.15,20.59,20.59,0,0,1-9.31,2,31.3,31.3,0,0,1-12.33-2.39,28.83,28.83,0,0,1-9.19-6.08,26.9,26.9,0,0,1-5.74-8.1,21.84,21.84,0,0,1-1.94-8.75,38.33,38.33,0,0,1,1.4-10.59,56.93,56.93,0,0,1,3.57-9.39A44.43,44.43,0,0,1,466.92,70a26.38,26.38,0,0,1,4.43-4.7,14.17,14.17,0,0,1,5.19-2.21,38.83,38.83,0,0,1,6.39-.83c2.16,0,4.22.1,6.16.28a15.59,15.59,0,0,1,4.55,1,9.94,9.94,0,0,1,5,4.79,17.12,17.12,0,0,1,1.95,8.29c0,5.89-1.41,10.4-4.33,13.44a14.31,14.31,0,0,1-10.82,4.51,31,31,0,0,1-5-.46,44.92,44.92,0,0,1-4.65-1,23.38,23.38,0,0,0,.75,8.2,25.42,25.42,0,0,0,3.25,7.18,20.18,20.18,0,0,0,4.76,5.15,9.58,9.58,0,0,0,5.52,1.94,17,17,0,0,0,7.57-1.66,25.12,25.12,0,0,0,10.17-9.58c1.19-1.93,2.16-3.77,3-5.52a37.72,37.72,0,0,0,1.84-4.6A3.88,3.88,0,0,1,513.22,92.08ZM488.34,72.19a8,8,0,0,0-4.76,1.56,14.13,14.13,0,0,0-3.68,4.15,23.18,23.18,0,0,0-2.6,6A46.23,46.23,0,0,0,475.68,91a12.1,12.1,0,0,0,7.25.74,10.35,10.35,0,0,0,5-2.95,13.35,13.35,0,0,0,2.92-5,16.79,16.79,0,0,0,1-5.43,10.7,10.7,0,0,0-.87-4.42A2.65,2.65,0,0,0,488.34,72.19Z"/></g></g></svg>