<svg xmlns="http://www.w3.org/2000/svg" xmlns:xlink="http://www.w3.org/1999/xlink" viewBox="0 0 402.27 414.71"><defs><style>.cls-1,.cls-14,.cls-15,.cls-16{fill:none;}.cls-2{clip-path:url(#clip-path);}.cls-3{fill:#d3ca8d;}.cls-14,.cls-3,.cls-4,.cls-5,.cls-6,.cls-7,.cls-8,.cls-9{stroke:#1d1d1b;stroke-width:1.62px;}.cls-14,.cls-15,.cls-16,.cls-3,.cls-4,.cls-5,.cls-6,.cls-7,.cls-8,.cls-9{stroke-miterlimit:10;}.cls-4{fill:#3b1936;}.cls-17,.cls-5{fill:#d52e2d;}.cls-6{fill:#c7bc54;}.cls-7{fill:#ebe5a6;}.cls-9{fill:#272727;}.cls-10{fill:#1e2d51;}.cls-11{fill:#fff;}.cls-12{fill:#494646;}.cls-13{fill:#1d1d1b;}.cls-15,.cls-16{stroke:#000;}.cls-15{stroke-width:5.63px;}.cls-16{stroke-width:3.38px;}</style><clipPath id="clip-path"><path class="cls-1" d="M376.06,139.15a23.1,23.1,0,0,0,2.12-2.19,35.57,35.57,0,0,0,4.43-6.51,60.38,60.38,0,0,0,2.92-6.29c.78-2,1.36-3.7,1.77-5.17.29-1,.48-1.71.62-2.09a6.14,6.14,0,0,0,.05-4.54,5.57,5.57,0,0,0-3.21-3.19,5.31,5.31,0,0,0-1.89-.34,5.49,5.49,0,0,0-2.9.84,6.24,6.24,0,0,0-2.39,2.86,14.81,14.81,0,0,0-.88,2.78,27.91,27.91,0,0,1-1.11,3.23c-.54,1.32-1.2,2.73-2,4.21a17.25,17.25,0,0,1-2.43,3.52,12,12,0,0,1-2.05,1.85c-.47-.7-1-1.4-1.45-2.1-1.15-1.65-2.32-3.29-3.53-4.91a14.14,14.14,0,0,0,9-5.28c2.72-3.34,4.1-8.06,4.1-14a20.88,20.88,0,0,0-1.77-8.75,12.14,12.14,0,0,0-5.61-6.14,14.9,14.9,0,0,0-4.59-1.28,31.53,31.53,0,0,0-4.31-.28h-.73a23.47,23.47,0,0,0-5.62.81A13.69,13.69,0,0,0,349.19,89l-.13.12a26.49,26.49,0,0,0-3.81,4.72c-.66,1-1.31,2.12-1.93,3.31-1-1-2-1.91-2.95-2.85l-2.18-2a7.79,7.79,0,0,0,2.35-5.94,10.78,10.78,0,0,0-1.37-5,18.09,18.09,0,0,0-2.94-4A17.14,17.14,0,0,0,332,74.07a11.71,11.71,0,0,0-5.58-1.48c-1.22,0-2.38,0-3.48,0a14.49,14.49,0,0,0-2.91.4,34.16,34.16,0,0,0-2.23-9.37,29,29,0,0,0-15.92-16.2,48,48,0,0,0-9.36-2.82,54,54,0,0,0-8.5-1c-2.43-.06-4.34-.1-5.73-.1a57.29,57.29,0,0,0-15.56,2c-2.08.58-4.1,1.24-6,2a188.45,188.45,0,0,0-23.33-4.67c-2.79-.35-4.55-.69-7.27-1-1.55-15.82-5.75-28.51-11.66-35.44C211,2.47,206.23,0,201.77,0c-5.55,0-9.82,2.92-13.3,7-6.1,7.08-9.8,19.75-11.33,36.19-2.34.35-3.6.74-5.77,1.14a178.9,178.9,0,0,0-21.22,5.26l-1.27.39a13.83,13.83,0,0,0-1.07-2.31,19,19,0,0,0-3.49-4.38,21.91,21.91,0,0,0-4.84-3.43,14.19,14.19,0,0,0-6.59-1.63,92.28,92.28,0,0,0-12.64,1.07c-4.86.69-10.22,1.68-16,2.94s-11.76,2.83-18,4.68-12.43,4-18.46,6.3S56,58.12,50.52,60.87A95.22,95.22,0,0,0,35.78,70,49.62,49.62,0,0,0,25.19,80.63a22.49,22.49,0,0,0-4.42,13.1,6,6,0,0,0,2.18,5,5.46,5.46,0,0,0,3.41,1.19,5.62,5.62,0,0,0,1.92-.34,6.51,6.51,0,0,0,3.15-2.5A7.06,7.06,0,0,0,32.67,93a4.59,4.59,0,0,1,1.45-2.34,32.06,32.06,0,0,1,6.49-5A96.63,96.63,0,0,1,51.2,80.08c1.68-.76,3.44-1.52,5.24-2.27q-.27,1.48-.51,3.09a54.51,54.51,0,0,0-6.5,3.47c-2.29,1.46-5.33,3.81-5.33,7.32a8.39,8.39,0,0,0,1.16,4.19,12.38,12.38,0,0,0,2.23,2.82,13.76,13.76,0,0,0,2.82,2,8.51,8.51,0,0,0,3.95,1.11c0,1.15,0,2.31,0,3.49,0,.19,0,.39,0,.59h0A192.68,192.68,0,0,0,33.09,132c-10.76,15.86-12.7,202.61-10.9,206C10.68,348,3,357.74.79,366.32c-1.34,5.17-1,10.51,1.5,14.16s6,6.69,11.34,7.22c.87.09,3.8.31,4.72.31,8.43,0,19.49-3.84,31.56-10.44,4.15,4.73,65.44,37.05,152.5,37.14,110,.12,114.94-22.59,148.16-37.64,12.83,7.33,24.5,11.42,33.37,11.44.92,0,2,0,2.91-.09a20.52,20.52,0,0,0,7.37-2.1,16.45,16.45,0,0,0,5.41-4.69c2.57-3.65,3.32-8.88,2-14.06-2.34-9.13-10.77-20.05-23.53-30.84C386.41,320.68,380.32,146.5,376.06,139.15ZM318.73,93.71c.23-1.14.46-2.28.64-3.41l.76.49a27.91,27.91,0,0,0,3.27,1.68h-.09a11.88,11.88,0,0,0-1.48.09A7.14,7.14,0,0,0,318.73,93.71Zm19.2,29.91c-.29.6-.59,1.2-.9,1.78-.11-.61-.2-1.26-.28-1.94L338,122.4c0,.25.07.51.12.76Zm-51.4-65.86a14.53,14.53,0,0,1,4.4,2.38c.15.11.29.23.43.35-2.5-1.19-5-2.33-7.52-3.41A17.39,17.39,0,0,1,286.53,57.76ZM97.64,376.33l0,0-.11,0,.14,0ZM82.9,70.6c.2-.83.37-1.52.49-2.11q3.21-1,6.44-1.85c0,.51-.1,1.14-.17,1.92,0,.29-.07.62-.1.93-.72.15-1.45.3-2.22.48-1.43.33-3,.73-4.58,1.17C82.81,71,82.85,70.77,82.9,70.6Zm29.72-6.5-.22.1-1.71.81a9.63,9.63,0,0,0-1.32-3.18c1-.21,2-.43,2.93-.62,3.84-.79,7.46-1.44,10.82-1.94l1.25-.19-.53.21C120.81,60.48,117,62,112.62,64.1Z"/></clipPath></defs><title>holding- FODe</title><g id="Layer_2" data-name="Layer 2"><g class="cls-2"><g id="_Group_" data-name="&lt;Group&gt;"><g id="_Group_2" data-name="&lt;Group&gt;"><circle id="_Path_" data-name="&lt;Path&gt;" class="cls-3" cx="201.36" cy="242.4" r="116.95" transform="translate(-112.43 213.38) rotate(-45)"/></g><g id="_Group_3" data-name="&lt;Group&gt;"><path id="_Compound_Path_" data-name="&lt;Compound Path&gt;" class="cls-4" d="M201.15,363.57a121.17,121.17,0,1,1,121.38-121A121.31,121.31,0,0,1,201.15,363.57Zm.4-233.91A112.74,112.74,0,1,0,314.1,242.59,112.86,112.86,0,0,0,201.55,129.66Z"/></g><g id="_Group_4" data-name="&lt;Group&gt;"><circle id="_Path_2" data-name="&lt;Path&gt;" class="cls-5" cx="201.36" cy="242.4" r="85.5" transform="translate(-112.43 213.38) rotate(-45)"/></g><g id="_Group_5" data-name="&lt;Group&gt;"><path id="_Compound_Path_2" data-name="&lt;Compound Path&gt;" class="cls-4" d="M201.21,332.12a89.72,89.72,0,1,1,89.86-89.57A89.83,89.83,0,0,1,201.21,332.12Zm.29-171a81.29,81.29,0,1,0,81.15,81.43A81.39,81.39,0,0,0,201.5,161.11Z"/></g><g id="_Group_6" data-name="&lt;Group&gt;"><path id="_Compound_Path_3" data-name="&lt;Compound Path&gt;" class="cls-4" d="M196.8,311.46h-.21l-1.24-.1a3,3,0,1,1,.5-6l1.16.09a3,3,0,0,1-.21,6Zm16.79-1a3,3,0,0,1-.55-6l1.14-.23a3,3,0,0,1,1.21,5.9l-1.23.24A2.75,2.75,0,0,1,213.59,310.48Zm-34.44-2.68a2.94,2.94,0,0,1-1-.18l-1.19-.43a3,3,0,1,1,2.13-5.63l1.08.4a3,3,0,0,1-1,5.84Zm51.54-3a3,3,0,0,1-1.34-5.71l1-.52a3,3,0,0,1,2.77,5.35l-1.12.56A2.93,2.93,0,0,1,230.69,304.78Zm-67.53-5.29a3,3,0,0,1-1.73-.55l-1-.74a3,3,0,1,1,3.57-4.85l.93.67a3,3,0,0,1-1.74,5.47Zm82.43-4.83a3,3,0,0,1-2.23-1,3,3,0,0,1,.22-4.25l.85-.78a3,3,0,1,1,4.11,4.4l-.93.85A3,3,0,0,1,245.59,294.66ZM150,287.18a3,3,0,0,1-2.33-1.11c-.26-.32-.53-.65-.79-1a3,3,0,0,1,4.74-3.7l.72.89a3,3,0,0,1-2.34,4.91Zm107.25-6.27a3,3,0,0,1-2.53-4.62l.61-1a3,3,0,1,1,5.13,3.14l-.66,1.07A3,3,0,0,1,257.24,280.91ZM140.62,271.8a3,3,0,0,1-2.76-1.81l-.48-1.15a3,3,0,1,1,5.55-2.31c.15.35.3.71.46,1.06a3,3,0,0,1-2.77,4.21Zm124.14-7.27a2.91,2.91,0,0,1-.87-.13,3,3,0,0,1-2-3.75l.32-1.1a3,3,0,1,1,5.79,1.62c-.11.41-.23.81-.35,1.22A3,3,0,0,1,264.76,264.53Zm-129-10.08a3,3,0,0,1-3-2.6c-.06-.42-.11-.84-.16-1.26a3,3,0,0,1,6-.69c0,.38.09.76.14,1.13a3,3,0,0,1-2.57,3.39A3,3,0,0,1,135.76,254.45Zm131.78-7.72h-.05a3,3,0,0,1-2.95-3.07c0-.38,0-.77,0-1.15v-.27a3,3,0,1,1,6,0v.23c0,.46,0,.88,0,1.3A3,3,0,0,1,267.54,246.73Zm-131.78-10.3a2.69,2.69,0,0,1-.4,0,3,3,0,0,1-2.58-3.38c.06-.42.11-.84.18-1.25a3,3,0,0,1,5.95.92c-.06.38-.12.75-.17,1.13A3,3,0,0,1,135.76,236.43Zm129.63-7.86a3,3,0,0,1-2.9-2.25l-.3-1.11a3,3,0,0,1,5.79-1.63l.33,1.21a3,3,0,0,1-2.92,3.78Zm-124.79-9.5a2.92,2.92,0,0,1-1.19-.25,3,3,0,0,1-1.57-4l.51-1.15a3,3,0,0,1,5.49,2.49l-.48,1.06A3,3,0,0,1,140.6,219.07Zm117.88-7.15a3,3,0,0,1-2.6-1.48c-.19-.33-.39-.66-.59-1a3,3,0,0,1,5.14-3.13c.22.35.43.71.64,1.07a3,3,0,0,1-1.07,4.12A2.9,2.9,0,0,1,258.48,211.92ZM150,203.67a3,3,0,0,1-1.88-.67,3,3,0,0,1-.45-4.24l.81-1a3,3,0,1,1,4.6,3.88l-.73.88A3,3,0,0,1,150,203.67Zm97.37-5.9a3,3,0,0,1-2.08-.84l-.84-.79a3,3,0,1,1,4.09-4.41l.92.87a3,3,0,0,1,.08,4.25A2.94,2.94,0,0,1,247.33,197.77Zm-84.2-6.42a3,3,0,0,1-1.74-5.46l1-.72a3,3,0,0,1,3.39,5l-.94.65A2.9,2.9,0,0,1,163.13,191.35Zm69.65-4.22a3,3,0,0,1-1.42-.36l-1-.54a3,3,0,0,1,2.76-5.35l1.12.59a3,3,0,0,1-1.44,5.66ZM179.1,183a3,3,0,0,1-1-5.84l1.18-.41a3,3,0,1,1,1.93,5.7l-1.09.38A3,3,0,0,1,179.1,183Zm36.8-2.23a2.94,2.94,0,0,1-.65-.07c-.38-.09-.75-.17-1.13-.24a3,3,0,0,1,1.21-5.9l1.23.26a3,3,0,0,1-.66,5.95Zm-19.16-1.44a3,3,0,0,1-.2-6l1.26-.07a3,3,0,0,1,.3,6l-1.15.07Z"/></g><g id="_Group_7" data-name="&lt;Group&gt;"><circle id="_Path_3" data-name="&lt;Path&gt;" class="cls-4" cx="201.36" cy="242.4" r="54.07" transform="translate(-112.43 213.38) rotate(-45)"/></g><g id="_Group_8" data-name="&lt;Group&gt;"><path id="_Path_4" data-name="&lt;Path&gt;" class="cls-6" d="M215.26,246.27A14.4,14.4,0,0,0,201.38,228a14.41,14.41,0,0,0-13.74,18.94h0s6.2-4.51,13.72-4.5A30.32,30.32,0,0,1,215.26,246.27Z"/></g><g id="_Group_9" data-name="&lt;Group&gt;"><path id="_Compound_Path_4" data-name="&lt;Compound Path&gt;" class="cls-6" d="M201.28,287.54a45.14,45.14,0,1,1,45.22-45.06A45.19,45.19,0,0,1,201.28,287.54Zm.15-85.46a40.32,40.32,0,1,0,40.25,40.39A40.36,40.36,0,0,0,201.43,202.08Z"/></g><g id="_Group_10" data-name="&lt;Group&gt;"><path id="_Compound_Path_5" data-name="&lt;Compound Path&gt;" class="cls-6" d="M201.33,258.05A15.65,15.65,0,1,1,217,242.43,15.67,15.67,0,0,1,201.33,258.05Zm0-28.89a13.24,13.24,0,1,0,13.22,13.26A13.26,13.26,0,0,0,201.38,229.16Z"/></g><g id="_Group_11" data-name="&lt;Group&gt;"><g id="_Group_12" data-name="&lt;Group&gt;"><g id="_Group_13" data-name="&lt;Group&gt;"><path id="_Path_5" data-name="&lt;Path&gt;" class="cls-7" d="M201.76,4.34c-16,0-27.42,35.83-17.07,103.1s9.52,110.3,9.52,110.3h14.38s-.67-43,9.9-110.26S217.74,4.37,201.76,4.34Z"/></g><g id="_Group_14" data-name="&lt;Group&gt;"><path id="_Path_6" data-name="&lt;Path&gt;" class="cls-5" d="M201.76,4.34c-15.89,0-27.29,35.47-17.23,102.07a146.93,146.93,0,0,1,34.12,0C228.94,39.9,217.66,4.37,201.76,4.34Z"/></g><g id="_Group_15" data-name="&lt;Group&gt;"><path id="_Compound_Path_6" data-name="&lt;Compound Path&gt;" class="cls-8" d="M212,221.11l-21.17,0,.06-3.4c0-.43.69-43.55-9.49-109.72C173.94,59.53,177,21.86,189.63,7.19,193.12,3.13,197.31,1,201.77,1s8.65,2.16,12.11,6.23C226.45,22,229.4,59.63,221.79,108c-10.41,66.19-9.87,109.26-9.86,109.69Zm-14.42-6.71h7.69c.1-11.48,1.11-51.28,9.94-107.43,8.61-54.74,2.35-85.18-6.39-95.42-2.19-2.56-4.56-3.87-7-3.87S196.9,9,194.7,11.54c-8.77,10.21-15.14,40.62-6.71,95.4C196.63,163.11,197.5,202.91,197.56,214.4Z"/></g></g><g id="_Group_16" data-name="&lt;Group&gt;"><g id="_Group_17" data-name="&lt;Group&gt;"><path id="_Path_7" data-name="&lt;Path&gt;" class="cls-7" d="M6.12,378.61c9.14,13.11,45.08,1.92,94.25-45.14s84.88-71.07,84.88-71.07l-4.11-5.89-4.11-5.9s-34.86,25.23-96,55.13S-3,365.51,6.12,378.61Z"/></g><g id="_Group_18" data-name="&lt;Group&gt;"><path id="_Path_8" data-name="&lt;Path&gt;" class="cls-5" d="M6.12,378.61c9.1,13,44.71,2,93.49-44.42a147.25,147.25,0,0,1-19.52-28C19.66,336-3,365.58,6.12,378.61Z"/></g><g id="_Group_19" data-name="&lt;Group&gt;"><path id="_Compound_Path_7" data-name="&lt;Compound Path&gt;" class="cls-8" d="M18.09,387.05a26.2,26.2,0,0,1-2.69-.13c-5.31-.53-9.47-2.74-12-6.4S.19,372.2,1.53,367c4.85-18.73,34-42.77,78-64.29,60.19-29.43,95.16-54.58,95.51-54.83l2.75-2,12.12,17.37-2.82,1.9c-.36.23-36.07,24.41-84.44,70.7C68.89,368.23,37.61,387.08,18.09,387.05ZM176.2,255.27c-9.46,6.51-42.65,28.5-93.7,53.47-49.79,24.35-71.13,46.94-74.5,60-.85,3.27-.56,6,.86,8h0c1.42,2,3.84,3.24,7.21,3.57,13.39,1.33,42-10.9,82-49.22,41.06-39.3,73.16-62.84,82.54-69.48Z"/></g></g><g id="_Group_20" data-name="&lt;Group&gt;"><g id="_Group_21" data-name="&lt;Group&gt;"><path id="_Path_9" data-name="&lt;Path&gt;" class="cls-7" d="M396.13,379.28c-9.19,13.07-45.08,1.76-94.1-45.47s-84.63-71.35-84.63-71.35l4.13-5.88,4.13-5.88s34.77,25.34,95.81,55.45S405.32,366.21,396.13,379.28Z"/></g><g id="_Group_22" data-name="&lt;Group&gt;"><path id="_Path_10" data-name="&lt;Path&gt;" class="cls-5" d="M396.13,379.28c-9.14,13-44.71,1.87-93.33-44.75a147,147,0,0,0,19.61-27.91C382.74,336.58,405.27,366.27,396.13,379.28Z"/></g><g id="_Group_23" data-name="&lt;Group&gt;"><path id="_Compound_Path_8" data-name="&lt;Compound Path&gt;" class="cls-8" d="M384.13,387.68c-19.52,0-50.73-19-84.41-51.46-48.21-46.46-83.84-70.76-84.2-71l-2.81-1.9L224.88,246l2.75,2c.35.25,35.28,25.54,95.32,55.16,43.93,21.67,73,45.8,77.81,64.55,1.32,5.18.67,9.84-1.9,13.49h0c-2.56,3.65-6.72,5.84-12,6.35A26.2,26.2,0,0,1,384.13,387.68Zm-162.08-126c9.36,6.67,41.37,30.33,82.3,69.77,39.91,38.45,68.44,50.78,81.83,49.49,3.36-.32,5.79-1.51,7.22-3.54h0c1.42-2,1.72-4.72.89-8-3.33-13-24.6-35.71-74.3-60.22-51-25.15-84.08-47.26-93.52-53.8Z"/></g></g></g><g id="_Group_24" data-name="&lt;Group&gt;"><path id="_Compound_Path_9" data-name="&lt;Compound Path&gt;" class="cls-6" d="M201.32,268a25.58,25.58,0,1,1,25.62-25.54A25.61,25.61,0,0,1,201.32,268Zm.08-47.55a22,22,0,1,0,21.93,22A22,22,0,0,0,201.4,220.43Z"/></g><g id="_Group_25" data-name="&lt;Group&gt;"><path id="_Path_11" data-name="&lt;Path&gt;" class="cls-9" d="M61.34,280.4l-.71-2.06c-.44-1.36-1.14-3.34-1.83-5.92a126.66,126.66,0,0,1-4-21.81c-.21-2.29-.4-4.69-.51-7.18-.09-1.39,0-2.52,0-3.82s0-2.56,0-3.86,0-2.62,0-4,.21-2.75.31-4.15a80.7,80.7,0,0,1,.9-8.53c.22-1.43.45-2.87.68-4.33s.41-2.93.78-4.37c.67-2.91,1.31-5.87,2.09-8.82s1.83-5.84,2.76-8.78S64,187,65.15,184.15s2.66-5.6,4-8.39c.64-1.4,1.44-2.72,2.19-4.06l2.27-4,1.13-2L76,163.84l2.53-3.73c1.61-2.52,3.5-4.78,5.27-7.08.9-1.14,1.76-2.29,2.66-3.38l2.83-3.14c1.88-2.06,3.68-4.1,5.64-5.89s3.72-3.67,5.61-5.29l5.56-4.57a33.44,33.44,0,0,1,2.68-2l2.63-1.88c1.74-1.17,3.29-2.41,4.92-3.34,3.21-1.92,5.94-3.66,8.32-4.87,4.78-2.41,7.52-3.71,7.52-3.71s-2.49,1.78-6.86,4.75c-1.12.71-2.25,1.66-3.51,2.63l-4.09,3.13c-1.49,1.07-2.89,2.45-4.46,3.77s-3.26,2.66-4.84,4.27l-5,4.89c-1.71,1.71-3.35,3.6-5.11,5.47s-3.41,3.92-5.1,6L90.55,153c-.84,1.09-1.63,2.23-2.45,3.35-1.62,2.28-3.36,4.52-4.82,7L81,167l-1.18,1.83-1.06,1.92-2.13,3.85c-.71,1.29-1.46,2.56-2,3.92-1.23,2.69-2.58,5.34-3.72,8.07s-2.25,5.5-3.31,8.26l-2.75,8.39q-1.11,4.25-2.21,8.4c-.42,1.38-.62,2.79-.91,4.18s-.53,2.77-.8,4.14c-.62,2.74-.8,5.44-1.2,8.09-.18,1.32-.36,2.63-.54,3.92s-.18,2.65-.28,3.95c-.15,2.56-.35,5.21-.46,7.49s-.1,4.76-.07,7A172.14,172.14,0,0,0,60,272.17c.39,2.62.7,4.68,1,6.08S61.34,280.4,61.34,280.4Z"/><path id="_Path_12" data-name="&lt;Path&gt;" class="cls-9" d="M304,344.89l-1.55,1.71c-.51.56-1.14,1.25-1.87,2.07S299,350.4,298,351.38l-3.36,3.28c-1.25,1.18-2.67,2.35-4.15,3.66s-3.16,2.59-4.89,4-3.66,2.72-5.66,4.12a127.29,127.29,0,0,1-13.49,8.2c-2.48,1.33-5.1,2.54-7.76,3.83l-4.12,1.74c-1.39.59-2.8,1.16-4.26,1.65l-4.37,1.56c-1.48.5-3,.92-4.5,1.39-3,1-6.15,1.67-9.29,2.42a147.8,147.8,0,0,1-19.36,2.85,144.81,144.81,0,0,1-19.53.12,128.26,128.26,0,0,1-18.81-2.49c-3-.57-6-1.31-8.8-2.06S160,384,157.35,383s-5.2-1.9-7.66-2.86-4.76-2.05-6.94-3.15-4.3-2.1-6.23-3.21-3.75-2.14-5.44-3.18-3.24-2-4.65-3-2.69-1.86-3.82-2.72c-2.31-1.64-4-3.07-5.18-4l-1.79-1.48,2,1.18c1.29.8,3.19,1.93,5.64,3.29,1.22.7,2.57,1.45,4.09,2.21s3.09,1.65,4.86,2.46,3.62,1.74,5.63,2.58,4.1,1.76,6.32,2.63c4.44,1.72,9.32,3.39,14.56,4.86a151.8,151.8,0,0,0,16.66,3.69c2.91.54,5.9.86,8.92,1.22s6.1.54,9.15.67a140.71,140.71,0,0,0,18.81-.32,143.2,143.2,0,0,0,18.6-2.52,156.14,156.14,0,0,0,17.59-4.67c2.84-.84,5.51-2,8.21-2.94,2.62-1.1,5.23-2.12,7.69-3.27s4.88-2.25,7.12-3.5,4.48-2.31,6.51-3.56,4-2.36,5.84-3.57,3.61-2.25,5.17-3.41l4.45-3.16,3.67-2.82c2.25-1.68,3.9-3.17,5.08-4.11Z"/><path id="_Path_13" data-name="&lt;Path&gt;" class="cls-9" d="M132.13,114.91l2.87-1.69c1.88-1.09,4.67-2.67,8.34-4.46a138.87,138.87,0,0,1,54.6-13.65L201,95h3.11c2.06,0,4.08,0,6.24.12s4.32.2,6.49.41l6.54.74a141.91,141.91,0,0,1,26.55,6.28,142.55,142.55,0,0,1,48.55,28.16,141,141,0,0,1,18.65,19.9,139.45,139.45,0,0,1,13.71,21.45c.9,1.82,1.87,3.56,2.67,5.36s1.58,3.56,2.36,5.3c1.37,3.55,2.74,6.95,3.77,10.32s2,6.6,2.82,9.69c.38,1.55.68,3.09,1,4.57s.65,2.91.85,4.32a133.75,133.75,0,0,1,1.79,14.62c.1,2,.2,3.84.28,5.42s0,2.93,0,4c0,2.17,0,3.33,0,3.33s-.11-1.15-.33-3.32c-.1-1.08-.23-2.41-.39-4s-.48-3.35-.77-5.35c-.6-4-1.54-8.81-2.88-14.25-.64-2.73-1.55-5.58-2.42-8.58-1-3-2-6.13-3.29-9.3a142.93,142.93,0,0,0-9.51-20A154.26,154.26,0,0,0,312.85,154a149.87,149.87,0,0,0-18.31-18.78,143.26,143.26,0,0,0-22.05-15.65A140.73,140.73,0,0,0,248,108.2a149.37,149.37,0,0,0-25.39-6.55l-6.29-.86c-2.07-.24-4.11-.39-6.14-.6S206,100,204,99.84l-3-.12h-3a151.47,151.47,0,0,0-54.21,10.18c-3.76,1.48-6.69,2.71-8.67,3.62Z"/></g><g id="_Group_26" data-name="&lt;Group&gt;"><path id="_Path_14" data-name="&lt;Path&gt;" class="cls-8" d="M48.9,301.5l-1.62-3.75c-1-2.47-2.51-6.09-4-10.84a153.24,153.24,0,0,1-4.61-17.44c-.67-3.43-1.31-7.09-1.82-11s-.86-8-1.09-12.31c0-1.08-.08-2.17-.13-3.27s0-2.23,0-3.36c0-2.22-.08-4.44,0-6.79s.25-4.73.38-7.16.51-4.83.77-7.29a158.41,158.41,0,0,1,6.89-30.46,161.14,161.14,0,0,1,13.76-30.51,165.41,165.41,0,0,1,20.49-27.87,168.13,168.13,0,0,1,26-22.86A159,159,0,0,1,133,90.17a155.61,155.61,0,0,1,29.73-9.57,148.94,148.94,0,0,1,27.67-3.49c2.15-.15,4.26-.11,6.32-.11s4.12,0,6,.08c3.91.16,7.64.46,11.1.85a148.53,148.53,0,0,1,17.78,3c4.87,1.11,8.62,2.27,11.16,3.07s3.88,1.27,3.88,1.27-1.38-.33-4-.87-6.45-1.24-11.34-2a176.73,176.73,0,0,0-17.72-1.59c-3.44-.13-7.06-.17-10.91-.06-2,0-3.86.19-5.89.28s-4.07.18-6.15.44a166.14,166.14,0,0,0-26.63,4.68,170,170,0,0,0-28.26,10.16,167.32,167.32,0,0,0-27.59,16.29,162.16,162.16,0,0,0-24.62,22,158.33,158.33,0,0,0-19.76,26.46,166.82,166.82,0,0,0-13.76,28.92,170.62,170.62,0,0,0-7.62,29.06q-.53,3.57-1,7-.34,3.45-.67,6.8c-.25,2.22-.27,4.52-.42,6.72-.05,1.09-.1,2.16-.15,3.22s0,2.14-.05,3.19A178.24,178.24,0,0,0,41.54,269c.91,6.79,2,12.69,3.17,17.51s2.2,8.56,3,11.11S48.9,301.5,48.9,301.5Z"/><path id="_Path_15" data-name="&lt;Path&gt;" class="cls-8" d="M355.71,300.42s-.51,1.47-1.45,4.23l-1.73,5.09c-.36,1-.66,2.1-1.15,3.21l-1.56,3.55c-1.13,2.49-2.26,5.33-3.73,8.3L341,334.21c-2,3.29-4.25,6.66-6.56,10.29-1.15,1.83-2.61,3.49-3.95,5.31l-4.24,5.5-4.82,5.4-2.49,2.77-1.27,1.41-1.37,1.32a153.9,153.9,0,0,1-11.76,10.59c-2.13,1.69-4.22,3.5-6.47,5.16l-7,4.82c-1.19.79-2.32,1.7-3.59,2.4l-3.77,2.18-3.82,2.2c-1.29.72-2.54,1.52-3.91,2.12l-8.12,3.88-2.05,1-2.13.83L259.43,403c-14,6-11.76,4-17.7,5.72-3,.72-6.13,1.29-9.22,1.95-1.55.3-3.09.67-4.65.92l-4.71.59-4.72.59c-1.58.16-3.15.47-4.74.48l-9.53.42-2.39.1H201l-.58,0-1.17-.05-4.65-.2a91.58,91.58,0,0,1-9.39-.63l-9.53-1.14c-3.11-.57-6.18-1.22-9.26-1.82a154.76,154.76,0,0,1-34.69-11.86l-4-1.87c-1.31-.67-2.58-1.41-3.86-2.11-2.55-1.43-5.1-2.82-7.55-4.27l-7.06-4.72c-1.15-.79-2.34-1.51-3.43-2.35l-3.24-2.53c-2.14-1.69-4.28-3.3-6.31-5L90.51,370l-2.79-2.57c-.88-.89-1.72-1.82-2.57-2.71l-5-5.28a31.85,31.85,0,0,1-2.29-2.66l-2.16-2.67c-1.41-1.76-2.8-3.47-4.15-5.15-2.42-3.55-4.73-6.91-6.89-10.07l-5.37-9.27c-.86-1.41-1.49-2.87-2.15-4.23l-1.86-3.9a110.89,110.89,0,0,1-4.85-11.71l-1.58-4.19,2,4c1.33,2.6,3,6.53,5.83,11.17.67,1.18,1.39,2.41,2.13,3.71a44,44,0,0,0,2.45,4l5.88,8.74,7.38,9.41c2.86,3.08,5.68,6.49,8.91,9.77l5.07,4.88c.87.83,1.72,1.68,2.62,2.5L94,366.12,99.75,371c2,1.55,4.16,3,6.28,4.58l3.2,2.33c1.08.77,2.26,1.42,3.4,2.14,2.29,1.42,4.6,2.85,7,4.29L127,388.2c1.25.65,2.48,1.34,3.75,1.95l3.91,1.71,3.94,1.71c1.33.55,2.62,1.22,4,1.65l8.27,2.88c.69.23,1.38.49,2.08.71l2.14.57,4.29,1.13,4.3,1.18c1.43.41,2.92.59,4.38.91,2.94.55,5.88,1.15,8.84,1.67l8.89,1a85.55,85.55,0,0,0,9.18.56l4.66.16,1.17,0,.58,0h.29c-.25,0,0,0,0,0h.14L204,406l9.1-.34a43.11,43.11,0,0,0,4.53-.43l4.51-.53,4.5-.52c1.49-.24,3-.58,4.44-.86,2.95-.6,5.91-1.12,8.83-1.79a179.26,179.26,0,0,0,33-11.88c1.32-.54,2.53-1.29,3.78-2l3.71-2,3.68-2c1.25-.63,2.36-1.46,3.53-2.17l6.88-4.41c2.22-1.52,4.3-3.19,6.41-4.74,4.32-3,8-6.61,11.76-9.8l1.4-1.22,1.3-1.29c.85-.87,1.7-1.72,2.55-2.57l4.95-5c2.95-3.52,5.91-6.82,8.52-10.11s4.94-6.55,7.07-9.65,3.89-6.15,5.62-8.91,3-5.47,4.29-7.85l1.82-3.39c.58-1.06,1-2.13,1.43-3.09.87-1.93,1.61-3.57,2.2-4.9Z"/><path id="_Path_16" data-name="&lt;Path&gt;" class="cls-8" d="M246.7,85.3l2.92.69,3.5.82c1.36.37,2.93.83,4.69,1.35,3.51,1,7.74,2.44,12.47,4.38,2.4.89,4.85,2.09,7.49,3.22,1.31.61,2.61,1.29,4,2s2.73,1.38,4.1,2.16a142.92,142.92,0,0,1,17.25,10.94,148.32,148.32,0,0,1,17.44,14.8,156.39,156.39,0,0,1,16.07,18.51A156.08,156.08,0,0,1,359.83,189a147.5,147.5,0,0,1,5.76,23.84,156.39,156.39,0,0,1,2,22.78c0,3.62,0,7.21-.2,10.55s-.51,6.71-.88,9.85a146.42,146.42,0,0,1-6.66,29.64c-1.14,3.48-2.24,6.13-3,8l-1.15,2.76.75-2.89c.49-1.89,1.13-4.68,1.88-8.22a183.62,183.62,0,0,0,3.72-29.6c.13-3.07.17-6.28.13-9.55s-.22-6.73-.4-10.25A190.45,190.45,0,0,0,358.88,214c-.4-1.87-.75-3.76-1.2-5.64s-.94-3.77-1.42-5.67l-1.68-5.67c-.57-1.89-1.22-3.77-1.84-5.67a159.39,159.39,0,0,0-9.57-22.21,161.66,161.66,0,0,0-12.6-20.65,173.72,173.72,0,0,0-47-44.83c-2.55-1.73-5.14-3.14-7.53-4.63s-4.74-2.75-7-3.85-4.33-2.22-6.31-3.12-3.77-1.82-5.45-2.49l-4.45-1.91-3.35-1.3Z"/></g></g><path class="cls-10" d="M200.07,70.79A152.26,152.26,0,1,0,352.33,223.05,152.26,152.26,0,0,0,200.07,70.79ZM166,352.91a6.86,6.86,0,0,1-8.32,4.73c-3.93-1.19-7.83-2.46-11.76-3.65a6.77,6.77,0,0,1,3.6-13.05c3.93,1.19,7.83,2.47,11.76,3.65A6.86,6.86,0,0,1,166,352.91Z"/><path class="cls-10" d="M99.07,135.43A9.65,9.65,0,0,0,89.29,128c-7.28,0-10.63,6.06-10.11,11.69-.6,5.66,2.76,11.84,10.11,11.84a9.67,9.67,0,0,0,9.77-7.41A12,12,0,0,0,99.07,135.43Z"/><path class="cls-10" d="M75.1,151.54c-13.58,0-13.6,21.09,0,21.09S88.69,151.54,75.1,151.54Z"/><path class="cls-10" d="M289.94,105.35a9.56,9.56,0,0,0-8.77-4.93c-10,0-12.61,11.34-8,17.39a9.57,9.57,0,0,0,8.78,4.92C291.93,122.73,294.59,111.4,289.94,105.35Z"/><path class="cls-10" d="M162.32,344.38a148,148,0,0,1-19.53-5.84c-5.33-2-11.56,2.23-13,7.36-1.63,5.92,2,11,7.37,13,1.32.49,2.65,1,4,1.42a9.45,9.45,0,0,0,6.25,2.93,10.34,10.34,0,0,0,5.16,1.27,12.16,12.16,0,0,0,2.31-.22l1.83.44a10.78,10.78,0,0,0,13-7.37C171.15,352.05,167.91,345.63,162.32,344.38Z"/><path class="cls-10" d="M76.41,291.23a6.09,6.09,0,0,0-3.59-2.76l-1.59-.22a6,6,0,0,0-3,.82l-.5.25a6,6,0,0,0,1.43,11l1.6.21a6,6,0,0,0,3-.81l.5-.25a6,6,0,0,0,2.15-8.21Z"/><path class="cls-10" d="M81.23,273.5a5.45,5.45,0,0,0-5,2.77C72.57,279.35,73.8,287,80,287a5.45,5.45,0,0,0,5-2.76C88.63,281.16,87.4,273.5,81.23,273.5Z"/><path class="cls-10" d="M311,141.75c-4,0-6,3.26-5.78,6.38-.17,3.12,1.75,6.37,5.78,6.37s5.95-3.25,5.78-6.37C316.93,145,315,141.75,311,141.75Z"/><path class="cls-10" d="M279,108.5c-7.72,0-7.74,12,0,12S286.71,108.5,279,108.5Z"/><path class="cls-10" d="M244.22,91.51A6.22,6.22,0,0,0,240,89.75h-.25a6.2,6.2,0,0,0-4.25,1.76,6,6,0,0,0,0,8.49,6.28,6.28,0,0,0,4.25,1.75H240a6,6,0,0,0,6-6A6.05,6.05,0,0,0,244.22,91.51Z"/><path class="cls-11" d="M168.56,324.59a17.44,17.44,0,0,0-8-12.78s-1.66-1.12-2.34-1.56L158,310c-3.49-4.42-5.89-8-11.88-9.5a80.86,80.86,0,0,0-8.35-.41l-1.47-2.19a18.7,18.7,0,0,0-7.43-6.5,23.78,23.78,0,0,0-19.3-18l-.4-.87a11.62,11.62,0,0,0-1.71-2.71A15.34,15.34,0,0,0,108,266a16.55,16.55,0,0,0-16.33-16.33,15.64,15.64,0,0,0-5.3.95,4.27,4.27,0,0,1-.33,4,48.6,48.6,0,0,0-5.75,13.78,2.66,2.66,0,0,1,2.15,2.11c1.18,4.83,2.86,10.56,6.47,14.16a2.91,2.91,0,0,1-.39,4.49,72.5,72.5,0,0,0,18.65,22.46,4.24,4.24,0,0,1,1.44,2c7.12,6.19,14.68,12,21.64,18.32a4.62,4.62,0,0,1,.9,1.07,27.41,27.41,0,0,0,3.62,0c.25.26.5.52.76.77a61.07,61.07,0,0,0,8.61,6.38,14.21,14.21,0,0,0,7.2,2.22,16.32,16.32,0,1,0,17.25-17.65Z"/><path class="cls-11" d="M307.45,294.22l.34.07c9.86-16.6,15.71-35.39,19.25-54.43a4.17,4.17,0,0,1,1.29-2.44c.08-2.78.15-5.56.18-8.34a12.92,12.92,0,0,0-7.71-2.49c-7.06,0-14.37,6.46-13.83,14.08.17,2.34.65.55-.16,2.61.46-1.18-1.37,2.1-1.63,2.44a75.65,75.65,0,0,1-6.13,6.32q-9.71,9.6-19.45,19.17c-12,11.84-24.16,22.93-30.47,39.1-2.76,7.07,3,15.46,9.66,17.32,7.86,2.2,14.23-2.74,17-9.83,2.39-6.12,7.67-11.14,12.21-15.69,4.16-4.17,8.36-8.29,12.56-12.41a13.9,13.9,0,0,0,3.59,3.1Z"/><path class="cls-10" d="M241.56,345.42a167.76,167.76,0,0,1-75.46,2,14,14,0,0,0-3.8-2.08,34.06,34.06,0,0,0-10.53-2c-5.52-.24-10.8,5-10.55,10.55a10.89,10.89,0,0,0,4.36,8.42,10.11,10.11,0,0,0,5.25,3.17,190.6,190.6,0,0,0,96.34.23C260.3,362.37,254.74,342,241.56,345.42Z"/><path class="cls-12" d="M148.69,340.81c1.29.57,2.54,1.22,3.81,1.86a11.44,11.44,0,0,0,1.73.83l1,.28a8,8,0,0,1,1.09.45l2.46.62a5,5,0,0,0-4-5.18,73.62,73.62,0,0,1-30.32-15.84,5.58,5.58,0,0,0-6.46-.76c5.29,3.11,10.61,6.15,15.06,10.46a4.8,4.8,0,0,1,.69.84,7.14,7.14,0,0,1,2.94,1.42,34.43,34.43,0,0,0,7.1,4.29A7.59,7.59,0,0,1,148.69,340.81Z"/><path class="cls-13" d="M295.35,298c-3.08-1.85-6.24-.4-8.21,2.15-1.36,1.75-2.74,3.45-4.16,5.08a6.42,6.42,0,0,0-1.5-.18c-4.44,0-6.32,4-5.67,7.33a53.36,53.36,0,0,1-7.25,5.26,155.65,155.65,0,0,1-22.79,11.08c-15.68,6.21-32.13,10-49,9.64a5.53,5.53,0,0,0-3.58,1.07A6.13,6.13,0,0,0,191,339a5.65,5.65,0,0,0-3.75,1.3,5.65,5.65,0,0,0-3.75-1.3c-7.72,0-7.74,12,0,12a5.66,5.66,0,0,0,3.75-1.29A5.63,5.63,0,0,0,191,351a5.74,5.74,0,0,0,3.55-1.12,6.52,6.52,0,0,0,2.2.43c19.17.41,37.93-4.1,55.56-11.43,8.69-3.61,17.48-7.6,25.34-12.82,8.07-5.36,14-12.31,19.87-19.91C299.5,303.57,297.87,299.46,295.35,298Z"/><g id="_Group_27" data-name="&lt;Group&gt;"><path class="cls-11" d="M310.94,157.1a58.28,58.28,0,0,1-4.56-6.27c-3.06-4.63-7.06-8.54-10.59-12.82-.43-.52-.86-1.06-1.29-1.6a21.2,21.2,0,0,0-2.28-1.62,4.34,4.34,0,0,1-2.22-4,64.61,64.61,0,0,0-6.44-7l-2.6-2a4.87,4.87,0,0,1-.77-.73,24.57,24.57,0,0,0-6-3.17,3,3,0,0,1-2-2.55c-7.9-4.25-15.5-9.1-23.64-12.76a2.39,2.39,0,0,1-1.82.06,61.25,61.25,0,0,0-9.25-3,2.68,2.68,0,0,1-1.92-1.51c-16.45-3.7-33.77-3.22-50.44-1.49C168,98.46,152,101.93,136.92,110.44c-11.59,6.53-18.86,17.09-27.68,26.48a3,3,0,0,1-2.76,4.12,3.24,3.24,0,0,1-1.12-.2c-.39.37-.77.74-1.17,1.1a4.45,4.45,0,0,1-4.21,1.14l-.12.16a2.8,2.8,0,0,1-.22.25c.14,3.19-1.67,6.45-5.41,7a84,84,0,0,0-4.6,11.92A4.32,4.32,0,0,1,86,165.63a6.41,6.41,0,0,1-1.52,2.06c-.33,1-.69,1.92-1.11,2.84a165.79,165.79,0,0,0,233.43-1.46A58.47,58.47,0,0,1,310.94,157.1Z"/><g id="_Group_28" data-name="&lt;Group&gt;"><g id="_Group_29" data-name="&lt;Group&gt;"><g id="_Group_30" data-name="&lt;Group&gt;"><path d="M297.76,258.41l8.74-4.77,15-25.61,5.93,6.79v1.93q.58-6.42.83-12.86l-8-9.19-19.39,33.11-8.1,4.42-41.58,48.82H235.7l-10.57,11.67L213,307.92,188,332l-.6-.22-17.35-18.33L156,297.83h-15l-17.45-24.65-8.43-4.6L91.31,233.15,79.62,263.83a2.34,2.34,0,0,1,.48.64,23.72,23.72,0,0,1,1.06,2.73,2.7,2.7,0,0,1,.08.41c2,5.48,4.21,10.9,6.27,16.36a17,17,0,0,1,1.19,2.24.36.36,0,0,1,0,.09,4.35,4.35,0,0,1,1,1.44c.45,1,.9,2.1,1.34,3.18l.25.38.07.06a2.54,2.54,0,0,1,1,1.47,31.7,31.7,0,0,0,3.14,3.88l2.65-17.53L87.7,258.47l5.89-6.31,15.78,22.25,11.88,5.23,15.61,26h15.62l11.87,13.12,17.86,18.85-4.08,3.94h-13l-2.61-5.93-13.12-9.37-12.52-8.45-21.72-1.06-5.9-4.29.57.74c3.24,2.95,6.8,5.52,10,8.54,2.54,2.38,4.9,4.81,7.45,7.07,2.58,1.62,5,3.43,7.58,5.1,2.13.81,4.26,1.59,6.33,2.47a153.23,153.23,0,0,0,30.46,9.42c1.17.23,2.36.44,3.55.65,11.51.48,23,1.52,34.52,1.22l2.67-.08a148.65,148.65,0,0,0,16.08-3.27,3.27,3.27,0,0,1,1.15-.08l71.49-43.77a2.87,2.87,0,0,1,.77-1.11c4.63-4.31,7-10.18,9.92-15.72l-20.59,5.47-36.38,26.57v-6.81Z"/><path class="cls-14" d="M297.76,258.41l8.74-4.77,15-25.61,5.93,6.79v1.93q.58-6.42.83-12.86l-8-9.19-19.39,33.11-8.1,4.42-41.58,48.82H235.7l-10.57,11.67L213,307.92,188,332l-.6-.22-17.35-18.33L156,297.83h-15l-17.45-24.65-8.43-4.6L91.31,233.15,79.62,263.83a2.34,2.34,0,0,1,.48.64,23.72,23.72,0,0,1,1.06,2.73,2.7,2.7,0,0,1,.08.41c2,5.48,4.21,10.9,6.27,16.36a17,17,0,0,1,1.19,2.24.36.36,0,0,1,0,.09,4.35,4.35,0,0,1,1,1.44c.45,1,.9,2.1,1.34,3.18l.25.38.07.06a2.54,2.54,0,0,1,1,1.47,31.7,31.7,0,0,0,3.14,3.88l2.65-17.53L87.7,258.47l5.89-6.31,15.78,22.25,11.88,5.23,15.61,26h15.62l11.87,13.12,17.86,18.85-4.08,3.94h-13l-2.61-5.93-13.12-9.37-12.52-8.45-21.72-1.06-5.9-4.29.57.74c3.24,2.95,6.8,5.52,10,8.54,2.54,2.38,4.9,4.81,7.45,7.07,2.58,1.62,5,3.43,7.58,5.1,2.13.81,4.26,1.59,6.33,2.47a153.23,153.23,0,0,0,30.46,9.42c1.17.23,2.36.44,3.55.65,11.51.48,23,1.52,34.52,1.22l2.67-.08a148.65,148.65,0,0,0,16.08-3.27,3.27,3.27,0,0,1,1.15-.08l71.49-43.77a2.87,2.87,0,0,1,.77-1.11c4.63-4.31,7-10.18,9.92-15.72l-20.59,5.47-36.38,26.57v-6.81Z"/><path class="cls-11" d="M322.77,261c1.66-4.42,1.56-9,2.28-13.56,0-.08,0-.14.05-.22l-.48-.46-6.87,11.64,1.61,10.65C320.49,266.38,321.75,263.75,322.77,261Z"/></g></g></g></g><path class="cls-11" d="M92.23,159.25c-7.72,0-7.74,12,0,12S100,159.25,92.23,159.25Z"/><path class="cls-11" d="M114.14,135a5.65,5.65,0,0,0-3.66-1.22c-6.81,0-7.62,9.33-2.42,11.54a5.73,5.73,0,0,0,3.67,1.21C118.54,146.5,119.35,137.18,114.14,135Z"/><circle class="cls-15" cx="200.07" cy="223.05" r="153.14"/><circle class="cls-16" cx="200.07" cy="223.05" r="128.06"/><g id="_Group_31" data-name="&lt;Group&gt;"><polygon id="_Path_17" data-name="&lt;Path&gt;" class="cls-11" points="342.9 220.84 340.57 213.68 338.25 220.84 330.72 220.84 336.81 225.26 334.48 232.43 340.57 228 346.67 232.43 344.34 225.26 350.43 220.84 342.9 220.84"/></g><g id="_Group_32" data-name="&lt;Group&gt;"><polygon id="_Path_18" data-name="&lt;Path&gt;" class="cls-11" points="340.08 251.25 337.76 244.09 335.43 251.25 327.9 251.25 334 255.68 331.67 262.83 337.76 258.41 343.85 262.83 341.52 255.68 347.61 251.25 340.08 251.25"/></g><g id="_Group_33" data-name="&lt;Group&gt;"><polygon id="_Path_19" data-name="&lt;Path&gt;" class="cls-11" points="331.07 278 328.75 270.84 326.42 278 318.89 278 324.98 282.42 322.66 289.58 328.75 285.16 334.84 289.58 332.51 282.42 338.6 278 331.07 278"/></g><g id="_Group_34" data-name="&lt;Group&gt;"><polygon id="_Path_20" data-name="&lt;Path&gt;" class="cls-11" points="316.43 302.21 314.11 295.05 311.78 302.21 304.25 302.21 310.34 306.64 308.02 313.8 314.11 309.37 320.2 313.8 317.87 306.64 323.96 302.21 316.43 302.21"/></g><g id="_Group_35" data-name="&lt;Group&gt;"><polygon id="_Path_21" data-name="&lt;Path&gt;" class="cls-11" points="337.74 187.64 335.42 180.48 333.09 187.64 325.56 187.64 331.65 192.06 329.33 199.22 335.42 194.8 341.51 199.22 339.18 192.06 345.27 187.64 337.74 187.64"/></g><g id="_Group_36" data-name="&lt;Group&gt;"><polygon id="_Path_22" data-name="&lt;Path&gt;" class="cls-11" points="327.1 157.3 324.77 150.14 322.44 157.3 314.92 157.3 321.01 161.73 318.68 168.89 324.77 164.46 330.86 168.89 328.53 161.73 334.63 157.3 327.1 157.3"/></g><g id="_Group_37" data-name="&lt;Group&gt;"><polygon id="_Path_23" data-name="&lt;Path&gt;" class="cls-11" points="296.24 323.47 293.91 316.31 291.59 323.47 284.06 323.47 290.15 327.89 287.82 335.06 293.91 330.63 300 335.06 297.68 327.89 303.77 323.47 296.24 323.47"/></g><g id="_Group_38" data-name="&lt;Group&gt;"><polygon id="_Path_24" data-name="&lt;Path&gt;" class="cls-11" points="109.49 323.47 107.16 316.31 104.84 323.47 97.31 323.47 103.4 327.89 101.07 335.06 107.16 330.63 113.25 335.06 110.93 327.89 117.02 323.47 109.49 323.47"/></g><g id="_Group_39" data-name="&lt;Group&gt;"><polygon id="_Path_25" data-name="&lt;Path&gt;" class="cls-11" points="88.99 302.22 86.66 295.06 84.34 302.22 76.81 302.22 82.9 306.64 80.57 313.81 86.66 309.38 92.75 313.81 90.43 306.64 96.52 302.22 88.99 302.22"/></g><g id="_Group_40" data-name="&lt;Group&gt;"><polygon id="_Path_26" data-name="&lt;Path&gt;" class="cls-11" points="74.08 278 71.75 270.84 69.42 278 61.89 278 67.98 282.42 65.66 289.58 71.75 285.16 77.84 289.58 75.51 282.42 81.6 278 74.08 278"/></g><g id="_Group_41" data-name="&lt;Group&gt;"><polygon id="_Path_27" data-name="&lt;Path&gt;" class="cls-11" points="65.24 251.22 62.91 244.06 60.59 251.22 53.06 251.22 59.15 255.65 56.82 262.81 62.91 258.38 69 262.81 66.68 255.65 72.77 251.22 65.24 251.22"/></g><g id="_Group_42" data-name="&lt;Group&gt;"><polygon id="_Path_28" data-name="&lt;Path&gt;" class="cls-11" points="62.24 220.97 59.91 213.81 57.59 220.97 50.06 220.97 56.15 225.4 53.82 232.56 59.91 228.13 66 232.56 63.68 225.4 69.77 220.97 62.24 220.97"/></g><g id="_Group_43" data-name="&lt;Group&gt;"><polygon id="_Path_29" data-name="&lt;Path&gt;" class="cls-11" points="66.99 187.72 64.66 180.56 62.34 187.72 54.81 187.72 60.9 192.15 58.57 199.31 64.66 194.88 70.75 199.31 68.43 192.15 74.52 187.72 66.99 187.72"/></g><g id="_Group_44" data-name="&lt;Group&gt;"><polygon id="_Path_30" data-name="&lt;Path&gt;" class="cls-11" points="77.24 157.47 74.91 150.31 72.59 157.47 65.06 157.47 71.15 161.9 68.82 169.06 74.91 164.63 81 169.06 78.68 161.9 84.77 157.47 77.24 157.47"/></g><g id="_Group_45" data-name="&lt;Group&gt;"><path id="_Path_31" data-name="&lt;Path&gt;" class="cls-11" d="M96.16,375.87c70.14,21.55,137.66,21.55,207.82,0V338.24c-70.16,21.54-137.67,21.54-207.82,0Z"/><g id="_Group_46" data-name="&lt;Group&gt;"><path id="_Compound_Path_10" data-name="&lt;Compound Path&gt;" class="cls-10" d="M307.32,379.54c-72.38,23.07-142.14,23.06-214.5,0a2,2,0,0,1-1.41-1.93V334.43A2,2,0,0,1,94,332.52c71.53,22.55,140.53,22.56,212.08,0a2,2,0,0,1,2.62,1.91v43.18A2,2,0,0,1,307.32,379.54ZM97.59,376.31c69.16,21,135.79,21,205,0a2,2,0,0,0,1.43-1.94V341a2,2,0,0,0-2.59-1.93c-68.37,20.5-134.28,20.5-202.64,0A2,2,0,0,0,96.16,341v33.42A2,2,0,0,0,97.59,376.31Z"/></g><g id="_Group_47" data-name="&lt;Group&gt;"><g id="_Group_48" data-name="&lt;Group&gt;"><path id="_Path_32" data-name="&lt;Path&gt;" class="cls-10" d="M92.59,340.14s.37,0,1,0c.32,0,.72.05,1.18.1l.72.07a6,6,0,0,1,.81.28c2.25.77,5.25,1.76,8.27,2.7s6,1.83,8.32,2.47a5.56,5.56,0,0,1,.82.25l.73.39,1.2.64c.67.35,1,.58,1,.58s-.38,0-1,0l-1.2,0-.73,0a4.5,4.5,0,0,1-.82-.21c-2.28-.64-5.31-1.53-8.32-2.47s-6-1.94-8.27-2.7c-.28-.12-.55-.14-.81-.28l-.72-.44c-.46-.26-.86-.52-1.18-.72C93,340.4,92.59,340.14,92.59,340.14Z"/></g><g id="_Group_49" data-name="&lt;Group&gt;"><path id="_Path_33" data-name="&lt;Path&gt;" class="cls-10" d="M92.59,344.61l1,.05c.32,0,.72,0,1.18.1l.72.07a7.68,7.68,0,0,1,.81.27c2.25.77,5.25,1.77,8.27,2.71s6,1.82,8.32,2.47a4.55,4.55,0,0,1,.82.24l.73.4,1.2.63c.67.36,1,.59,1,.59s-.38,0-1,0l-1.2,0-.73,0a4.5,4.5,0,0,1-.82-.21c-2.28-.65-5.31-1.54-8.32-2.48s-6-1.93-8.27-2.7a7,7,0,0,1-.81-.28L94.8,346c-.46-.27-.86-.52-1.18-.73C93,344.88,92.59,344.61,92.59,344.61Z"/></g><g id="_Group_50" data-name="&lt;Group&gt;"><path id="_Path_34" data-name="&lt;Path&gt;" class="cls-10" d="M92.59,349.09l1,.05c.32,0,.72.05,1.18.1l.72.07a7.68,7.68,0,0,1,.81.27c2.25.77,5.25,1.76,8.27,2.7s6,1.83,8.32,2.47a5.56,5.56,0,0,1,.82.25l.73.39,1.2.64c.67.36,1,.59,1,.59s-.38,0-1,0l-1.2,0h-.73a4.56,4.56,0,0,1-.82-.22c-2.28-.64-5.31-1.53-8.32-2.47s-6-1.93-8.27-2.7a7,7,0,0,1-.81-.28l-.72-.43c-.46-.27-.86-.52-1.18-.73C93,349.35,92.59,349.09,92.59,349.09Z"/></g><g id="_Group_51" data-name="&lt;Group&gt;"><path id="_Path_35" data-name="&lt;Path&gt;" class="cls-10" d="M92.59,353.57s.37,0,1,.05c.32,0,.72,0,1.18.09l.72.07a7.83,7.83,0,0,1,.81.28c2.25.77,5.25,1.76,8.27,2.7s6,1.83,8.32,2.47a5.56,5.56,0,0,1,.82.25l.73.39,1.2.64c.67.35,1,.58,1,.58s-.38,0-1,0l-1.2,0-.73,0a4.5,4.5,0,0,1-.82-.21c-2.28-.64-5.31-1.53-8.32-2.47s-6-1.94-8.27-2.7c-.28-.12-.55-.14-.81-.28L94.8,355c-.46-.26-.86-.51-1.18-.72C93,353.83,92.59,353.57,92.59,353.57Z"/></g><g id="_Group_52" data-name="&lt;Group&gt;"><path id="_Path_36" data-name="&lt;Path&gt;" class="cls-10" d="M92.59,358l1,0c.32,0,.72.05,1.18.1l.72.07a7.68,7.68,0,0,1,.81.27c2.25.77,5.25,1.77,8.27,2.71s6,1.83,8.32,2.47a4.55,4.55,0,0,1,.82.24l.73.4,1.2.63c.67.36,1,.59,1,.59s-.38,0-1,0l-1.2,0-.73,0a4.5,4.5,0,0,1-.82-.21c-2.28-.65-5.31-1.54-8.32-2.48s-6-1.93-8.27-2.7a7,7,0,0,1-.81-.28l-.72-.43c-.46-.27-.86-.52-1.18-.73C93,358.31,92.59,358,92.59,358Z"/></g><g id="_Group_53" data-name="&lt;Group&gt;"><path id="_Path_37" data-name="&lt;Path&gt;" class="cls-10" d="M92.59,362.52l1,.05c.32,0,.72.05,1.18.1l.72.07a7.68,7.68,0,0,1,.81.27c2.25.77,5.25,1.76,8.27,2.7s6,1.83,8.32,2.47a5.56,5.56,0,0,1,.82.25l.73.39,1.2.64c.67.36,1,.59,1,.59s-.38,0-1,0l-1.2,0h-.73a4.56,4.56,0,0,1-.82-.22c-2.28-.64-5.31-1.53-8.32-2.47s-6-1.93-8.27-2.7a7,7,0,0,1-.81-.28l-.72-.43c-.46-.27-.86-.52-1.18-.73C93,362.78,92.59,362.52,92.59,362.52Z"/></g><g id="_Group_54" data-name="&lt;Group&gt;"><path id="_Path_38" data-name="&lt;Path&gt;" class="cls-10" d="M92.59,367s.37,0,1,.05c.32,0,.72,0,1.18.09l.72.08a5.91,5.91,0,0,1,.81.27c2.25.77,5.25,1.76,8.27,2.7s6,1.83,8.32,2.47a5.56,5.56,0,0,1,.82.25l.73.39,1.2.64c.67.35,1,.58,1,.58s-.38,0-1,0l-1.2,0-.73,0a4.5,4.5,0,0,1-.82-.21c-2.28-.64-5.31-1.53-8.32-2.47s-6-1.94-8.27-2.7c-.28-.12-.55-.14-.81-.28l-.72-.44c-.46-.26-.86-.51-1.18-.72C93,367.26,92.59,367,92.59,367Z"/></g><g id="_Group_55" data-name="&lt;Group&gt;"><g id="_Group_56" data-name="&lt;Group&gt;"><path class="cls-10" d="M92.59,371.48s.37,0,1,0c.32,0,.72.05,1.18.1l.72.07a6,6,0,0,1,.81.28c2.25.76,5.25,1.76,8.27,2.7s6,1.83,8.32,2.47a4.55,4.55,0,0,1,.82.24l.73.4,1.2.63c.67.36,1,.59,1,.59s-.38,0-1,0l-1.2,0-.73,0a4.5,4.5,0,0,1-.82-.21c-2.28-.65-5.31-1.53-8.32-2.48s-6-1.93-8.27-2.7a7,7,0,0,1-.81-.28l-.72-.43c-.46-.27-.86-.52-1.18-.73C93,371.74,92.59,371.48,92.59,371.48Z"/></g></g></g><g id="_Group_57" data-name="&lt;Group&gt;"><g id="_Group_58" data-name="&lt;Group&gt;"><path id="_Path_39" data-name="&lt;Path&gt;" class="cls-10" d="M307.56,340.14l-1,.68c-.33.2-.73.46-1.18.72l-.73.44a8.32,8.32,0,0,1-.8.28c-2.25.76-5.26,1.76-8.27,2.7s-6.05,1.83-8.33,2.47a4.4,4.4,0,0,1-.81.21l-.74,0-1.2,0c-.66,0-1,0-1,0s.38-.23,1-.59l1.2-.63.74-.4a6.91,6.91,0,0,1,.81-.24c2.28-.64,5.31-1.53,8.33-2.47s6-1.93,8.27-2.7a6.42,6.42,0,0,1,.8-.28l.73-.07c.45,0,.85-.07,1.18-.1C307.18,340.14,307.56,340.14,307.56,340.14Z"/></g><g id="_Group_59" data-name="&lt;Group&gt;"><path id="_Path_40" data-name="&lt;Path&gt;" class="cls-10" d="M307.56,344.61s-.38.27-1,.68l-1.18.73-.73.43a6.27,6.27,0,0,1-.8.28c-2.25.77-5.26,1.76-8.27,2.7s-6.05,1.83-8.33,2.48a5.38,5.38,0,0,1-.81.21l-.74,0-1.2,0c-.66,0-1,0-1,0s.38-.23,1-.59l1.2-.63.74-.4a4.45,4.45,0,0,1,.81-.24c2.28-.65,5.31-1.53,8.33-2.47s6-1.94,8.27-2.71a8.39,8.39,0,0,1,.8-.27l.73-.07c.45-.05.85-.08,1.18-.1Z"/></g><g id="_Group_60" data-name="&lt;Group&gt;"><path id="_Path_41" data-name="&lt;Path&gt;" class="cls-10" d="M307.56,349.09l-1,.68c-.33.21-.72.46-1.18.73l-.73.43a6.27,6.27,0,0,1-.8.28c-2.25.77-5.26,1.76-8.27,2.7s-6.05,1.83-8.33,2.47a4.46,4.46,0,0,1-.81.22h-.74l-1.2,0c-.66,0-1,0-1,0s.38-.23,1-.59l1.2-.64.74-.39a5.44,5.44,0,0,1,.81-.25c2.28-.64,5.31-1.53,8.33-2.47s6-1.93,8.27-2.7a8.39,8.39,0,0,1,.8-.27l.73-.07c.46-.05.85-.08,1.18-.1Z"/></g><g id="_Group_61" data-name="&lt;Group&gt;"><path id="_Path_42" data-name="&lt;Path&gt;" class="cls-10" d="M307.56,353.57l-1,.68c-.33.21-.72.46-1.18.72l-.73.44a8.32,8.32,0,0,1-.8.28c-2.25.76-5.26,1.76-8.27,2.7s-6.05,1.83-8.33,2.47a4.4,4.4,0,0,1-.81.21l-.74,0-1.2,0c-.66,0-1,0-1,0s.38-.23,1-.58l1.2-.64.74-.39a5.44,5.44,0,0,1,.81-.25c2.28-.64,5.31-1.53,8.33-2.47s6-1.93,8.27-2.7c.28-.07.55-.25.8-.28l.73-.07c.46,0,.85-.07,1.18-.09C307.18,353.57,307.56,353.57,307.56,353.57Z"/></g><g id="_Group_62" data-name="&lt;Group&gt;"><path id="_Path_43" data-name="&lt;Path&gt;" class="cls-10" d="M307.56,358s-.38.27-1,.68c-.33.21-.72.46-1.18.73l-.73.43a6.27,6.27,0,0,1-.8.28c-2.25.77-5.26,1.76-8.27,2.7s-6.05,1.83-8.33,2.48a4.4,4.4,0,0,1-.81.21l-.74,0-1.2,0c-.66,0-1,0-1,0s.38-.23,1-.59l1.2-.63.74-.4a4.45,4.45,0,0,1,.81-.24c2.28-.64,5.31-1.53,8.33-2.47s6-1.94,8.27-2.71a8.39,8.39,0,0,1,.8-.27l.73-.07c.46-.05.85-.08,1.18-.1Z"/></g><g id="_Group_63" data-name="&lt;Group&gt;"><path id="_Path_44" data-name="&lt;Path&gt;" class="cls-10" d="M307.56,362.52l-1,.68c-.33.21-.72.46-1.18.73l-.73.43a6.27,6.27,0,0,1-.8.28c-2.25.77-5.26,1.76-8.27,2.7s-6.05,1.83-8.33,2.47a4.46,4.46,0,0,1-.81.22h-.74l-1.2,0c-.66,0-1,0-1,0s.38-.23,1-.59l1.2-.64.74-.39a5.44,5.44,0,0,1,.81-.25c2.28-.64,5.31-1.53,8.33-2.47s6-1.93,8.27-2.7a8.39,8.39,0,0,1,.8-.27l.73-.07c.46-.05.85-.08,1.18-.1Z"/></g><g id="_Group_64" data-name="&lt;Group&gt;"><path id="_Path_45" data-name="&lt;Path&gt;" class="cls-10" d="M307.56,367l-1,.68c-.33.21-.73.46-1.18.72l-.73.44a8.32,8.32,0,0,1-.8.28c-2.25.76-5.26,1.76-8.27,2.7s-6.05,1.83-8.33,2.47a4.4,4.4,0,0,1-.81.21l-.74,0-1.2,0c-.66,0-1,0-1,0s.38-.23,1-.58l1.2-.64.74-.39a5.44,5.44,0,0,1,.81-.25c2.28-.64,5.31-1.53,8.33-2.47s6-1.93,8.27-2.7c.28-.07.55-.25.8-.28l.73-.07c.45-.05.85-.07,1.18-.09C307.18,367,307.56,367,307.56,367Z"/></g><g id="_Group_65" data-name="&lt;Group&gt;"><path id="_Path_46" data-name="&lt;Path&gt;" class="cls-10" d="M307.56,371.47s-.38.27-1,.68l-1.18.73-.73.43a6.27,6.27,0,0,1-.8.28c-2.25.77-5.26,1.76-8.27,2.7s-6.05,1.83-8.33,2.48a4.4,4.4,0,0,1-.81.21l-.74,0-1.2,0c-.66,0-1,0-1,0s.38-.23,1-.59l1.2-.63.74-.4a4.45,4.45,0,0,1,.81-.24c2.28-.64,5.31-1.53,8.33-2.47s6-1.94,8.27-2.7a6.42,6.42,0,0,1,.8-.28l.73-.07c.45-.05.85-.08,1.18-.1Z"/></g></g></g><path class="cls-10" d="M126.94,366.22,125.8,372l5.8,1.15-.38,1.94-9.65-1.9,3.43-17.4,9.65,1.9-.38,1.93-5.8-1.15-1.14,5.78,3.87.77-.38,2Z"/><path class="cls-10" d="M137.56,376.18l-1.94-.29,2.58-17.55.91.14,9.27,11.73,1.49-10.15,2,.29-2.58,17.55-.93-.14-9.26-11.83Z"/><path class="cls-10" d="M166,363.79l-3.92-.4-1.61,15.7-3.9-.4,1.6-15.7-3.93-.4.2-1.95,11.76,1.2Z"/><path class="cls-10" d="M171.87,372.13l-.39,5.88,5.9.39-.13,2-9.82-.65,1.18-17.7,9.82.65-.13,2-5.9-.39-.4,5.87,3.95.26-.14,2Z"/><path class="cls-10" d="M182.11,362.88l7.87.23a4.48,4.48,0,0,1,1.61.33,3.5,3.5,0,0,1,1.22.84,3.43,3.43,0,0,1,.76,1.28,4.65,4.65,0,0,1,.22,1.61l0,1.71a3.56,3.56,0,0,1-.38,1.63,3.28,3.28,0,0,1-.75.95,3.34,3.34,0,0,1-1.07.55,3.52,3.52,0,0,1,1,.72,4.3,4.3,0,0,1,.69,1.07,3.61,3.61,0,0,1,.28,1.67l-.16,5.49-3.92-.12.23-7.87-3.95-.12-.23,7.87-3.93-.11Zm7.64,8.08.17-5.91-3.94-.12-.18,5.91Z"/><path class="cls-10" d="M202.19,373.09l.08,7.88-3.93,0-.17-17.73,7.87-.08a3.7,3.7,0,0,1,1.45.28,4.07,4.07,0,0,1,1.27.82,3.84,3.84,0,0,1,.9,1.24,3.72,3.72,0,0,1,.35,1.57l0,2a3.73,3.73,0,0,1-.3,1.45,4.26,4.26,0,0,1-.82,1.27,4.14,4.14,0,0,1-1.24.91,3.32,3.32,0,0,1-1.53.36Zm3.93-2-.06-5.94-3.95,0,.06,5.94Z"/><path class="cls-10" d="M213.36,363.05l7.87-.37a4.27,4.27,0,0,1,1.63.21,3.47,3.47,0,0,1,1.28.74,3.44,3.44,0,0,1,.85,1.22,4.51,4.51,0,0,1,.35,1.59l.08,1.7a3.57,3.57,0,0,1-.25,1.66,2.89,2.89,0,0,1-1.7,1.63,3.48,3.48,0,0,1,1.08.65,3.76,3.76,0,0,1,.77,1,3.51,3.51,0,0,1,.41,1.65l.26,5.48-3.92.19-.37-7.87-3.95.19.38,7.87-3.92.18Zm8.24,7.47-.28-5.9-3.94.19.28,5.9Z"/><path class="cls-10" d="M231.52,379.79l-1.43-17.68,3.91-.31,1.44,17.68Z"/><path class="cls-10" d="M240.14,365.26a3.89,3.89,0,0,1,.13-1.6,4,4,0,0,1,.73-1.35,3.85,3.85,0,0,1,1.19-1,4.27,4.27,0,0,1,1.55-.49l1.67-.19a3.86,3.86,0,0,1,1.59.14,4.28,4.28,0,0,1,1.38.7,4,4,0,0,1,1,1.14,3.65,3.65,0,0,1,.49,1.48l-1.92.22a1.84,1.84,0,0,0-.8-1.39,2.59,2.59,0,0,0-1.81-.33l-1.55.18.32,2.77a1.47,1.47,0,0,0,.53.8c.33.29.73.61,1.21,1s1,.73,1.55,1.12,1.07.81,1.56,1.24a9,9,0,0,1,1.24,1.33,2.92,2.92,0,0,1,.61,1.4l.16,1.43a4.06,4.06,0,0,1-.79,2.91,3.85,3.85,0,0,1-1.17,1,4,4,0,0,1-1.6.5l-1.64.19a4,4,0,0,1-1.62-.13,4.12,4.12,0,0,1-1.4-.71,4,4,0,0,1-1-1.16,3.81,3.81,0,0,1-.5-1.5l2-.23a1.94,1.94,0,0,0,.74,1.39,2,2,0,0,0,1.58.39l1.79-.2-.33-2.87a1.73,1.73,0,0,0-.55-.92,10.41,10.41,0,0,0-1.22-1c-.47-.36-1-.73-1.55-1.12s-1.08-.78-1.57-1.19a10.27,10.27,0,0,1-1.24-1.22,2.47,2.47,0,0,1-.58-1.26Z"/><path class="cls-10" d="M258.46,368.82l.9,5.82,5.84-.91.31,2-9.72,1.51-2.73-17.52,9.72-1.52.3,1.94-5.84.91.91,5.82,3.9-.6.31,2Z"/><path class="cls-10" d="M267.17,361.45a3.8,3.8,0,0,1,0-1.61,4,4,0,0,1,.61-1.41,4,4,0,0,1,1.11-1.09,4.13,4.13,0,0,1,1.5-.61l1.65-.33a3.87,3.87,0,0,1,1.59,0,4.41,4.41,0,0,1,1.43.59,3.77,3.77,0,0,1,1.72,2.49l-1.9.38a1.84,1.84,0,0,0-.91-1.33,2.66,2.66,0,0,0-1.83-.18l-1.53.31.55,2.74a1.42,1.42,0,0,0,.6.75c.35.26.77.55,1.28.86l1.63,1c.58.35,1.14.72,1.66,1.1a9,9,0,0,1,1.35,1.23,3,3,0,0,1,.72,1.34l.28,1.41a4,4,0,0,1-1.63,4.08,4.2,4.2,0,0,1-1.55.64l-1.63.32a4.07,4.07,0,0,1-1.63,0,4.25,4.25,0,0,1-1.44-.59,4.18,4.18,0,0,1-1.11-1.07,3.81,3.81,0,0,1-.61-1.46l1.95-.39a2,2,0,0,0,.85,1.33,2.13,2.13,0,0,0,1.61.26l1.76-.36-.57-2.83a1.6,1.6,0,0,0-.62-.87,11.4,11.4,0,0,0-1.29-.94c-.51-.32-1.06-.64-1.65-1s-1.14-.7-1.66-1.06a9.56,9.56,0,0,1-1.33-1.12,2.47,2.47,0,0,1-.69-1.2Z"/><g id="_Group_66" data-name="&lt;Group&gt;"><path id="_Compound_Path_11" data-name="&lt;Compound Path&gt;" d="M100.45,344.65A24,24,0,0,1,97,344.4a47,47,0,0,1-11-3.17,118.7,118.7,0,0,0-16.38-5.37,5.55,5.55,0,0,1-4.26-4.56,5.49,5.49,0,0,1,2.71-5.64l69.46-40c-.4-1.8-.86-3.68-1.37-5.61-2-7.47-5.47-18.83-7.76-26.11-23.36,12.91-39.1,22.21-39.26,22.3-1,.59-6.48,3.42-16.28,3.42a56.89,56.89,0,0,1-7.68-.55,71.2,71.2,0,0,1-12.28-2.88l-5.63-1.82a3.08,3.08,0,0,1-.45-5.67l5.26-2.7c.6-.3,8.67-4.45,21.27-11.08l-17.75-2.45a5.6,5.6,0,0,1-4.91-5.29,5.54,5.54,0,0,1,2.62-4.92c1.81-1.15,3.7-2.32,5.52-3.45l1.14-.7c2.3-1.44,4.69-2.87,6.74-4.1l6.73-4c1.65-1,3.32-2,5-2.93l1.82-1.06c2.38-1.4,4.8-2.76,6.88-3.94l.68-.38c1-.53,1.94-1.08,3-1.62l.47-.21L77.22,174.33a5.5,5.5,0,0,1,3.65-6.92,5.87,5.87,0,0,1,1.68-.25l13.88-.24a5,5,0,0,1,.83.06,5.51,5.51,0,0,1,3.31,1.74l27.26,29.75,19.29-10.79a22.6,22.6,0,0,1,10.56-2.87l17.23-.36a6.42,6.42,0,0,1,.84.05,5.54,5.54,0,0,1,4.69,4.5,5.41,5.41,0,0,1-.58,3.57l9.41-1.89c21.25-12.71,37.5-23.31,48.31-31.49,48.45-36.67,68.64-52.32,68.8-52.44l.71-.55.81-.29c2.08-.75,12.9-4.45,22.83-4.45a32.53,32.53,0,0,1,4.44.28c5.68.79,9.69,3.18,11.92,7.11l2.24,4-3.43,3c-.74.63-17.74,15.22-41.14,33.24.34,3.22,1,9.2,1.7,15.34a5.43,5.43,0,0,1,2.2-.92c1.75-.32,17.27-3.09,26.58-3.63.73,0,1.44-.06,2.14-.06a29.43,29.43,0,0,1,4.18.28c7.73,1.06,11.82,5.11,13.07,8.54a5.5,5.5,0,0,1-1.5,6c-4.64,4.16-27.5,24.64-40.35,35.3a12,12,0,0,1,.86.89,52.8,52.8,0,0,1,9.22-5.59,29.51,29.51,0,0,1,12.31-2.48,35.94,35.94,0,0,1,4.75.32c.72.1,1.12.19,1.12.19l2.39.48.81,2.31,2.45,7-2.2,1.92c-.44.38-10.61,9.14-23.38,10.89a13.13,13.13,0,0,1-3.54,7.49,16.62,16.62,0,0,1-5.13,3.64c4.92,1.68,8.54,4.74,10.13,8.66a12.51,12.51,0,0,1-1.51,11.94,16.42,16.42,0,0,1-4.88,4.67,8.5,8.5,0,0,1-1.94,4.06c-1.73,2-4.28,3-7.56,3.14h-.52a15.3,15.3,0,0,1-2.07-.14,10.29,10.29,0,0,1-7.87-5.2,111.69,111.69,0,0,1-14.67-7.13c-8.62,5.19-15.61,8.38-21.34,9.74-.81.2-1.65.37-2.51.52l-6.14,20.74c5.58,3.78,10.14,9.82,8.65,14.85-1.3,4.39-7.85,11.19-15.15,11.85-.47,0-1,.06-1.48.06a21.32,21.32,0,0,1-2.91-.21c-6.69-.92-14.29-4.72-17.25-6.3l-.9-.48c-5.52-2.94-12.39-6.59-12.16-12.9.1-2.5,1.4-6,7.09-8.5,4.12-1.82,9.36-2.74,15.55-2.74,1.79,0,3.63.08,5.49.23l4-16.4c-1.7-.25-3.14-.55-4.21-.81L109.15,342A13.63,13.63,0,0,1,100.45,344.65Zm41.61-98.14c1.62,6.74,5,20.43,8.14,31.92l36.45-21-43.48-11.56ZM251.18,204l8.56.14,33-27.77c-.52-4.34-1.19-10.11-2-16.84-15.66,11.66-30.51,22-44.19,30.79a14.4,14.4,0,0,0,1.6,8.7C249.18,200.69,250.16,202.36,251.18,204Z"/><g id="_Group_67" data-name="&lt;Group&gt;"><g id="_Group_68" data-name="&lt;Group&gt;"><g id="_Group_69" data-name="&lt;Group&gt;"><g id="_Group_70" data-name="&lt;Group&gt;"><path id="_Compound_Path_12" data-name="&lt;Compound Path&gt;" d="M97.29,342.57a45.24,45.24,0,0,1-10.56-3.05,119.13,119.13,0,0,0-16.67-5.46,3.73,3.73,0,0,1-2.85-3A3.66,3.66,0,0,1,69,327.27l70.64-40.64c-.48-2.23-1-4.58-1.68-7-2.2-8.37-6.34-21.62-8.47-28.35C105,264.79,88.4,274.59,88.23,274.69c-.87.5-8.57,4.59-22.76,2.63a69.48,69.48,0,0,1-12-2.81l-5.62-1.82a1.23,1.23,0,0,1-.18-2.26l5.26-2.7c.27-.14,26.3-13.49,59.77-31.64l-1.53-.27L77.23,253a3.69,3.69,0,0,1-2.17.36l-19.17-2.65a3.8,3.8,0,0,1-3.33-3.52,3.72,3.72,0,0,1,1.75-3.29c1.82-1.16,3.7-2.32,5.53-3.45l1.13-.7c2.3-1.43,4.68-2.86,6.73-4.09l6.72-4q2.56-1.53,5.14-3l1.64-1c2.37-1.39,4.78-2.75,6.86-3.92l.67-.37c.93-.52,1.89-1.05,3-1.58a4.79,4.79,0,0,1,.49-.21l.12,0a4.43,4.43,0,0,1,.66-.18l.72-.14L79,173.78a3.67,3.67,0,0,1,2.45-4.6,3.73,3.73,0,0,1,1.15-.17l13.85-.24a3.73,3.73,0,0,1,.57,0A3.68,3.68,0,0,1,99.21,170l28.25,30.83L148,189.29a20.8,20.8,0,0,1,9.69-2.63l17.2-.36a3.73,3.73,0,0,1,3.7,3,3.83,3.83,0,0,1-1.4,3.6l-3.32,2.72,16-3.22c21.45-12.83,37.85-23.51,48.75-31.77,48.54-36.74,68.65-52.32,68.83-52.46l.47-.36.54-.19c1.59-.57,15.82-5.54,26.39-4.08,5.08.71,8.63,2.79,10.56,6.19l1.5,2.63-2.29,2c-.17.15-17.52,15.09-41.88,33.81.47,4.48,1.35,12.59,2.22,19.88l2.16-1.93a3.63,3.63,0,0,1,1.8-.88c.16,0,16.76-3.05,26.36-3.6a30.47,30.47,0,0,1,6,.2c6.91,1,10.52,4.42,11.58,7.34a3.65,3.65,0,0,1-1,4c-3.2,2.88-29.33,26.32-42.05,36.7a11.86,11.86,0,0,1,3.46,3.48,51.46,51.46,0,0,1,10.33-6.51c6.41-2.94,13.35-2.39,16-2,.64.09,1,.16,1,.16l1.37.28.47,1.32,2,5.81-1.25,1.09c-.48.41-11,9.49-23.93,10.63a11.17,11.17,0,0,1-3.13,7.88c-2.25,2.41-5.55,4.05-9.8,4.9l-.5.55c.47,0,.93.09,1.4.16.62.08,1.24.19,1.85.32,5.78,1.23,10,4.26,11.68,8.33a10.7,10.7,0,0,1-1.32,10.22,15,15,0,0,1-5.06,4.57,6.8,6.8,0,0,1-1.62,4,8.21,8.21,0,0,1-6.23,2.51,12.84,12.84,0,0,1-2.27-.11,8.32,8.32,0,0,1-6.8-4.85,110.64,110.64,0,0,1-16-7.79c-8.89,5.42-16,8.72-21.75,10.08-1.14.28-2.32.5-3.52.68l-6.87,23.19c5.64,3.39,10.33,9.19,9.05,13.51-1.13,3.81-7.11,10-13.55,10.54a17.49,17.49,0,0,1-4-.14c-6.39-.88-13.76-4.56-16.63-6.1l-.9-.48c-5.06-2.69-11.37-6.05-11.18-11.21.11-2.86,2.12-5.17,6-6.87,7.13-3.13,16.5-2.76,21.71-2.2l4.94-20c-.58-.06-1.16-.13-1.73-.21a41.93,41.93,0,0,1-5.06-1l-130,75.91C106.35,341.93,103.08,343.37,97.29,342.57Zm42.64-97c1.67,7,5.57,23,9.13,35.65l42.4-24.39-48.53-12.89Zm97.23-44.06a29,29,0,0,0-3.11,4.24,24.47,24.47,0,0,0,4.72-.11C238.31,204.33,237.74,202.83,237.16,201.51Zm7.74-12.25A16.77,16.77,0,0,0,246.63,200c1.12,1.93,2.29,3.91,3.5,5.89,2.16,0,5.83.08,10.27.16l34.33-28.86c-.6-5.07-1.45-12.37-2.44-21C275.43,168.79,259.51,179.91,244.9,189.26Zm-20.58,12.5.21.38a8.43,8.43,0,0,0,1-1.08Z"/></g></g><g id="_Group_71" data-name="&lt;Group&gt;"><g id="_Group_72" data-name="&lt;Group&gt;"><g id="_Group_73" data-name="&lt;Group&gt;"><path class="cls-11" d="M340.64,111.36c-5.17-6.27-23.23-1.65-30.26.85-2,1.52-22.55,17.42-68.72,52.37C197,198.4,77.41,260.63,57.9,270.71c14.51,4.05,23.61,1.47,26.68.26l-.28-.34a11.42,11.42,0,0,0-.92-.83,6.65,6.65,0,0,0-.58-.42,7.19,7.19,0,0,0-.68-.41,5.23,5.23,0,0,0-.75-.37,6.86,6.86,0,0,0-.83-.34,8.07,8.07,0,0,0-.87-.29,8.23,8.23,0,0,0-.93-.25l-.51-.11-.26-.06h-.09l-.13,0-1-.16c-.67-.07-1.35-.14-2-.17s-1.33,0-2,0-1.27.08-1.87.13-1.15.14-1.66.23c-1,.19-1.9.38-2.49.55s-.93.28-.93.28a8.58,8.58,0,0,1,.84-.51A17,17,0,0,1,69,266.78c.51-.18,1.07-.37,1.67-.54a8.42,8.42,0,0,1,.93-.24c.32-.08.65-.14,1-.2s.68-.12,1-.16.7-.09,1.06-.11c.72-.06,1.46-.06,2.2,0l1.11.07h.3l.27,0,.52.07c.33,0,.71.12,1.08.19s.73.17,1.07.27a8.44,8.44,0,0,1,1,.35,7.21,7.21,0,0,1,.94.41,8.88,8.88,0,0,1,.87.46c.28.16.53.34.78.51A10,10,0,0,1,86.09,269a9.43,9.43,0,0,1,.71.87c8.1-4.75,61.79-36,116.58-62.53C259.09,180.35,332.05,118.7,340.64,111.36Z"/></g></g><g id="_Group_74" data-name="&lt;Group&gt;"><g id="_Group_75" data-name="&lt;Group&gt;"><path class="cls-17" d="M310.38,112.21c-1.28,1-10.51,8.12-29.6,22.67,2,.77,3.89,3.12,3.32,9.48C283,156.35,98.21,256,79.91,265.82l.27.05c.37.07.73.17,1.07.27a8.44,8.44,0,0,1,1,.35,7.21,7.21,0,0,1,.94.41,8.88,8.88,0,0,1,.87.46c.28.16.53.34.78.51A10,10,0,0,1,86.09,269a9.43,9.43,0,0,1,.71.87c8.1-4.75,61.79-36,116.58-62.53,55.71-27,128.67-88.6,137.26-95.94C335.47,105.09,317.41,109.71,310.38,112.21Z"/></g></g><g id="_Group_76" data-name="&lt;Group&gt;"><g id="_Group_77" data-name="&lt;Group&gt;"><path class="cls-11" d="M215.85,206.59l-2.1-1.81c-3.14,1.67-6.24,3.26-9.3,4.73-6,2.93-12.07,5.91-18,8.91L189,229.8l5,.56a23.78,23.78,0,0,1,5.35-13C204,211.6,212.06,208,215.85,206.59Z"/></g></g><g id="_Group_78" data-name="&lt;Group&gt;"><g id="_Group_79" data-name="&lt;Group&gt;"><path class="cls-11" d="M115.84,219.53l-4.14,1.21c-1,.34-2.09.66-3.13,1-1.25.4-2.51.74-3.77,1.11s-2.52.71-3.78,1-2.53.68-3.8,1l-1.9.47-.95.24-.47.12-.1,0-.14.07c-1.06.57-2.21,1.28-3.31,1.94l-6.67,4.09L77,235.93,70.32,240q-3.34,2.06-6.7,4.07l-3.72,2.23,15.46,2.14,53.12-26.89Z"/></g></g><g id="_Group_80" data-name="&lt;Group&gt;"><g id="_Group_81" data-name="&lt;Group&gt;"><path class="cls-11" d="M174.61,224.43l1,3.74,10.24,1.41-2.18-9.8Q179.13,222.11,174.61,224.43Z"/></g></g><g id="_Group_82" data-name="&lt;Group&gt;"><g id="_Group_83" data-name="&lt;Group&gt;"><path class="cls-11" d="M103.47,208.31A16.3,16.3,0,0,0,110,211l17-3.42L96,173.7l-2.75,0a5.11,5.11,0,0,0-3.94,5.55C89.64,185.54,97.22,204.19,103.47,208.31Z"/></g></g><g id="_Group_84" data-name="&lt;Group&gt;"><g id="_Group_85" data-name="&lt;Group&gt;"><path class="cls-11" d="M160.34,203.4l-.55.1-46.52,9.34a12.79,12.79,0,0,1,1.09,1.32l2.22,3,16,2.57a1.22,1.22,0,0,1,1,1.08c1.81-.25,5-.88,5-2.21.07-1.85-9.28-5.62-9.28-5.62l36-3.34c6.45-3.7,12.85-7.41,19.09-11.1l-24.13,4.85Z"/></g></g><g id="_Group_86" data-name="&lt;Group&gt;"><g id="_Group_87" data-name="&lt;Group&gt;"><path class="cls-17" d="M159.33,201.08l.28-.05,11.86-9.74-13.65.28a15.9,15.9,0,0,0-7.4,2l-21.75,12.17.47.51Z"/></g></g><g id="_Group_88" data-name="&lt;Group&gt;"><path id="_Path_47" data-name="&lt;Path&gt;" class="cls-11" d="M300.71,217.13c-.43.07-3,.63-4.46,4.25a10.74,10.74,0,0,0-.05,6.75c2.67-.33,4.2-.48,4.2-.48s1.46,2.91,1,4.48c0,0-.08.17-.25.47,5.27-.24,9.27-1.59,11.48-3.95a6.43,6.43,0,0,0,1.73-5.46C313.79,218.72,304.41,217.31,300.71,217.13Z"/></g><g id="_Group_89" data-name="&lt;Group&gt;"><path id="_Path_48" data-name="&lt;Path&gt;" class="cls-17" d="M313.35,221.13a26.12,26.12,0,0,1-3.87,3.12c-5.26,3.63-11.82,2.58-13.65,2.19a14.2,14.2,0,0,0,.37,1.69c2.67-.33,4.2-.48,4.2-.48s1.46,2.91,1,4.48c0,0-.08.17-.25.47,5.27-.24,9.27-1.59,11.48-3.95a6.43,6.43,0,0,0,1.73-5.46A3.74,3.74,0,0,0,313.35,221.13Z"/></g><g id="_Group_90" data-name="&lt;Group&gt;"><g id="_Group_91" data-name="&lt;Group&gt;"><path class="cls-11" d="M250.28,210.78c1.17,1.85,1.89,3,1.89,3s-9.07,3.52-10.34,16L203.63,228a56.15,56.15,0,0,0-5.22,10.2,8.08,8.08,0,0,0,.32,1.76c1.43,4.64,13.35,5.87,28.69,7.79s20.48,10.38,20.48,10.38c7.23.93,18-1.81,24.66-3.82,7.18-3.88,14.33-8.75,19.43-12.21l1.8-1.23a63.61,63.61,0,0,0,7.57-5.81c-.68,0-1.38.05-2.1.05a25.85,25.85,0,0,1-11.94,7c-11,3.28-17.76,1.72-17.76,1.72l-2.37-4.2s6.14-7.91,16.22-9.62c4-.68,7.55-1.19,10.33-1.57a12.94,12.94,0,0,1,.23-8c2.14-5.34,6.4-5.77,6.58-5.78h.16a36.39,36.39,0,0,1,8.53,1.46,7.43,7.43,0,0,0-3.47-2.87C302.6,211.91,271.7,211.06,250.28,210.78Z"/></g></g><g id="_Group_92" data-name="&lt;Group&gt;"><g id="_Group_93" data-name="&lt;Group&gt;"><path class="cls-17" d="M292,242.08l1.8-1.23a63.61,63.61,0,0,0,7.57-5.81c-.68,0-1.38.05-2.1.05a25.85,25.85,0,0,1-11.94,7c-11,3.28-17.76,1.72-17.76,1.72l-.73-1.3c-17.75,4.33-57.91-3.44-69.78-5.92-.22.51-.43,1-.64,1.56a8.08,8.08,0,0,0,.32,1.76c1.43,4.64,13.35,5.87,28.69,7.79s20.48,10.38,20.48,10.38c7.23.93,18-1.81,24.66-3.82C279.74,250.41,286.89,245.54,292,242.08Z"/></g></g><g id="_Group_94" data-name="&lt;Group&gt;"><g id="_Group_95" data-name="&lt;Group&gt;"><path class="cls-11" d="M335.63,166.55c-8.55.5-23,3-25.42,3.47l-6.67,6c.16,1.16.31,2.23.45,3.16,1.44,9.71,3.82,13.45,3.82,13.45l-10.34,0s1.29-4.06.78-7.13c-.09-.57-.3-2.17-.57-4.38L265,208.58c12.39.27,28.2.75,36.48,1.55,6.57-4.3,41-35.08,46.41-39.95C346.74,168.6,343.27,166.11,335.63,166.55Z"/></g></g><g id="_Group_96" data-name="&lt;Group&gt;"><g id="_Group_97" data-name="&lt;Group&gt;"><g id="_Group_98" data-name="&lt;Group&gt;"><path class="cls-11" d="M298.25,185.49c-.09-.57-.3-2.17-.57-4.38l-3.63,3a23.34,23.34,0,0,0,3.42,8.46S298.76,188.56,298.25,185.49Z"/></g></g><g id="_Group_99" data-name="&lt;Group&gt;"><g id="_Group_100" data-name="&lt;Group&gt;"><path class="cls-17" d="M335.63,166.55c-8.55.5-23,3-25.42,3.47l-6.67,6c.16,1.16.31,2.23.45,3.16,1.44,9.71,3.82,13.45,3.82,13.45l-10.34,0c-5,10.61-18.71,14.57-28.58,16,11.65.28,25.16.74,32.59,1.46,6.57-4.3,41-35.08,46.41-39.95C346.74,168.6,343.27,166.11,335.63,166.55Z"/></g></g></g><g id="_Group_101" data-name="&lt;Group&gt;"><g id="_Group_102" data-name="&lt;Group&gt;"><path class="cls-17" d="M289,247.08l12.53,7.23,4-7.19s8,1.78,10.76,5a5.36,5.36,0,0,0,0-4c-1-2.53-4-4.49-8.15-5.37A27.09,27.09,0,0,0,293,244.36C291.76,245.2,290.42,246.12,289,247.08Z"/></g></g><g id="_Group_103" data-name="&lt;Group&gt;"><path id="_Path_49" data-name="&lt;Path&gt;" class="cls-11" d="M228.1,253.15a63.19,63.19,0,0,0-18.74,1.23,48.68,48.68,0,0,1-5.18.8l-55.91,32.16a91.13,91.13,0,0,0,3.48,10.13l-8.06-1.12a54.7,54.7,0,0,0-.79-5.92L74.09,330a132.07,132.07,0,0,1,14.49,5c10,4.08,14.35,3,16,2l0-.1A3.9,3.9,0,0,0,104,336a6.29,6.29,0,0,0-1-1.05,10.62,10.62,0,0,0-1.52-1.07,16.41,16.41,0,0,0-1.92-1c-.7-.31-1.44-.6-2.21-.87s-1.55-.52-2.35-.74c-1.61-.46-3.24-.83-4.79-1.13s-3-.56-4.25-.77-2.3-.36-3-.49l-1.16-.18s.43,0,1.18-.08,1.81,0,3.09,0,2.77.11,4.36.29,3.29.42,5,.76c.84.17,1.69.36,2.52.58s1.63.48,2.41.77a20.19,20.19,0,0,1,2.21,1,12.72,12.72,0,0,1,1.9,1.18,9.45,9.45,0,0,1,1.44,1.36,7.24,7.24,0,0,1,.8,1.18l134.14-78.35C239.41,256.09,236,253.84,228.1,253.15Z"/></g><g id="_Group_104" data-name="&lt;Group&gt;"><g id="_Group_105" data-name="&lt;Group&gt;"><path class="cls-17" d="M240.73,257.35c-1.32-1.26-4.74-3.51-12.63-4.2a63.19,63.19,0,0,0-18.74,1.23,48.68,48.68,0,0,1-5.18.8l-6.75,3.89h0s12.64-.2,10.1,7.67c-2.37,7.34-97.59,56.77-110.31,63.35l.61.15c.82.23,1.63.48,2.41.77a20.19,20.19,0,0,1,2.21,1,12.72,12.72,0,0,1,1.9,1.18,9.45,9.45,0,0,1,1.44,1.36,7.24,7.24,0,0,1,.8,1.18Z"/></g></g><g id="_Group_106" data-name="&lt;Group&gt;"><g id="_Group_107" data-name="&lt;Group&gt;"><path class="cls-17" d="M241.44,290.93a63.1,63.1,0,0,0-8.56-.59,8.26,8.26,0,0,0-2.85,5s16.08,2.15,22.33,7.73a7.38,7.38,0,0,0,1.37-2.2c.34-1.17-3.74-7.47-10.75-9.69C242.8,291.14,242.25,291,241.44,290.93Z"/></g></g><g id="_Group_108" data-name="&lt;Group&gt;"><g id="_Group_109" data-name="&lt;Group&gt;"><path class="cls-11" d="M199,230.93c7.07-13.36,16.94-19.46,21.1-21.56l-.27-1.54-1.22.38c-.12,0-11.81,3.73-17.37,10.7a21.34,21.34,0,0,0-4.81,11.73Z"/></g></g><g id="_Group_110" data-name="&lt;Group&gt;"><g id="_Group_111" data-name="&lt;Group&gt;"><g id="_Group_112" data-name="&lt;Group&gt;"><path d="M335.49,164.1c-9.45.55-25.9,3.54-26.06,3.57a1.21,1.21,0,0,0-.6.29L303.16,173c-1.15-9.17-2.5-21.81-2.94-26,24.8-19,42.49-34.24,42.86-34.56l.76-.66-.5-.88c-6.17-10.87-32.84-1.42-34-1l-.19.07-.15.11c-.2.16-20.47,15.86-68.85,52.48-12.09,9.16-29.71,20.4-49.34,32.14L164.74,200l11-9a1.26,1.26,0,0,0,.49-1.1,1.23,1.23,0,0,0-1.25-1.11l-17.2.35a18.24,18.24,0,0,0-8.54,2.32L127,203.89,97.4,171.63a1.23,1.23,0,0,0-.93-.4l-14,.24a1.22,1.22,0,0,0-1,.5,1.25,1.25,0,0,0-.18,1.09l15.49,50h0l-1.92.38-1,.19-.48.1a1.51,1.51,0,0,0-.38.1l-.3.13c-1.26.62-2.36,1.25-3.52,1.9-2.28,1.28-4.56,2.57-6.81,3.89s-4.52,2.63-6.77,4l-6.72,4c-2.24,1.34-4.48,2.69-6.7,4.07s-4.45,2.74-6.65,4.15h0a1.22,1.22,0,0,0-.59,1.13,1.3,1.3,0,0,0,1.14,1.14l19.24,2.67a1.22,1.22,0,0,0,.72-.13l34.7-17.56,9.23,1.65c-36.09,19.68-65.34,34.69-66,35h0a1.23,1.23,0,0,0,.18,2.26h0a67.65,67.65,0,0,0,11.54,2.71c13.59,1.88,20.79-2.09,21.18-2.31s18.13-10.71,44-24.9c1.46,4.59,6.79,21.38,9.41,31.31.91,3.49,1.58,6.45,2.06,8.88L70.24,329.4a1.25,1.25,0,0,0-.6,1.25,1.24,1.24,0,0,0,1,1,120.86,120.86,0,0,1,17.06,5.58,42.63,42.63,0,0,0,10,2.9c5.12.71,7.76-.53,9.05-1.65l131-76.54a37.38,37.38,0,0,0,5.73,1.22c1.33.18,2.84.33,4.48.39l-6.17,24.93c-4.17-.59-14.88-1.64-22.58,1.75-3,1.3-4.44,2.85-4.51,4.72-.14,3.62,5.41,6.57,9.88,8.94l.9.48c2.41,1.29,9.71,5,15.81,5.84a15.26,15.26,0,0,0,3.41.12c5.53-.5,10.6-6,11.41-8.78.88-3-3.59-8.67-9.61-11.62l7.88-26.62a38.4,38.4,0,0,0,4.86-.84c6.82-1.62,15-6,22.29-10.56,2.4,1.43,10.9,6.36,18,8.73.48,1.76,2,4.59,7.08,4.44,5.28-.17,5.66-3.6,5.46-5.51a13.39,13.39,0,0,0,5.48-4.45,8.35,8.35,0,0,0,1.1-7.94c-1.34-3.29-5-5.79-9.92-6.85a27,27,0,0,0-9.66-.18,31.33,31.33,0,0,0,6.1-5.51c4.09-.68,7.29-2.14,9.33-4.32a8.87,8.87,0,0,0,2.38-7.46,6.29,6.29,0,0,0-.25-1.08c13.38.08,25.1-10.14,25.1-10.14l-1.48-4.24s-8.25-1.65-15.53,1.68a52.87,52.87,0,0,0-12.24,8.23,9.48,9.48,0,0,0-5.68-6.33,9.22,9.22,0,0,0-1.69-.41c10.85-8.36,43.68-37.84,45.21-39.22a1.23,1.23,0,0,0,.33-1.33C349.68,167.56,345.49,163.52,335.49,164.1Zm-38.16,14.1-36.05,30.31c-5.79-.12-10.43-.18-12.54-.2-1.23-2-2.7-4.44-4.24-7.1-2.94-5.1-2.38-10.7-1.84-13.43,18-11.48,36-24.35,51.58-36.16C294.74,156,296.29,169.54,297.33,178.2Zm-55.27,29.47s-9.32,1.62-10.69-.44,6.34-10,6.34-10C239.69,200.13,242.06,207.67,242.06,207.67Zm-57.6-9.13c-6.24,3.69-12.64,7.4-19.09,11.1l-36,3.34s9.35,3.77,9.28,5.62c0,1.33-3.23,2-5,2.21a1.22,1.22,0,0,0-1-1.08l-16-2.57-2.22-3a12.79,12.79,0,0,0-1.09-1.32l46.52-9.34.55-.1h0Zm-34-5a15.9,15.9,0,0,1,7.4-2l13.65-.28L159.61,201l-.28.05-30.19,5.18-.47-.51ZM89.27,179.29a5.11,5.11,0,0,1,3.94-5.55l2.75,0,31,33.87L110,211a16.3,16.3,0,0,1-6.5-2.68C97.22,204.19,89.64,185.54,89.27,179.29ZM75.36,248.45,59.9,246.31l3.72-2.23q3.36-2,6.7-4.07L77,235.93l6.68-4.1,6.67-4.09c1.1-.66,2.25-1.37,3.31-1.94l.14-.07.1,0,.47-.12.95-.24,1.9-.47c1.27-.32,2.53-.67,3.8-1s2.52-.69,3.78-1,2.52-.71,3.77-1.11c1-.32,2.09-.64,3.13-1l4.14-1.21,12.64,2ZM86.8,269.83a9.43,9.43,0,0,0-.71-.87,10,10,0,0,0-1.25-1.09c-.25-.17-.5-.35-.78-.51a8.88,8.88,0,0,0-.87-.46,7.21,7.21,0,0,0-.94-.41,8.44,8.44,0,0,0-1-.35c-.34-.1-.7-.2-1.07-.27s-.75-.16-1.08-.19l-.52-.07-.27,0H78l-1.11-.07c-.74,0-1.48,0-2.2,0-.36,0-.71.07-1.06.11s-.7.09-1,.16-.66.12-1,.2a8.42,8.42,0,0,0-.93.24c-.6.17-1.16.36-1.67.54a17,17,0,0,0-2.37,1.08,8.58,8.58,0,0,0-.84.51s.33-.12.93-.28,1.46-.36,2.49-.55c.51-.09,1.07-.17,1.66-.23s1.22-.12,1.87-.13,1.3,0,2,0,1.35.1,2,.17l1,.16.13,0H78l.26.06.51.11a8.23,8.23,0,0,1,.93.25,8.07,8.07,0,0,1,.87.29,6.86,6.86,0,0,1,.83.34,5.23,5.23,0,0,1,.75.37,7.19,7.19,0,0,1,.68.41,6.65,6.65,0,0,1,.58.42,11.42,11.42,0,0,1,.92.83l.28.34c-3.07,1.21-12.17,3.79-26.68-.26C77.41,260.63,197,198.4,241.66,164.58c46.17-35,66.76-50.85,68.72-52.37,7-2.5,25.09-7.12,30.26-.85-8.59,7.34-81.55,69-137.26,95.94C148.59,233.8,94.9,265.08,86.8,269.83ZM194,230.36l-5-.56-2.55-11.38c6-3,12-6,18-8.91,3.06-1.47,6.16-3.06,9.3-4.73l2.1,1.81c-3.79,1.43-11.9,5-16.51,10.78A23.78,23.78,0,0,0,194,230.36Zm-8.09-.78-10.24-1.41-1-3.74q4.51-2.33,9.11-4.65Zm30.18-26,2.76-1.51.8,4.56Zm-14.82,15.37c5.56-7,17.25-10.66,17.37-10.7l1.22-.38.27,1.54c-4.16,2.1-14,8.2-21.1,21.56l-2.57-.29A21.34,21.34,0,0,1,201.26,218.91Zm20-18.24q4.71-2.65,9.49-5.53c-.18,4-4.51,10-6.51,9.73C222.72,204.71,221.74,202.21,221.27,200.67Zm-84.16,43.64,5.51-3L197.85,256l-50.29,28.93C143.37,270.47,138.36,249.58,137.11,244.31ZM106.59,335.7a7.24,7.24,0,0,0-.8-1.18,9.45,9.45,0,0,0-1.44-1.36,12.72,12.72,0,0,0-1.9-1.18,20.19,20.19,0,0,0-2.21-1c-.78-.29-1.59-.54-2.41-.77s-1.68-.41-2.52-.58c-1.7-.34-3.4-.58-5-.76s-3.08-.26-4.36-.29-2.35,0-3.09,0-1.18.08-1.18.08l1.16.18c.73.13,1.78.27,3,.49s2.71.47,4.25.77,3.18.67,4.79,1.13c.8.22,1.59.48,2.35.74s1.51.56,2.21.87a16.41,16.41,0,0,1,1.92,1,10.62,10.62,0,0,1,1.52,1.07,6.29,6.29,0,0,1,1,1.05,3.9,3.9,0,0,1,.53.91l0,.1c-1.6.93-5.9,2-16-2a132.07,132.07,0,0,0-14.49-5l68.81-39.59a54.7,54.7,0,0,1,.79,5.92l8.06,1.12a91.13,91.13,0,0,1-3.48-10.13l55.91-32.16a48.68,48.68,0,0,0,5.18-.8,63.19,63.19,0,0,1,18.74-1.23c7.89.69,11.31,2.94,12.63,4.2Zm147.14-34.84a7.38,7.38,0,0,1-1.37,2.2c-6.25-5.58-22.33-7.73-22.33-7.73a8.26,8.26,0,0,1,2.85-5,63.1,63.1,0,0,1,8.56.59c.81.11,1.36.21,1.54.24C250,293.39,254.07,299.69,253.73,300.86Zm54.42-58.11c4.15.88,7.12,2.84,8.15,5.37a5.36,5.36,0,0,1,0,4c-2.77-3.18-10.76-5-10.76-5l-4,7.19L289,247.08c1.44-1,2.78-1.88,4-2.72A27.09,27.09,0,0,1,308.15,242.75Zm6.22-19.56a6.43,6.43,0,0,1-1.73,5.46c-2.21,2.36-6.21,3.71-11.48,3.95.17-.3.25-.47.25-.47.45-1.57-1-4.48-1-4.48s-1.53.15-4.2.48a10.74,10.74,0,0,1,.05-6.75c1.45-3.62,4-4.18,4.46-4.25C304.41,217.31,313.79,218.72,314.37,223.19Zm-8.6-9.93a7.43,7.43,0,0,1,3.47,2.87,36.39,36.39,0,0,0-8.53-1.46h-.16c-.18,0-4.44.44-6.58,5.78a12.94,12.94,0,0,0-.23,8c-2.78.38-6.3.89-10.33,1.57-10.08,1.71-16.22,9.62-16.22,9.62l2.37,4.2s6.76,1.56,17.76-1.72a25.85,25.85,0,0,0,11.94-7c.72,0,1.42,0,2.1-.05a63.61,63.61,0,0,1-7.57,5.81l-1.8,1.23c-5.1,3.46-12.25,8.33-19.43,12.21-6.62,2-17.43,4.75-24.66,3.82,0,0-5.14-8.46-20.48-10.38s-27.26-3.15-28.69-7.79a8.08,8.08,0,0,1-.32-1.76,56.15,56.15,0,0,1,5.22-10.2l38.2,1.81c1.27-12.53,10.34-16,10.34-16s-.72-1.11-1.89-3C271.7,211.06,302.6,211.91,305.77,213.26Zm-4.29-3.13c-8.28-.8-24.09-1.28-36.48-1.55l32.68-27.47c.27,2.21.48,3.81.57,4.38.51,3.07-.78,7.13-.78,7.13l10.34,0s-2.38-3.74-3.82-13.45c-.14-.93-.29-2-.45-3.16l6.67-6c2.4-.43,16.87-3,25.42-3.47,7.64-.44,11.11,2,12.26,3.63C342.46,175.05,308.05,205.83,301.48,210.13Z"/></g></g></g></g></g><g id="_Group_113" data-name="&lt;Group&gt;"><path id="_Path_50" data-name="&lt;Path&gt;" class="cls-17" d="M105.45,229.82c-9.74,5.28-29.67,14.6-36.45,17.75l6.36.88,53.12-26.89-12.64-2-2.27.66C113.55,222.66,112.06,226.24,105.45,229.82Z"/></g></g></g><path class="cls-11" d="M230.87,91a14.63,14.63,0,0,0-4.7-1q-1.86-.09-3.72-.09c-2.13,0-4.07,1.08-5.75,3.19a26.39,26.39,0,0,0-2.54,3.9,11.25,11.25,0,0,0-2.08-2.68c-2.18-2.09-5.34-3.16-9.39-3.16-1.61,0-4.55.67-6.16,5.13a26.31,26.31,0,0,0-.91,3.24l-.09-.18a12.31,12.31,0,0,0-4.46-4.73A11.29,11.29,0,0,0,185.34,93c-1.15,0-2.36.07-3.6.19a16,16,0,0,0-4.42,1.12,13.24,13.24,0,0,0-4.24,2.88,12.36,12.36,0,0,0-2.14,2.93,11.24,11.24,0,0,0-4,3.24,18.91,18.91,0,0,0-3.1,6,34.25,34.25,0,0,0-1.35,6.67,61.39,61.39,0,0,0-.36,6.54,50.17,50.17,0,0,0,.55,7.29,26.13,26.13,0,0,0,2.28,7.66A17.62,17.62,0,0,0,170,144a14,14,0,0,0,8.89,2.87,14.88,14.88,0,0,0,10-3.57,23.12,23.12,0,0,0,5.88-7.92c.36-.75.68-1.53,1-2.33a32.29,32.29,0,0,0,2.46,7.17,16,16,0,0,0,4.73,6,12,12,0,0,0,5.35,2.27,10.33,10.33,0,0,0,1.43.1,8.15,8.15,0,0,0,3.92-.95,5.8,5.8,0,0,0,3.41-5.17,8.16,8.16,0,0,0-.45-2.58l-.54-1.63c-.18-.54-.38-1.27-.6-2.16s-.39-1.8-.57-3a23.9,23.9,0,0,1,.51-3.55c.34-1.55.74-3.16,1.21-4.78s1-3.27,1.59-4.91c.26-.74.52-1.46.78-2.18l.25.13a16.27,16.27,0,0,0,7.31,1.53,8.19,8.19,0,0,0,6-2.57,13.56,13.56,0,0,0,2.83-4.62,24.71,24.71,0,0,0,1.3-5.34,43.91,43.91,0,0,0,.37-5.67,11.41,11.41,0,0,0-1.69-6.51A9.57,9.57,0,0,0,230.87,91Zm-46.22,28.91c.06-1.39.09-2.74.11-4.06l.15-.23C184.88,116.94,184.79,118.38,184.65,119.86Z"/><path class="cls-11" d="M125.74,58.89a77.48,77.48,0,0,1,9.94-.79,14.41,14.41,0,0,1,2.74.24c1.21.23,2.3.41,3.24.52a11.56,11.56,0,0,0,1.27.07,7.76,7.76,0,0,0,2.87-.51,5.82,5.82,0,0,0,3.59-5.67,10.36,10.36,0,0,0-1.58-5.1,19,19,0,0,0-3.49-4.38,21.91,21.91,0,0,0-4.84-3.43,14.19,14.19,0,0,0-6.59-1.63,92.28,92.28,0,0,0-12.64,1.07c-4.86.69-10.22,1.68-16,2.94s-11.76,2.83-18,4.68-12.43,4-18.46,6.3S56,58.12,50.52,60.87A96,96,0,0,0,35.78,70,49.62,49.62,0,0,0,25.19,80.63a22.49,22.49,0,0,0-4.42,13.1,6,6,0,0,0,2.18,5,5.46,5.46,0,0,0,3.41,1.19,5.52,5.52,0,0,0,1.91-.34,6.49,6.49,0,0,0,3.16-2.5A7.06,7.06,0,0,0,32.67,93a4.59,4.59,0,0,1,1.45-2.34,32.06,32.06,0,0,1,6.49-5A96.63,96.63,0,0,1,51.2,80.08c1.68-.76,3.44-1.52,5.24-2.27q-.27,1.48-.51,3.09a56,56,0,0,0-6.5,3.47c-2.29,1.46-5.33,3.81-5.33,7.32a8.39,8.39,0,0,0,1.16,4.19,12.62,12.62,0,0,0,2.22,2.82,13.83,13.83,0,0,0,2.83,2,8.51,8.51,0,0,0,3.95,1.11c0,1.15,0,2.31,0,3.49,0,1.55.09,3.58.29,6.2s.54,5.44,1,8.43,1.14,6.11,2,9.2a50.18,50.18,0,0,0,3.17,8.9,25.75,25.75,0,0,0,5,7.23A11.93,11.93,0,0,0,74.16,149a11.6,11.6,0,0,0,4.5-.91c3.46-1.43,4.19-3.65,4.19-5.27,0-.82-.11-1.25-1.07-4.17-.5-1.54-1.07-3.78-1.68-6.64s-1.19-6.45-1.7-10.57a114.65,114.65,0,0,1-.76-13.84c0-3.44.15-6.82.45-10q.33-3.6.81-7c1.41-.67,2.83-1.32,4.26-2s3-1.33,4.48-1.92c-.08.77-.17,1.54-.26,2.34-.46,4.24-.89,8.53-1.26,12.74s-.66,8.38-.85,12.26-.22,7.49-.09,10.46a43.41,43.41,0,0,0,2.2,12.42,36.76,36.76,0,0,0,4.54,9.14,22,22,0,0,0,6.09,6,13.73,13.73,0,0,0,5.28,2.08,5.36,5.36,0,0,0-2.86,4.49,8.75,8.75,0,0,0,1.13,4.91,13.24,13.24,0,0,0,3.2,3.83,20,20,0,0,0,4.56,2.76,20.69,20.69,0,0,0,6.18,1.58c.7.07,1.39.1,2.08.1a20.73,20.73,0,0,0,11.23-3.4A34.74,34.74,0,0,0,139,158.22a55.28,55.28,0,0,0,6.71-14.6,59.9,59.9,0,0,0,2.52-17.36c0-6.74-.12-12.11-.34-16-.21-3.66-.31-6.32-.31-7.91a8.57,8.57,0,0,0-1.76-5.18,12.23,12.23,0,0,0-3.54-3.13A18.07,18.07,0,0,0,138,92.24a17.25,17.25,0,0,0-4.8-.69,7.26,7.26,0,0,0-5,1.61,8.87,8.87,0,0,0-1.33-1.89,14.42,14.42,0,0,0-3.84-2.9,21.11,21.11,0,0,0-4.52-1.73,19.31,19.31,0,0,0-4.88-.66,7.75,7.75,0,0,0-4.41,1.13c.16-1.56.32-3.08.48-4.55.41-3.77.73-7,1-9.78a43.9,43.9,0,0,0,.29-6.2,9.75,9.75,0,0,0-1.54-4.75c1-.21,2-.43,2.93-.62C117.16,60.21,121.68,59.43,125.74,58.89Zm-43,12.26c0-.19.09-.38.14-.55.2-.83.36-1.52.49-2.11q3.21-1,6.44-1.85c0,.51-.1,1.14-.17,1.92,0,.29-.07.62-.1.93-.72.15-1.45.3-2.23.48C85.91,70.3,84.37,70.7,82.76,71.15Zm34.68,74.7a13.44,13.44,0,0,0,4.39.85,9.36,9.36,0,0,0,.94,0,5.46,5.46,0,0,0,1.23-.23l.51-.16a26.69,26.69,0,0,1-3.14,5.27,16.5,16.5,0,0,1-4.55,4.23,6.86,6.86,0,0,1-2.27,1,5.89,5.89,0,0,1-2-.54c-1-.5-1.93-1-2.67-1.33a13.39,13.39,0,0,0-2.26-.93,5.18,5.18,0,0,0,3.28-7.16c-.26-.67-.65-1.52-1.24-2.68a24.53,24.53,0,0,1-1.32-3.27,41,41,0,0,1-1.31-5.26,20.53,20.53,0,0,0,4.55,6.62A17,17,0,0,0,117.44,145.85Z"/><path class="cls-11" d="M388,112.36a5.57,5.57,0,0,0-3.21-3.19,5.31,5.31,0,0,0-1.89-.34,5.46,5.46,0,0,0-2.9.84,6.24,6.24,0,0,0-2.39,2.86,14.81,14.81,0,0,0-.88,2.78,28.22,28.22,0,0,1-1.12,3.23c-.53,1.32-1.19,2.73-1.95,4.21a17.25,17.25,0,0,1-2.43,3.52,12,12,0,0,1-3,2.47,5.88,5.88,0,0,1-3,.72,1.93,1.93,0,0,1-.87-.53,10.56,10.56,0,0,1-2.31-3,20.35,20.35,0,0,1-1.82-4.77c.59.05,1.18.07,1.75.07a14.08,14.08,0,0,0,11.19-5.45c2.72-3.34,4.1-8.06,4.1-14a20.88,20.88,0,0,0-1.77-8.75,12.14,12.14,0,0,0-5.61-6.14,14.9,14.9,0,0,0-4.59-1.28,31.53,31.53,0,0,0-4.31-.28h-.73a23.47,23.47,0,0,0-5.62.81A13.69,13.69,0,0,0,349.19,89l-.13.12a26.49,26.49,0,0,0-3.81,4.72,42.53,42.53,0,0,0-3.61,6.89,56.33,56.33,0,0,0-2.74,8.46,42.26,42.26,0,0,0-1.15,9.87,23.49,23.49,0,0,0,.39,4.15l-.21.46c-.29.6-.59,1.2-.9,1.78a55.89,55.89,0,0,1-.67-9.46c0-.91,0-1.9.09-3l.18-3.5c.06-1.16.12-2.26.19-3.31s.1-2.2.1-3.15a8.53,8.53,0,0,0-3.55-6.8,17.43,17.43,0,0,0-2.72-1.78l.28,0,.9,0a10,10,0,0,0,5.09-1.3,7.52,7.52,0,0,0,3.62-6.89,10.78,10.78,0,0,0-1.37-5,18.09,18.09,0,0,0-2.94-4A17.14,17.14,0,0,0,332,74.07a11.71,11.71,0,0,0-5.58-1.48c-1.22,0-2.38,0-3.48,0a14.49,14.49,0,0,0-2.91.4,34.16,34.16,0,0,0-2.23-9.37,29,29,0,0,0-15.92-16.2,48,48,0,0,0-9.36-2.82,54,54,0,0,0-8.5-1c-2.43-.06-4.34-.1-5.74-.1a57.27,57.27,0,0,0-15.55,2,68.24,68.24,0,0,0-13,5.08,61,61,0,0,0-10.61,6.95A69.82,69.82,0,0,0,231.44,65a39.94,39.94,0,0,0-5,6.85c-1.48,2.66-2.11,4.51-2.11,6.19,0,2.28,1.39,5,5.32,5.77a17.4,17.4,0,0,0,3.41.32c.48,0,1,0,1.51-.06a26.57,26.57,0,0,0,4.92-.78,10.06,10.06,0,0,0,4.85-2.45,8.47,8.47,0,0,0,1.49-2.11c.07.33.15.67.25,1a1.37,1.37,0,0,1,.08.43,36.5,36.5,0,0,1-.45,3.64c-.35,2.31-.71,5.12-1.1,8.6s-.73,7.23-1,11.31-.47,8.48-.44,12.74A102.26,102.26,0,0,0,244,129.1a45.38,45.38,0,0,0,3.07,11.64,23.62,23.62,0,0,0,6.54,9.08,17.27,17.27,0,0,0,11.35,3.8,35.48,35.48,0,0,0,15.31-3.51,52.55,52.55,0,0,0,13.3-9.16,73.72,73.72,0,0,0,11-13.13A98.28,98.28,0,0,0,313,112.21c.85-2,1.62-4.06,2.34-6.13-.06.82-.11,1.7-.16,2.67-.1,2-.14,4.39-.14,7.1,0,2.3.14,5,.43,8.1a42.28,42.28,0,0,0,2,9.55,23.15,23.15,0,0,0,5.11,8.61,14.17,14.17,0,0,0,10.58,4.26h.19a9.2,9.2,0,0,0,6.46-2.92,26.73,26.73,0,0,0,4-5.06c.36-.6.72-1.25,1.08-1.89a25.68,25.68,0,0,0,7.38,5.57A23.62,23.62,0,0,0,363,144.51a17.6,17.6,0,0,0,8.84-2.27,24.21,24.21,0,0,0,6.36-5.28,35.57,35.57,0,0,0,4.43-6.51,62.52,62.52,0,0,0,2.92-6.29A54.45,54.45,0,0,0,387.3,119c.29-1,.48-1.71.62-2.09A6.14,6.14,0,0,0,388,112.36ZM293.62,89.48a103.65,103.65,0,0,1-5.07,17.08,86.92,86.92,0,0,1-6.87,13.76,77.67,77.67,0,0,1-7.45,10.18,36.52,36.52,0,0,1-6.45,6c-.13.1-.27.18-.39.26-.07-.88-.11-1.87-.13-3,0-2.48.08-5.38.32-8.62s.56-6.7,1-10.23.83-7,1.29-10.5.89-6.61,1.29-9.38.73-5.15,1-7a31.43,31.43,0,0,0,.42-4,9.45,9.45,0,0,0-1.77-5.1,16.94,16.94,0,0,0-4-4.19,23.78,23.78,0,0,0-5.53-3.06,19.58,19.58,0,0,0-7.33-1.35,12.45,12.45,0,0,0-3.31.38q1.26-1.62,2.9-3.36a29.59,29.59,0,0,1,6.36-5,38.71,38.71,0,0,1,9.42-3.89A49.76,49.76,0,0,1,282.41,57a13.4,13.4,0,0,1,4.12.79,14.53,14.53,0,0,1,4.4,2.38,13.36,13.36,0,0,1,3.38,4,10.72,10.72,0,0,1,1.25,5.43A97.1,97.1,0,0,1,293.62,89.48Zm29.69,3a11.88,11.88,0,0,0-1.48.09,7.09,7.09,0,0,0-3.1,1.15c.23-1.14.45-2.28.64-3.41l.76.49a28.57,28.57,0,0,0,3.26,1.68Z"/><path class="cls-10" d="M185.34,97.64a6.69,6.69,0,0,1,3.42.92,7.65,7.65,0,0,1,2.76,3,19.64,19.64,0,0,1,1.87,5.38,39.15,39.15,0,0,1,.71,8,57.65,57.65,0,0,1-.83,9.63,34.6,34.6,0,0,1-2.67,8.8,18.85,18.85,0,0,1-4.71,6.38,10.36,10.36,0,0,1-7,2.46,9.45,9.45,0,0,1-6-1.88,13.17,13.17,0,0,1-3.76-4.75,22,22,0,0,1-1.87-6.34,45.51,45.51,0,0,1-.5-6.63,57.73,57.73,0,0,1,.33-6,29.67,29.67,0,0,1,1.17-5.79,14.17,14.17,0,0,1,2.33-4.59,6.48,6.48,0,0,1,3.76-2.42,8.75,8.75,0,0,1,2-3.33,8.44,8.44,0,0,1,2.75-1.88,10.83,10.83,0,0,1,3.13-.79A30.86,30.86,0,0,1,185.34,97.64Zm-2.25,40.28c.89,0,1.75-.86,2.59-2.59a32.63,32.63,0,0,0,2.17-6.52,66.1,66.1,0,0,0,1.37-8.49,51.08,51.08,0,0,0,.21-8.48,20.58,20.58,0,0,0-1.33-6.52c-.73-1.73-1.84-2.59-3.34-2.59-.67,0-1.14.47-1.42,1.42a30.45,30.45,0,0,0-.75,3.3c-.22,1.26-.5,2.52-.83,3.81a5.89,5.89,0,0,1-1.59,2.92q0,3.76-.25,7.94t-.21,7.69a20.68,20.68,0,0,0,.76,5.81C180.94,137.16,181.81,137.92,183.09,137.92Z"/><path class="cls-10" d="M222.45,94.47q1.76,0,3.51.09a10,10,0,0,1,3.21.66,5.12,5.12,0,0,1,2.37,2,7.16,7.16,0,0,1,.92,4,37.91,37.91,0,0,1-.33,5,20.47,20.47,0,0,1-1,4.34,8.94,8.94,0,0,1-1.84,3,3.62,3.62,0,0,1-2.71,1.17,11.63,11.63,0,0,1-5.25-1c-1.39-.69-2.09-1.51-2.09-2.46a17.74,17.74,0,0,1,.21-2.16c.14-1,.29-2,.46-3,.22-1.16.47-2.44.75-3.83q-2.76,5.58-4.92,11.09-.91,2.42-1.84,5t-1.66,5.17c-.5,1.73-.93,3.42-1.3,5.09a26.83,26.83,0,0,0-.62,4.75c.22,1.51.46,2.77.71,3.8s.48,1.88.71,2.54l.54,1.63a3.58,3.58,0,0,1,.21,1.12c0,.39-.34.77-1,1.13a4.14,4.14,0,0,1-2.55.33,7.46,7.46,0,0,1-3.29-1.46,11.58,11.58,0,0,1-3.3-4.29,32.13,32.13,0,0,1-2.54-8.21,71.75,71.75,0,0,1-1-13.26q0-3.18.21-6.84c.14-2.45.36-4.71.67-6.8a27.1,27.1,0,0,1,1.2-5.21c.51-1.39,1.12-2.09,1.84-2.09,2.83,0,4.91.63,6.21,1.88a6,6,0,0,1,2,4.54,15.89,15.89,0,0,1-.25,2.72c-.17,1-.36,2-.58,3.16s-.42,2.38-.59,3.72a36.35,36.35,0,0,0-.25,4.33c0,3.06.09,5.76.25,8.09.34-1.83.81-3.84,1.42-6s1.29-4.35,2-6.55,1.55-4.32,2.41-6.38,1.71-3.88,2.55-5.46a24.13,24.13,0,0,1,2.42-3.84A3.1,3.1,0,0,1,222.45,94.47Z"/><path class="cls-10" d="M132.89,42.81a9.53,9.53,0,0,1,4.46,1.11,17,17,0,0,1,3.81,2.7,14,14,0,0,1,2.65,3.3,6.18,6.18,0,0,1,1,2.83c0,.75-.24,1.21-.7,1.4a4.13,4.13,0,0,1-1.91.14c-.8-.1-1.76-.25-2.88-.47a18.68,18.68,0,0,0-3.62-.32,81.54,81.54,0,0,0-10.55.83q-6.27.84-13.75,2.37T95.67,60.33q-8.22,2.09-16.4,4.6v.18a23.77,23.77,0,0,1-.84,4.37q-.83,3.34-2,8.36c2.11-.68,4.18-1.31,6.23-1.9s3.93-1.08,5.67-1.49,3.28-.71,4.64-.93a23.09,23.09,0,0,1,3.35-.32,5.42,5.42,0,0,1,2.14.65,9.82,9.82,0,0,1,1.86,1.3,6.8,6.8,0,0,1,1.34,1.63,3.4,3.4,0,0,1,.51,1.71.94.94,0,0,1-.55,1,3.63,3.63,0,0,1-1.35.23,9.83,9.83,0,0,1-1.77-.18,9.21,9.21,0,0,0-1.81-.19,15.66,15.66,0,0,0-3.95.65,52.38,52.38,0,0,0-5.3,1.81Q84.57,83,81.27,84.44c-2.2,1-4.38,2-6.55,3.07q-.75,4.55-1.21,9.62C73.2,100.5,73,104,73,107.58A120.15,120.15,0,0,0,73.83,122q.8,6.41,1.77,11a72.43,72.43,0,0,0,1.81,7.11c.56,1.7.84,2.62.84,2.74q0,.47-1.35,1a7,7,0,0,1-2.74.56,7.3,7.3,0,0,1-5.3-2.32,21.13,21.13,0,0,1-4-5.95A45.25,45.25,0,0,1,61.94,128q-1.17-4.47-1.86-8.79t-1-8q-.27-3.72-.27-5.86,0-5.3.27-10c-1.24.62-2.26,1.11-3.06,1.44a5.19,5.19,0,0,1-1.67.52,4,4,0,0,1-1.86-.56,8.84,8.84,0,0,1-1.86-1.35,7.64,7.64,0,0,1-1.4-1.76,3.88,3.88,0,0,1-.55-1.91q0-1.39,3.2-3.44a58.11,58.11,0,0,1,8.23-4.18q.55-4.27,1.3-7.76a54.54,54.54,0,0,1,1.58-6Q55.66,73,49.3,75.89A98.12,98.12,0,0,0,38.2,81.7a36.4,36.4,0,0,0-7.44,5.81Q28.07,90.39,28.07,93a2.45,2.45,0,0,1-.42,1.44,1.94,1.94,0,0,1-.93.79.9.9,0,0,1-.93-.14,1.64,1.64,0,0,1-.42-1.35A17.87,17.87,0,0,1,29,83.28a44.56,44.56,0,0,1,9.62-9.66A90.36,90.36,0,0,1,52.6,65q8-4,16.91-7.48t18.12-6.18q9.21-2.73,17.66-4.6t15.61-2.88A87.6,87.6,0,0,1,132.89,42.81Z"/><path class="cls-10" d="M94.51,64.18c-.06-1.86.5-3.05,1.67-3.57a5.62,5.62,0,0,1,4-.14,10.29,10.29,0,0,1,4.13,2.41,5.61,5.61,0,0,1,2,3.91,44.1,44.1,0,0,1-.28,5.57c-.24,2.73-.57,6-1,9.71s-.82,7.79-1.26,12.13-.85,8.6-1.25,12.78-.71,8.07-.93,11.66a79,79,0,0,0-.14,8.74,67.48,67.48,0,0,0,1,8.78,45.07,45.07,0,0,0,1.53,6.13,29.19,29.19,0,0,0,1.58,3.9,21.78,21.78,0,0,1,1,2.19c.19.49.17.83,0,1a2.9,2.9,0,0,1-1.63.28,8,8,0,0,1-4.46-1.49,17.61,17.61,0,0,1-4.79-4.78,32.07,32.07,0,0,1-4-8,39.19,39.19,0,0,1-2-11.1q-.18-4.28.09-10t.84-12.08q.55-6.31,1.26-12.64T93.26,78q.6-5.25,1-9A34.71,34.71,0,0,0,94.51,64.18Z"/><path class="cls-10" d="M142.93,102.38c0,1.67.1,4.4.32,8.18s.33,9,.33,15.7a54.91,54.91,0,0,1-2.33,16,50.28,50.28,0,0,1-6.13,13.38,30.11,30.11,0,0,1-8.78,8.88,16.06,16.06,0,0,1-15.15,1.39,15,15,0,0,1-3.48-2.09,8.27,8.27,0,0,1-2.09-2.46,4.19,4.19,0,0,1-.61-2.33c.06-.68.34-1,.84-.88a7,7,0,0,1,1.9.75c.78.4,1.71.86,2.79,1.39a10.42,10.42,0,0,0,3.58,1,8.88,8.88,0,0,0,5-1.53,20.93,20.93,0,0,0,5.9-5.39,34.57,34.57,0,0,0,5-9.24,36.89,36.89,0,0,0,2.09-13q0-3.44,0-7.62t-.14-8.36q-.56,2.79-1.49,6.65t-2,7.62c-.75,2.5-1.52,4.78-2.33,6.83a11.81,11.81,0,0,1-2.41,4.18c-.06.25-.31.43-.75.56a.39.39,0,0,0-.18,0,.67.67,0,0,1-.28.05,7.71,7.71,0,0,1-3.44-.56,12.06,12.06,0,0,1-4.23-2.69,16.21,16.21,0,0,1-3.58-5.3,20.65,20.65,0,0,1-1.48-8.36q0-3.81.37-8.46t.84-8.92q.45-4.27.83-7.58c.25-2.2.37-3.7.37-4.5a5.11,5.11,0,0,0-.32-1.72,10.21,10.21,0,0,1-.47-1.68,1.41,1.41,0,0,1,.28-1.25,2.87,2.87,0,0,1,2-.46,14.71,14.71,0,0,1,3.72.51,16.71,16.71,0,0,1,3.53,1.34,9.49,9.49,0,0,1,2.6,2,3.49,3.49,0,0,1,1,2.41,20.42,20.42,0,0,1-.55,3.9c-.38,1.74-.79,3.81-1.26,6.23s-.88,5.11-1.25,8.09a76.7,76.7,0,0,0-.56,9.47,54.79,54.79,0,0,0,.42,7.72,28,28,0,0,0,1,4.46c.31-1,.76-2.42,1.35-4.28s1.24-3.91,2-6.18,1.44-4.61,2.19-7.06,1.4-4.8,2-7.06,1.07-4.28,1.44-6a20.83,20.83,0,0,0,.56-4v-.75a5.11,5.11,0,0,0-.32-1.72,9.22,9.22,0,0,1-.47-1.67,1.41,1.41,0,0,1,.28-1.25,2.85,2.85,0,0,1,2-.47,12.66,12.66,0,0,1,3.53.51A13.14,13.14,0,0,1,139.86,98a7.78,7.78,0,0,1,2.23,1.95A3.93,3.93,0,0,1,142.93,102.38Z"/><path class="cls-10" d="M250.72,80.16a6.28,6.28,0,0,0-.27-1.76,4.08,4.08,0,0,1-.19-1.68,1.76,1.76,0,0,1,.84-1.25,5.28,5.28,0,0,1,2.78-.51,15.08,15.08,0,0,1,5.63,1A19.16,19.16,0,0,1,264,78.44a12.37,12.37,0,0,1,2.93,3,5.32,5.32,0,0,1,1,2.6c0,.38-.13,1.49-.38,3.35s-.57,4.18-1,7-.84,5.93-1.3,9.43-.9,7-1.3,10.6-.73,7-1,10.4-.36,6.39-.32,9a33.85,33.85,0,0,0,.55,6.36c.34,1.62.92,2.42,1.72,2.42q2.06,0,5.44-2.32a41.79,41.79,0,0,0,7.3-6.74,82.52,82.52,0,0,0,7.89-10.78,89.91,89.91,0,0,0,7.25-14.5,107.16,107.16,0,0,0,5.3-17.84,101.38,101.38,0,0,0,2-20.86,15.29,15.29,0,0,0-1.86-7.72,17.87,17.87,0,0,0-4.55-5.34A19.47,19.47,0,0,0,288,53.4a17.85,17.85,0,0,0-5.58-1A54,54,0,0,0,268,54.09a43.37,43.37,0,0,0-10.55,4.37,34.33,34.33,0,0,0-7.34,5.76,45.6,45.6,0,0,0-4.78,5.91A37.84,37.84,0,0,0,242.5,75a11.15,11.15,0,0,1-1.44,2.56,6.09,6.09,0,0,1-2.74,1.25,21.53,21.53,0,0,1-4.09.65,13.86,13.86,0,0,1-3.72-.18Q228.89,79,228.89,78a9.88,9.88,0,0,1,1.53-4,35.8,35.8,0,0,1,4.46-6,66.05,66.05,0,0,1,7.2-6.83,56,56,0,0,1,9.81-6.41A63.17,63.17,0,0,1,264,50.05a52.59,52.59,0,0,1,14.31-1.86c1.37,0,3.24,0,5.63.1a48.3,48.3,0,0,1,7.76.88,43.07,43.07,0,0,1,8.45,2.56,24.34,24.34,0,0,1,13.43,13.7,33.76,33.76,0,0,1,2.19,13,72.11,72.11,0,0,1-1.86,15.93,93.38,93.38,0,0,1-5.21,16.08,92.28,92.28,0,0,1-8,14.87,68.85,68.85,0,0,1-10.31,12.31A48.1,48.1,0,0,1,278.28,146,30.83,30.83,0,0,1,264.94,149a12.7,12.7,0,0,1-8.41-2.74,18.92,18.92,0,0,1-5.25-7.34,40.83,40.83,0,0,1-2.74-10.45,94.94,94.94,0,0,1-.84-12.09q0-6.23.42-12.36t1-11.15c.38-3.34.73-6.14,1.07-8.41A39.83,39.83,0,0,0,250.72,80.16Z"/><path class="cls-10" d="M335.94,86.3a3.09,3.09,0,0,1-1.35,2.92,5.6,5.6,0,0,1-3.34.65,16.93,16.93,0,0,1-4.37-1,23.41,23.41,0,0,1-4.37-2.05,17.31,17.31,0,0,1-3.34-2.55,3.79,3.79,0,0,1-1.35-2.56,4.4,4.4,0,0,1,.7-2.69,3.89,3.89,0,0,1,1.86-1.35,9,9,0,0,1,2.74-.47c1.05,0,2.17,0,3.34,0a7.12,7.12,0,0,1,3.4.93,12.61,12.61,0,0,1,3.06,2.32,12.87,12.87,0,0,1,2.18,3A6.28,6.28,0,0,1,335.94,86.3Zm10.5,29a2.78,2.78,0,0,1,.65-1.16.72.72,0,0,1,.75-.19,1,1,0,0,1,.55.56,1.66,1.66,0,0,1,.1,1c-.19.74-.55,1.9-1.07,3.48s-1.18,3.35-1.95,5.3-1.65,4-2.61,6a53.42,53.42,0,0,1-3,5.67,21.44,21.44,0,0,1-3.25,4.18,4.8,4.8,0,0,1-3.25,1.62h-.19a9.54,9.54,0,0,1-7.25-2.83,18.71,18.71,0,0,1-4.08-6.92,37.16,37.16,0,0,1-1.82-8.51c-.28-2.94-.41-5.49-.41-7.66q0-4,.13-6.88c.1-1.92.22-3.53.38-4.83s.28-2.37.37-3.21a20.2,20.2,0,0,0,.14-2.09c0-1,.6-1.56,1.81-1.72a9.27,9.27,0,0,1,4,.51,13.07,13.07,0,0,1,4,2.19,4.1,4.1,0,0,1,1.82,3.2c0,.87,0,1.83-.1,2.88s-.12,2.17-.18,3.35-.13,2.34-.19,3.48-.09,2.22-.09,3.21a53.32,53.32,0,0,0,1.16,12.27,45.92,45.92,0,0,0,2.37,7.43,6.61,6.61,0,0,0,2.09-2,41,41,0,0,0,2.37-3.63c.81-1.36,1.58-2.82,2.33-4.37s1.42-3,2-4.41,1.13-2.62,1.53-3.67S346.32,115.72,346.44,115.29Z"/><path class="cls-10" d="M381.75,114.45a2,2,0,0,1,.65-.88.81.81,0,0,1,.75-.09,1,1,0,0,1,.56.6,1.7,1.7,0,0,1-.1,1.21c-.12.31-.37,1.13-.74,2.46s-.92,2.91-1.63,4.74a55.16,55.16,0,0,1-2.69,5.81,31.49,31.49,0,0,1-3.86,5.67,19.38,19.38,0,0,1-5.16,4.27,12.9,12.9,0,0,1-6.55,1.68,18.87,18.87,0,0,1-8.69-2,21,21,0,0,1-6.5-5,22.4,22.4,0,0,1-4-6.74,20.22,20.22,0,0,1-1.4-7.2,37.37,37.37,0,0,1,1-8.79,50.69,50.69,0,0,1,2.51-7.75,37.28,37.28,0,0,1,3.21-6.14,22,22,0,0,1,3.11-3.9,9,9,0,0,1,3.63-1.81,18.12,18.12,0,0,1,4.5-.65,27.56,27.56,0,0,1,4.33.23,10.41,10.41,0,0,1,3.16.83,7.73,7.73,0,0,1,3.48,4,16.2,16.2,0,0,1,1.35,6.83q0,7.35-3.07,11.11a9.45,9.45,0,0,1-7.62,3.76,17,17,0,0,1-3.48-.37c-1.21-.25-2.31-.52-3.3-.83a20.91,20.91,0,0,0,.55,6.78,24.73,24.73,0,0,0,2.28,6,15.05,15.05,0,0,0,3.35,4.22,5.9,5.9,0,0,0,3.85,1.63,10.37,10.37,0,0,0,5.3-1.35,16.16,16.16,0,0,0,4.13-3.39,21.57,21.57,0,0,0,3.07-4.46q1.26-2.42,2.14-4.6a30.32,30.32,0,0,0,1.3-3.81A15.51,15.51,0,0,1,381.75,114.45ZM364.28,98a4.93,4.93,0,0,0-3.34,1.31,11.56,11.56,0,0,0-2.6,3.43,23.46,23.46,0,0,0-1.86,4.93,42.37,42.37,0,0,0-1.12,5.85,7.2,7.2,0,0,0,5.11.61,7.35,7.35,0,0,0,3.53-2.42,11.09,11.09,0,0,0,2.05-4.09,17.16,17.16,0,0,0,.65-4.5,9.71,9.71,0,0,0-.6-3.63C365.69,98.5,365.09,98,364.28,98Z"/></g></g></svg>